G04 #@! TF.GenerationSoftware,KiCad,Pcbnew,(5.1.5)-3*
G04 #@! TF.CreationDate,2020-11-07T15:15:16-05:00*
G04 #@! TF.ProjectId,PRoMo,50526f4d-6f2e-46b6-9963-61645f706362,rev?*
G04 #@! TF.SameCoordinates,Original*
G04 #@! TF.FileFunction,Soldermask,Bot*
G04 #@! TF.FilePolarity,Negative*
%FSLAX46Y46*%
G04 Gerber Fmt 4.6, Leading zero omitted, Abs format (unit mm)*
G04 Created by KiCad (PCBNEW (5.1.5)-3) date 2020-11-07 15:15:16*
%MOMM*%
%LPD*%
G04 APERTURE LIST*
%ADD10C,0.100000*%
G04 APERTURE END LIST*
D10*
G36*
X160066250Y-157638626D02*
G01*
X160114646Y-157648253D01*
X160152412Y-157663896D01*
X160205821Y-157686019D01*
X160205822Y-157686020D01*
X160287879Y-157740848D01*
X160357662Y-157810631D01*
X160357663Y-157810633D01*
X160412491Y-157892689D01*
X160450257Y-157983865D01*
X160469510Y-158080655D01*
X160469510Y-158179345D01*
X160450257Y-158276135D01*
X160412491Y-158367311D01*
X160412490Y-158367312D01*
X160357662Y-158449369D01*
X160287879Y-158519152D01*
X160246572Y-158546752D01*
X160205821Y-158573981D01*
X160152412Y-158596104D01*
X160114646Y-158611747D01*
X160066250Y-158621373D01*
X160017855Y-158631000D01*
X159919165Y-158631000D01*
X159870770Y-158621373D01*
X159822374Y-158611747D01*
X159784608Y-158596104D01*
X159731199Y-158573981D01*
X159690448Y-158546752D01*
X159649141Y-158519152D01*
X159579358Y-158449369D01*
X159524530Y-158367312D01*
X159524529Y-158367311D01*
X159486763Y-158276135D01*
X159467510Y-158179345D01*
X159467510Y-158080655D01*
X159486763Y-157983865D01*
X159524529Y-157892689D01*
X159579357Y-157810633D01*
X159579358Y-157810631D01*
X159649141Y-157740848D01*
X159731198Y-157686020D01*
X159731199Y-157686019D01*
X159784608Y-157663896D01*
X159822374Y-157648253D01*
X159870770Y-157638626D01*
X159919165Y-157629000D01*
X160017855Y-157629000D01*
X160066250Y-157638626D01*
G37*
G36*
X157066250Y-157638626D02*
G01*
X157114646Y-157648253D01*
X157152412Y-157663896D01*
X157205821Y-157686019D01*
X157205822Y-157686020D01*
X157287879Y-157740848D01*
X157357662Y-157810631D01*
X157357663Y-157810633D01*
X157412491Y-157892689D01*
X157450257Y-157983865D01*
X157469510Y-158080655D01*
X157469510Y-158179345D01*
X157450257Y-158276135D01*
X157412491Y-158367311D01*
X157412490Y-158367312D01*
X157357662Y-158449369D01*
X157287879Y-158519152D01*
X157246572Y-158546752D01*
X157205821Y-158573981D01*
X157152412Y-158596104D01*
X157114646Y-158611747D01*
X157066250Y-158621373D01*
X157017855Y-158631000D01*
X156919165Y-158631000D01*
X156870770Y-158621373D01*
X156822374Y-158611747D01*
X156784608Y-158596104D01*
X156731199Y-158573981D01*
X156690448Y-158546752D01*
X156649141Y-158519152D01*
X156579358Y-158449369D01*
X156524530Y-158367312D01*
X156524529Y-158367311D01*
X156486763Y-158276135D01*
X156467510Y-158179345D01*
X156467510Y-158080655D01*
X156486763Y-157983865D01*
X156524529Y-157892689D01*
X156579357Y-157810633D01*
X156579358Y-157810631D01*
X156649141Y-157740848D01*
X156731198Y-157686020D01*
X156731199Y-157686019D01*
X156784608Y-157663896D01*
X156822374Y-157648253D01*
X156870770Y-157638626D01*
X156919165Y-157629000D01*
X157017855Y-157629000D01*
X157066250Y-157638626D01*
G37*
G36*
X136962022Y-153403927D02*
G01*
X137111322Y-153433624D01*
X137275294Y-153501544D01*
X137422864Y-153600147D01*
X137548363Y-153725646D01*
X137646966Y-153873216D01*
X137714886Y-154037188D01*
X137749510Y-154211259D01*
X137749510Y-154388741D01*
X137714886Y-154562812D01*
X137646966Y-154726784D01*
X137548363Y-154874354D01*
X137422864Y-154999853D01*
X137275294Y-155098456D01*
X137111322Y-155166376D01*
X136962022Y-155196073D01*
X136937252Y-155201000D01*
X136759768Y-155201000D01*
X136734998Y-155196073D01*
X136585698Y-155166376D01*
X136421726Y-155098456D01*
X136274156Y-154999853D01*
X136148657Y-154874354D01*
X136050054Y-154726784D01*
X135982134Y-154562812D01*
X135947510Y-154388741D01*
X135947510Y-154211259D01*
X135982134Y-154037188D01*
X136050054Y-153873216D01*
X136148657Y-153725646D01*
X136274156Y-153600147D01*
X136421726Y-153501544D01*
X136585698Y-153433624D01*
X136734998Y-153403927D01*
X136759768Y-153399000D01*
X136937252Y-153399000D01*
X136962022Y-153403927D01*
G37*
G36*
X135209510Y-155201000D02*
G01*
X133407510Y-155201000D01*
X133407510Y-153399000D01*
X135209510Y-153399000D01*
X135209510Y-155201000D01*
G37*
G36*
X151601000Y-155201000D02*
G01*
X149799000Y-155201000D01*
X149799000Y-153399000D01*
X151601000Y-153399000D01*
X151601000Y-155201000D01*
G37*
G36*
X155401000Y-155201000D02*
G01*
X152999000Y-155201000D01*
X152999000Y-153599000D01*
X155401000Y-153599000D01*
X155401000Y-155201000D01*
G37*
G36*
X147122022Y-153403927D02*
G01*
X147271322Y-153433624D01*
X147435294Y-153501544D01*
X147582864Y-153600147D01*
X147708363Y-153725646D01*
X147806966Y-153873216D01*
X147874886Y-154037188D01*
X147909510Y-154211259D01*
X147909510Y-154388741D01*
X147874886Y-154562812D01*
X147806966Y-154726784D01*
X147708363Y-154874354D01*
X147582864Y-154999853D01*
X147435294Y-155098456D01*
X147271322Y-155166376D01*
X147122022Y-155196073D01*
X147097252Y-155201000D01*
X146919768Y-155201000D01*
X146894998Y-155196073D01*
X146745698Y-155166376D01*
X146581726Y-155098456D01*
X146434156Y-154999853D01*
X146308657Y-154874354D01*
X146210054Y-154726784D01*
X146142134Y-154562812D01*
X146107510Y-154388741D01*
X146107510Y-154211259D01*
X146142134Y-154037188D01*
X146210054Y-153873216D01*
X146308657Y-153725646D01*
X146434156Y-153600147D01*
X146581726Y-153501544D01*
X146745698Y-153433624D01*
X146894998Y-153403927D01*
X146919768Y-153399000D01*
X147097252Y-153399000D01*
X147122022Y-153403927D01*
G37*
G36*
X142042022Y-153403927D02*
G01*
X142191322Y-153433624D01*
X142355294Y-153501544D01*
X142502864Y-153600147D01*
X142628363Y-153725646D01*
X142726966Y-153873216D01*
X142794886Y-154037188D01*
X142829510Y-154211259D01*
X142829510Y-154388741D01*
X142794886Y-154562812D01*
X142726966Y-154726784D01*
X142628363Y-154874354D01*
X142502864Y-154999853D01*
X142355294Y-155098456D01*
X142191322Y-155166376D01*
X142042022Y-155196073D01*
X142017252Y-155201000D01*
X141839768Y-155201000D01*
X141814998Y-155196073D01*
X141665698Y-155166376D01*
X141501726Y-155098456D01*
X141354156Y-154999853D01*
X141228657Y-154874354D01*
X141130054Y-154726784D01*
X141062134Y-154562812D01*
X141027510Y-154388741D01*
X141027510Y-154211259D01*
X141062134Y-154037188D01*
X141130054Y-153873216D01*
X141228657Y-153725646D01*
X141354156Y-153600147D01*
X141501726Y-153501544D01*
X141665698Y-153433624D01*
X141814998Y-153403927D01*
X141839768Y-153399000D01*
X142017252Y-153399000D01*
X142042022Y-153403927D01*
G37*
G36*
X139502022Y-153403927D02*
G01*
X139651322Y-153433624D01*
X139815294Y-153501544D01*
X139962864Y-153600147D01*
X140088363Y-153725646D01*
X140186966Y-153873216D01*
X140254886Y-154037188D01*
X140289510Y-154211259D01*
X140289510Y-154388741D01*
X140254886Y-154562812D01*
X140186966Y-154726784D01*
X140088363Y-154874354D01*
X139962864Y-154999853D01*
X139815294Y-155098456D01*
X139651322Y-155166376D01*
X139502022Y-155196073D01*
X139477252Y-155201000D01*
X139299768Y-155201000D01*
X139274998Y-155196073D01*
X139125698Y-155166376D01*
X138961726Y-155098456D01*
X138814156Y-154999853D01*
X138688657Y-154874354D01*
X138590054Y-154726784D01*
X138522134Y-154562812D01*
X138487510Y-154388741D01*
X138487510Y-154211259D01*
X138522134Y-154037188D01*
X138590054Y-153873216D01*
X138688657Y-153725646D01*
X138814156Y-153600147D01*
X138961726Y-153501544D01*
X139125698Y-153433624D01*
X139274998Y-153403927D01*
X139299768Y-153399000D01*
X139477252Y-153399000D01*
X139502022Y-153403927D01*
G37*
G36*
X144582022Y-153403927D02*
G01*
X144731322Y-153433624D01*
X144895294Y-153501544D01*
X145042864Y-153600147D01*
X145168363Y-153725646D01*
X145266966Y-153873216D01*
X145334886Y-154037188D01*
X145369510Y-154211259D01*
X145369510Y-154388741D01*
X145334886Y-154562812D01*
X145266966Y-154726784D01*
X145168363Y-154874354D01*
X145042864Y-154999853D01*
X144895294Y-155098456D01*
X144731322Y-155166376D01*
X144582022Y-155196073D01*
X144557252Y-155201000D01*
X144379768Y-155201000D01*
X144354998Y-155196073D01*
X144205698Y-155166376D01*
X144041726Y-155098456D01*
X143894156Y-154999853D01*
X143768657Y-154874354D01*
X143670054Y-154726784D01*
X143602134Y-154562812D01*
X143567510Y-154388741D01*
X143567510Y-154211259D01*
X143602134Y-154037188D01*
X143670054Y-153873216D01*
X143768657Y-153725646D01*
X143894156Y-153600147D01*
X144041726Y-153501544D01*
X144205698Y-153433624D01*
X144354998Y-153403927D01*
X144379768Y-153399000D01*
X144557252Y-153399000D01*
X144582022Y-153403927D01*
G37*
G36*
X150813512Y-150863927D02*
G01*
X150962812Y-150893624D01*
X151126784Y-150961544D01*
X151274354Y-151060147D01*
X151399853Y-151185646D01*
X151498456Y-151333216D01*
X151566376Y-151497188D01*
X151601000Y-151671259D01*
X151601000Y-151848741D01*
X151566376Y-152022812D01*
X151498456Y-152186784D01*
X151399853Y-152334354D01*
X151274354Y-152459853D01*
X151126784Y-152558456D01*
X150962812Y-152626376D01*
X150813512Y-152656073D01*
X150788742Y-152661000D01*
X150611258Y-152661000D01*
X150586488Y-152656073D01*
X150437188Y-152626376D01*
X150273216Y-152558456D01*
X150125646Y-152459853D01*
X150000147Y-152334354D01*
X149901544Y-152186784D01*
X149833624Y-152022812D01*
X149799000Y-151848741D01*
X149799000Y-151671259D01*
X149833624Y-151497188D01*
X149901544Y-151333216D01*
X150000147Y-151185646D01*
X150125646Y-151060147D01*
X150273216Y-150961544D01*
X150437188Y-150893624D01*
X150586488Y-150863927D01*
X150611258Y-150859000D01*
X150788742Y-150859000D01*
X150813512Y-150863927D01*
G37*
G36*
X158119510Y-144221000D02*
G01*
X156317510Y-144221000D01*
X156317510Y-142419000D01*
X158119510Y-142419000D01*
X158119510Y-144221000D01*
G37*
G36*
X177619510Y-142241000D02*
G01*
X175817510Y-142241000D01*
X175817510Y-140439000D01*
X177619510Y-140439000D01*
X177619510Y-142241000D01*
G37*
G36*
X162619510Y-142241000D02*
G01*
X160817510Y-142241000D01*
X160817510Y-140439000D01*
X162619510Y-140439000D01*
X162619510Y-142241000D01*
G37*
G36*
X157332022Y-139883927D02*
G01*
X157481322Y-139913624D01*
X157645294Y-139981544D01*
X157792864Y-140080147D01*
X157918363Y-140205646D01*
X158016966Y-140353216D01*
X158084886Y-140517188D01*
X158119510Y-140691259D01*
X158119510Y-140868741D01*
X158084886Y-141042812D01*
X158016966Y-141206784D01*
X157918363Y-141354354D01*
X157792864Y-141479853D01*
X157645294Y-141578456D01*
X157481322Y-141646376D01*
X157332022Y-141676073D01*
X157307252Y-141681000D01*
X157129768Y-141681000D01*
X157104998Y-141676073D01*
X156955698Y-141646376D01*
X156791726Y-141578456D01*
X156644156Y-141479853D01*
X156518657Y-141354354D01*
X156420054Y-141206784D01*
X156352134Y-141042812D01*
X156317510Y-140868741D01*
X156317510Y-140691259D01*
X156352134Y-140517188D01*
X156420054Y-140353216D01*
X156518657Y-140205646D01*
X156644156Y-140080147D01*
X156791726Y-139981544D01*
X156955698Y-139913624D01*
X157104998Y-139883927D01*
X157129768Y-139879000D01*
X157307252Y-139879000D01*
X157332022Y-139883927D01*
G37*
G36*
X176832022Y-137903927D02*
G01*
X176981322Y-137933624D01*
X177145294Y-138001544D01*
X177292864Y-138100147D01*
X177418363Y-138225646D01*
X177516966Y-138373216D01*
X177584886Y-138537188D01*
X177619510Y-138711259D01*
X177619510Y-138888741D01*
X177584886Y-139062812D01*
X177516966Y-139226784D01*
X177418363Y-139374354D01*
X177292864Y-139499853D01*
X177145294Y-139598456D01*
X176981322Y-139666376D01*
X176832022Y-139696073D01*
X176807252Y-139701000D01*
X176629768Y-139701000D01*
X176604998Y-139696073D01*
X176455698Y-139666376D01*
X176291726Y-139598456D01*
X176144156Y-139499853D01*
X176018657Y-139374354D01*
X175920054Y-139226784D01*
X175852134Y-139062812D01*
X175817510Y-138888741D01*
X175817510Y-138711259D01*
X175852134Y-138537188D01*
X175920054Y-138373216D01*
X176018657Y-138225646D01*
X176144156Y-138100147D01*
X176291726Y-138001544D01*
X176455698Y-137933624D01*
X176604998Y-137903927D01*
X176629768Y-137899000D01*
X176807252Y-137899000D01*
X176832022Y-137903927D01*
G37*
G36*
X161832022Y-137903927D02*
G01*
X161981322Y-137933624D01*
X162145294Y-138001544D01*
X162292864Y-138100147D01*
X162418363Y-138225646D01*
X162516966Y-138373216D01*
X162584886Y-138537188D01*
X162619510Y-138711259D01*
X162619510Y-138888741D01*
X162584886Y-139062812D01*
X162516966Y-139226784D01*
X162418363Y-139374354D01*
X162292864Y-139499853D01*
X162145294Y-139598456D01*
X161981322Y-139666376D01*
X161832022Y-139696073D01*
X161807252Y-139701000D01*
X161629768Y-139701000D01*
X161604998Y-139696073D01*
X161455698Y-139666376D01*
X161291726Y-139598456D01*
X161144156Y-139499853D01*
X161018657Y-139374354D01*
X160920054Y-139226784D01*
X160852134Y-139062812D01*
X160817510Y-138888741D01*
X160817510Y-138711259D01*
X160852134Y-138537188D01*
X160920054Y-138373216D01*
X161018657Y-138225646D01*
X161144156Y-138100147D01*
X161291726Y-138001544D01*
X161455698Y-137933624D01*
X161604998Y-137903927D01*
X161629768Y-137899000D01*
X161807252Y-137899000D01*
X161832022Y-137903927D01*
G37*
G36*
X108401000Y-138801000D02*
G01*
X106599000Y-138801000D01*
X106599000Y-136999000D01*
X108401000Y-136999000D01*
X108401000Y-138801000D01*
G37*
G36*
X105073512Y-137003927D02*
G01*
X105222812Y-137033624D01*
X105386784Y-137101544D01*
X105534354Y-137200147D01*
X105659853Y-137325646D01*
X105758456Y-137473216D01*
X105826376Y-137637188D01*
X105861000Y-137811259D01*
X105861000Y-137988741D01*
X105826376Y-138162812D01*
X105758456Y-138326784D01*
X105659853Y-138474354D01*
X105534354Y-138599853D01*
X105386784Y-138698456D01*
X105222812Y-138766376D01*
X105073512Y-138796073D01*
X105048742Y-138801000D01*
X104871258Y-138801000D01*
X104846488Y-138796073D01*
X104697188Y-138766376D01*
X104533216Y-138698456D01*
X104385646Y-138599853D01*
X104260147Y-138474354D01*
X104161544Y-138326784D01*
X104093624Y-138162812D01*
X104059000Y-137988741D01*
X104059000Y-137811259D01*
X104093624Y-137637188D01*
X104161544Y-137473216D01*
X104260147Y-137325646D01*
X104385646Y-137200147D01*
X104533216Y-137101544D01*
X104697188Y-137033624D01*
X104846488Y-137003927D01*
X104871258Y-136999000D01*
X105048742Y-136999000D01*
X105073512Y-137003927D01*
G37*
G36*
X130872022Y-136193927D02*
G01*
X131021322Y-136223624D01*
X131185294Y-136291544D01*
X131332864Y-136390147D01*
X131458363Y-136515646D01*
X131556966Y-136663216D01*
X131624886Y-136827188D01*
X131659510Y-137001259D01*
X131659510Y-137178741D01*
X131624886Y-137352812D01*
X131556966Y-137516784D01*
X131458363Y-137664354D01*
X131332864Y-137789853D01*
X131185294Y-137888456D01*
X131021322Y-137956376D01*
X130872022Y-137986073D01*
X130847252Y-137991000D01*
X130669768Y-137991000D01*
X130644998Y-137986073D01*
X130495698Y-137956376D01*
X130331726Y-137888456D01*
X130184156Y-137789853D01*
X130058657Y-137664354D01*
X129960054Y-137516784D01*
X129892134Y-137352812D01*
X129857510Y-137178741D01*
X129857510Y-137001259D01*
X129892134Y-136827188D01*
X129960054Y-136663216D01*
X130058657Y-136515646D01*
X130184156Y-136390147D01*
X130331726Y-136291544D01*
X130495698Y-136223624D01*
X130644998Y-136193927D01*
X130669768Y-136189000D01*
X130847252Y-136189000D01*
X130872022Y-136193927D01*
G37*
G36*
X153622022Y-136193927D02*
G01*
X153771322Y-136223624D01*
X153935294Y-136291544D01*
X154082864Y-136390147D01*
X154208363Y-136515646D01*
X154306966Y-136663216D01*
X154374886Y-136827188D01*
X154409510Y-137001259D01*
X154409510Y-137178741D01*
X154374886Y-137352812D01*
X154306966Y-137516784D01*
X154208363Y-137664354D01*
X154082864Y-137789853D01*
X153935294Y-137888456D01*
X153771322Y-137956376D01*
X153622022Y-137986073D01*
X153597252Y-137991000D01*
X153419768Y-137991000D01*
X153394998Y-137986073D01*
X153245698Y-137956376D01*
X153081726Y-137888456D01*
X152934156Y-137789853D01*
X152808657Y-137664354D01*
X152710054Y-137516784D01*
X152642134Y-137352812D01*
X152607510Y-137178741D01*
X152607510Y-137001259D01*
X152642134Y-136827188D01*
X152710054Y-136663216D01*
X152808657Y-136515646D01*
X152934156Y-136390147D01*
X153081726Y-136291544D01*
X153245698Y-136223624D01*
X153394998Y-136193927D01*
X153419768Y-136189000D01*
X153597252Y-136189000D01*
X153622022Y-136193927D01*
G37*
G36*
X151082022Y-136193927D02*
G01*
X151231322Y-136223624D01*
X151395294Y-136291544D01*
X151542864Y-136390147D01*
X151668363Y-136515646D01*
X151766966Y-136663216D01*
X151834886Y-136827188D01*
X151869510Y-137001259D01*
X151869510Y-137178741D01*
X151834886Y-137352812D01*
X151766966Y-137516784D01*
X151668363Y-137664354D01*
X151542864Y-137789853D01*
X151395294Y-137888456D01*
X151231322Y-137956376D01*
X151082022Y-137986073D01*
X151057252Y-137991000D01*
X150879768Y-137991000D01*
X150854998Y-137986073D01*
X150705698Y-137956376D01*
X150541726Y-137888456D01*
X150394156Y-137789853D01*
X150268657Y-137664354D01*
X150170054Y-137516784D01*
X150102134Y-137352812D01*
X150067510Y-137178741D01*
X150067510Y-137001259D01*
X150102134Y-136827188D01*
X150170054Y-136663216D01*
X150268657Y-136515646D01*
X150394156Y-136390147D01*
X150541726Y-136291544D01*
X150705698Y-136223624D01*
X150854998Y-136193927D01*
X150879768Y-136189000D01*
X151057252Y-136189000D01*
X151082022Y-136193927D01*
G37*
G36*
X128332022Y-136193927D02*
G01*
X128481322Y-136223624D01*
X128645294Y-136291544D01*
X128792864Y-136390147D01*
X128918363Y-136515646D01*
X129016966Y-136663216D01*
X129084886Y-136827188D01*
X129119510Y-137001259D01*
X129119510Y-137178741D01*
X129084886Y-137352812D01*
X129016966Y-137516784D01*
X128918363Y-137664354D01*
X128792864Y-137789853D01*
X128645294Y-137888456D01*
X128481322Y-137956376D01*
X128332022Y-137986073D01*
X128307252Y-137991000D01*
X128129768Y-137991000D01*
X128104998Y-137986073D01*
X127955698Y-137956376D01*
X127791726Y-137888456D01*
X127644156Y-137789853D01*
X127518657Y-137664354D01*
X127420054Y-137516784D01*
X127352134Y-137352812D01*
X127317510Y-137178741D01*
X127317510Y-137001259D01*
X127352134Y-136827188D01*
X127420054Y-136663216D01*
X127518657Y-136515646D01*
X127644156Y-136390147D01*
X127791726Y-136291544D01*
X127955698Y-136223624D01*
X128104998Y-136193927D01*
X128129768Y-136189000D01*
X128307252Y-136189000D01*
X128332022Y-136193927D01*
G37*
G36*
X154409510Y-135451000D02*
G01*
X152607510Y-135451000D01*
X152607510Y-133649000D01*
X154409510Y-133649000D01*
X154409510Y-135451000D01*
G37*
G36*
X151082022Y-133653927D02*
G01*
X151231322Y-133683624D01*
X151395294Y-133751544D01*
X151542864Y-133850147D01*
X151668363Y-133975646D01*
X151766966Y-134123216D01*
X151834886Y-134287188D01*
X151869510Y-134461259D01*
X151869510Y-134638741D01*
X151834886Y-134812812D01*
X151766966Y-134976784D01*
X151668363Y-135124354D01*
X151542864Y-135249853D01*
X151395294Y-135348456D01*
X151231322Y-135416376D01*
X151082022Y-135446073D01*
X151057252Y-135451000D01*
X150879768Y-135451000D01*
X150854998Y-135446073D01*
X150705698Y-135416376D01*
X150541726Y-135348456D01*
X150394156Y-135249853D01*
X150268657Y-135124354D01*
X150170054Y-134976784D01*
X150102134Y-134812812D01*
X150067510Y-134638741D01*
X150067510Y-134461259D01*
X150102134Y-134287188D01*
X150170054Y-134123216D01*
X150268657Y-133975646D01*
X150394156Y-133850147D01*
X150541726Y-133751544D01*
X150705698Y-133683624D01*
X150854998Y-133653927D01*
X150879768Y-133649000D01*
X151057252Y-133649000D01*
X151082022Y-133653927D01*
G37*
G36*
X131659510Y-135451000D02*
G01*
X129857510Y-135451000D01*
X129857510Y-133649000D01*
X131659510Y-133649000D01*
X131659510Y-135451000D01*
G37*
G36*
X128332022Y-133653927D02*
G01*
X128481322Y-133683624D01*
X128645294Y-133751544D01*
X128792864Y-133850147D01*
X128918363Y-133975646D01*
X129016966Y-134123216D01*
X129084886Y-134287188D01*
X129119510Y-134461259D01*
X129119510Y-134638741D01*
X129084886Y-134812812D01*
X129016966Y-134976784D01*
X128918363Y-135124354D01*
X128792864Y-135249853D01*
X128645294Y-135348456D01*
X128481322Y-135416376D01*
X128332022Y-135446073D01*
X128307252Y-135451000D01*
X128129768Y-135451000D01*
X128104998Y-135446073D01*
X127955698Y-135416376D01*
X127791726Y-135348456D01*
X127644156Y-135249853D01*
X127518657Y-135124354D01*
X127420054Y-134976784D01*
X127352134Y-134812812D01*
X127317510Y-134638741D01*
X127317510Y-134461259D01*
X127352134Y-134287188D01*
X127420054Y-134123216D01*
X127518657Y-133975646D01*
X127644156Y-133850147D01*
X127791726Y-133751544D01*
X127955698Y-133683624D01*
X128104998Y-133653927D01*
X128129768Y-133649000D01*
X128307252Y-133649000D01*
X128332022Y-133653927D01*
G37*
G36*
X179966738Y-132481703D02*
G01*
X180121610Y-132545853D01*
X180260991Y-132638985D01*
X180379525Y-132757519D01*
X180472657Y-132896900D01*
X180536807Y-133051772D01*
X180569510Y-133216184D01*
X180569510Y-133383816D01*
X180536807Y-133548228D01*
X180472657Y-133703100D01*
X180379525Y-133842481D01*
X180260991Y-133961015D01*
X180121610Y-134054147D01*
X179966738Y-134118297D01*
X179802326Y-134151000D01*
X179634694Y-134151000D01*
X179470282Y-134118297D01*
X179315410Y-134054147D01*
X179176029Y-133961015D01*
X179057495Y-133842481D01*
X178964363Y-133703100D01*
X178900213Y-133548228D01*
X178867510Y-133383816D01*
X178867510Y-133216184D01*
X178900213Y-133051772D01*
X178964363Y-132896900D01*
X179057495Y-132757519D01*
X179176029Y-132638985D01*
X179315410Y-132545853D01*
X179470282Y-132481703D01*
X179634694Y-132449000D01*
X179802326Y-132449000D01*
X179966738Y-132481703D01*
G37*
G36*
X178069510Y-134151000D02*
G01*
X176367510Y-134151000D01*
X176367510Y-132449000D01*
X178069510Y-132449000D01*
X178069510Y-134151000D01*
G37*
G36*
X162069510Y-134151000D02*
G01*
X160367510Y-134151000D01*
X160367510Y-132449000D01*
X162069510Y-132449000D01*
X162069510Y-134151000D01*
G37*
G36*
X158966738Y-132481703D02*
G01*
X159121610Y-132545853D01*
X159260991Y-132638985D01*
X159379525Y-132757519D01*
X159472657Y-132896900D01*
X159536807Y-133051772D01*
X159569510Y-133216184D01*
X159569510Y-133383816D01*
X159536807Y-133548228D01*
X159472657Y-133703100D01*
X159379525Y-133842481D01*
X159260991Y-133961015D01*
X159121610Y-134054147D01*
X158966738Y-134118297D01*
X158802326Y-134151000D01*
X158634694Y-134151000D01*
X158470282Y-134118297D01*
X158315410Y-134054147D01*
X158176029Y-133961015D01*
X158057495Y-133842481D01*
X157964363Y-133703100D01*
X157900213Y-133548228D01*
X157867510Y-133383816D01*
X157867510Y-133216184D01*
X157900213Y-133051772D01*
X157964363Y-132896900D01*
X158057495Y-132757519D01*
X158176029Y-132638985D01*
X158315410Y-132545853D01*
X158470282Y-132481703D01*
X158634694Y-132449000D01*
X158802326Y-132449000D01*
X158966738Y-132481703D01*
G37*
G36*
X103732022Y-132013927D02*
G01*
X103881322Y-132043624D01*
X104045294Y-132111544D01*
X104192864Y-132210147D01*
X104318363Y-132335646D01*
X104416966Y-132483216D01*
X104484886Y-132647188D01*
X104519510Y-132821259D01*
X104519510Y-132998741D01*
X104484886Y-133172812D01*
X104416966Y-133336784D01*
X104318363Y-133484354D01*
X104192864Y-133609853D01*
X104045294Y-133708456D01*
X103881322Y-133776376D01*
X103732022Y-133806073D01*
X103707252Y-133811000D01*
X103529768Y-133811000D01*
X103504998Y-133806073D01*
X103355698Y-133776376D01*
X103191726Y-133708456D01*
X103044156Y-133609853D01*
X102918657Y-133484354D01*
X102820054Y-133336784D01*
X102752134Y-133172812D01*
X102717510Y-132998741D01*
X102717510Y-132821259D01*
X102752134Y-132647188D01*
X102820054Y-132483216D01*
X102918657Y-132335646D01*
X103044156Y-132210147D01*
X103191726Y-132111544D01*
X103355698Y-132043624D01*
X103504998Y-132013927D01*
X103529768Y-132009000D01*
X103707252Y-132009000D01*
X103732022Y-132013927D01*
G37*
G36*
X107562022Y-132013927D02*
G01*
X107711322Y-132043624D01*
X107875294Y-132111544D01*
X108022864Y-132210147D01*
X108148363Y-132335646D01*
X108246966Y-132483216D01*
X108314886Y-132647188D01*
X108349510Y-132821259D01*
X108349510Y-132998741D01*
X108314886Y-133172812D01*
X108246966Y-133336784D01*
X108148363Y-133484354D01*
X108022864Y-133609853D01*
X107875294Y-133708456D01*
X107711322Y-133776376D01*
X107562022Y-133806073D01*
X107537252Y-133811000D01*
X107359768Y-133811000D01*
X107334998Y-133806073D01*
X107185698Y-133776376D01*
X107021726Y-133708456D01*
X106874156Y-133609853D01*
X106748657Y-133484354D01*
X106650054Y-133336784D01*
X106582134Y-133172812D01*
X106547510Y-132998741D01*
X106547510Y-132821259D01*
X106582134Y-132647188D01*
X106650054Y-132483216D01*
X106748657Y-132335646D01*
X106874156Y-132210147D01*
X107021726Y-132111544D01*
X107185698Y-132043624D01*
X107334998Y-132013927D01*
X107359768Y-132009000D01*
X107537252Y-132009000D01*
X107562022Y-132013927D01*
G37*
G36*
X103732022Y-129473927D02*
G01*
X103881322Y-129503624D01*
X104045294Y-129571544D01*
X104192864Y-129670147D01*
X104318363Y-129795646D01*
X104416966Y-129943216D01*
X104484886Y-130107188D01*
X104519510Y-130281259D01*
X104519510Y-130458741D01*
X104484886Y-130632812D01*
X104416966Y-130796784D01*
X104318363Y-130944354D01*
X104192864Y-131069853D01*
X104045294Y-131168456D01*
X103881322Y-131236376D01*
X103732022Y-131266073D01*
X103707252Y-131271000D01*
X103529768Y-131271000D01*
X103504998Y-131266073D01*
X103355698Y-131236376D01*
X103191726Y-131168456D01*
X103044156Y-131069853D01*
X102918657Y-130944354D01*
X102820054Y-130796784D01*
X102752134Y-130632812D01*
X102717510Y-130458741D01*
X102717510Y-130281259D01*
X102752134Y-130107188D01*
X102820054Y-129943216D01*
X102918657Y-129795646D01*
X103044156Y-129670147D01*
X103191726Y-129571544D01*
X103355698Y-129503624D01*
X103504998Y-129473927D01*
X103529768Y-129469000D01*
X103707252Y-129469000D01*
X103732022Y-129473927D01*
G37*
G36*
X107562022Y-129473927D02*
G01*
X107711322Y-129503624D01*
X107875294Y-129571544D01*
X108022864Y-129670147D01*
X108148363Y-129795646D01*
X108246966Y-129943216D01*
X108314886Y-130107188D01*
X108349510Y-130281259D01*
X108349510Y-130458741D01*
X108314886Y-130632812D01*
X108246966Y-130796784D01*
X108148363Y-130944354D01*
X108022864Y-131069853D01*
X107875294Y-131168456D01*
X107711322Y-131236376D01*
X107562022Y-131266073D01*
X107537252Y-131271000D01*
X107359768Y-131271000D01*
X107334998Y-131266073D01*
X107185698Y-131236376D01*
X107021726Y-131168456D01*
X106874156Y-131069853D01*
X106748657Y-130944354D01*
X106650054Y-130796784D01*
X106582134Y-130632812D01*
X106547510Y-130458741D01*
X106547510Y-130281259D01*
X106582134Y-130107188D01*
X106650054Y-129943216D01*
X106748657Y-129795646D01*
X106874156Y-129670147D01*
X107021726Y-129571544D01*
X107185698Y-129503624D01*
X107334998Y-129473927D01*
X107359768Y-129469000D01*
X107537252Y-129469000D01*
X107562022Y-129473927D01*
G37*
G36*
X121666738Y-128481703D02*
G01*
X121821610Y-128545853D01*
X121960991Y-128638985D01*
X122079525Y-128757519D01*
X122172657Y-128896900D01*
X122236807Y-129051772D01*
X122269510Y-129216184D01*
X122269510Y-129383816D01*
X122236807Y-129548228D01*
X122172657Y-129703100D01*
X122079525Y-129842481D01*
X121960991Y-129961015D01*
X121821610Y-130054147D01*
X121666738Y-130118297D01*
X121502326Y-130151000D01*
X121334694Y-130151000D01*
X121170282Y-130118297D01*
X121015410Y-130054147D01*
X120876029Y-129961015D01*
X120757495Y-129842481D01*
X120664363Y-129703100D01*
X120600213Y-129548228D01*
X120567510Y-129383816D01*
X120567510Y-129216184D01*
X120600213Y-129051772D01*
X120664363Y-128896900D01*
X120757495Y-128757519D01*
X120876029Y-128638985D01*
X121015410Y-128545853D01*
X121170282Y-128481703D01*
X121334694Y-128449000D01*
X121502326Y-128449000D01*
X121666738Y-128481703D01*
G37*
G36*
X150946943Y-126714893D02*
G01*
X151037167Y-126732839D01*
X151142777Y-126776585D01*
X151292131Y-126838449D01*
X151292132Y-126838450D01*
X151521596Y-126991772D01*
X151716738Y-127186914D01*
X151819185Y-127340237D01*
X151870061Y-127416379D01*
X151931925Y-127565733D01*
X151967245Y-127651000D01*
X151975671Y-127671344D01*
X152029510Y-127942012D01*
X152029510Y-128217988D01*
X151975671Y-128488656D01*
X151870061Y-128743621D01*
X151860774Y-128757520D01*
X151716738Y-128973086D01*
X151521596Y-129168228D01*
X151368273Y-129270675D01*
X151292131Y-129321551D01*
X151142777Y-129383415D01*
X151037167Y-129427161D01*
X150946943Y-129445107D01*
X150766498Y-129481000D01*
X150490522Y-129481000D01*
X150310077Y-129445107D01*
X150219853Y-129427161D01*
X150114243Y-129383415D01*
X149964889Y-129321551D01*
X149888747Y-129270675D01*
X149735424Y-129168228D01*
X149540282Y-128973086D01*
X149396246Y-128757520D01*
X149386959Y-128743621D01*
X149281349Y-128488656D01*
X149227510Y-128217988D01*
X149227510Y-127942012D01*
X149281349Y-127671344D01*
X149289776Y-127651000D01*
X149325095Y-127565733D01*
X149386959Y-127416379D01*
X149437835Y-127340237D01*
X149540282Y-127186914D01*
X149735424Y-126991772D01*
X149964888Y-126838450D01*
X149964889Y-126838449D01*
X150114243Y-126776585D01*
X150219853Y-126732839D01*
X150310077Y-126714893D01*
X150490522Y-126679000D01*
X150766498Y-126679000D01*
X150946943Y-126714893D01*
G37*
G36*
X131261943Y-126714893D02*
G01*
X131352167Y-126732839D01*
X131457777Y-126776585D01*
X131607131Y-126838449D01*
X131607132Y-126838450D01*
X131836596Y-126991772D01*
X132031738Y-127186914D01*
X132134185Y-127340237D01*
X132185061Y-127416379D01*
X132246925Y-127565733D01*
X132282245Y-127651000D01*
X132290671Y-127671344D01*
X132344510Y-127942012D01*
X132344510Y-128217988D01*
X132290671Y-128488656D01*
X132185061Y-128743621D01*
X132175774Y-128757520D01*
X132031738Y-128973086D01*
X131836596Y-129168228D01*
X131683273Y-129270675D01*
X131607131Y-129321551D01*
X131457777Y-129383415D01*
X131352167Y-129427161D01*
X131261943Y-129445107D01*
X131081498Y-129481000D01*
X130805522Y-129481000D01*
X130625077Y-129445107D01*
X130534853Y-129427161D01*
X130429243Y-129383415D01*
X130279889Y-129321551D01*
X130203747Y-129270675D01*
X130050424Y-129168228D01*
X129855282Y-128973086D01*
X129711246Y-128757520D01*
X129701959Y-128743621D01*
X129596349Y-128488656D01*
X129542510Y-128217988D01*
X129542510Y-127942012D01*
X129596349Y-127671344D01*
X129604776Y-127651000D01*
X129640095Y-127565733D01*
X129701959Y-127416379D01*
X129752835Y-127340237D01*
X129855282Y-127186914D01*
X130050424Y-126991772D01*
X130279888Y-126838450D01*
X130279889Y-126838449D01*
X130429243Y-126776585D01*
X130534853Y-126732839D01*
X130625077Y-126714893D01*
X130805522Y-126679000D01*
X131081498Y-126679000D01*
X131261943Y-126714893D01*
G37*
G36*
X108349510Y-128731000D02*
G01*
X106547510Y-128731000D01*
X106547510Y-126929000D01*
X108349510Y-126929000D01*
X108349510Y-128731000D01*
G37*
G36*
X104519510Y-128731000D02*
G01*
X102717510Y-128731000D01*
X102717510Y-126929000D01*
X104519510Y-126929000D01*
X104519510Y-128731000D01*
G37*
G36*
X122269510Y-127651000D02*
G01*
X120567510Y-127651000D01*
X120567510Y-125949000D01*
X122269510Y-125949000D01*
X122269510Y-127651000D01*
G37*
G36*
X115617142Y-121258242D02*
G01*
X115765101Y-121319529D01*
X115898255Y-121408499D01*
X116011501Y-121521745D01*
X116100471Y-121654899D01*
X116161758Y-121802858D01*
X116193000Y-121959925D01*
X116193000Y-122120075D01*
X116161758Y-122277142D01*
X116100471Y-122425101D01*
X116011501Y-122558255D01*
X115898255Y-122671501D01*
X115765101Y-122760471D01*
X115617142Y-122821758D01*
X115460075Y-122853000D01*
X115299925Y-122853000D01*
X115142858Y-122821758D01*
X114994899Y-122760471D01*
X114861745Y-122671501D01*
X114748499Y-122558255D01*
X114659529Y-122425101D01*
X114598242Y-122277142D01*
X114567000Y-122120075D01*
X114567000Y-121959925D01*
X114598242Y-121802858D01*
X114659529Y-121654899D01*
X114748499Y-121521745D01*
X114861745Y-121408499D01*
X114994899Y-121319529D01*
X115142858Y-121258242D01*
X115299925Y-121227000D01*
X115460075Y-121227000D01*
X115617142Y-121258242D01*
G37*
G36*
X123237142Y-121258242D02*
G01*
X123385101Y-121319529D01*
X123518255Y-121408499D01*
X123631501Y-121521745D01*
X123720471Y-121654899D01*
X123781758Y-121802858D01*
X123813000Y-121959925D01*
X123813000Y-122120075D01*
X123781758Y-122277142D01*
X123720471Y-122425101D01*
X123631501Y-122558255D01*
X123518255Y-122671501D01*
X123385101Y-122760471D01*
X123237142Y-122821758D01*
X123080075Y-122853000D01*
X122919925Y-122853000D01*
X122762858Y-122821758D01*
X122614899Y-122760471D01*
X122481745Y-122671501D01*
X122368499Y-122558255D01*
X122279529Y-122425101D01*
X122218242Y-122277142D01*
X122187000Y-122120075D01*
X122187000Y-121959925D01*
X122218242Y-121802858D01*
X122279529Y-121654899D01*
X122368499Y-121521745D01*
X122481745Y-121408499D01*
X122614899Y-121319529D01*
X122762858Y-121258242D01*
X122919925Y-121227000D01*
X123080075Y-121227000D01*
X123237142Y-121258242D01*
G37*
G36*
X120697142Y-121258242D02*
G01*
X120845101Y-121319529D01*
X120978255Y-121408499D01*
X121091501Y-121521745D01*
X121180471Y-121654899D01*
X121241758Y-121802858D01*
X121273000Y-121959925D01*
X121273000Y-122120075D01*
X121241758Y-122277142D01*
X121180471Y-122425101D01*
X121091501Y-122558255D01*
X120978255Y-122671501D01*
X120845101Y-122760471D01*
X120697142Y-122821758D01*
X120540075Y-122853000D01*
X120379925Y-122853000D01*
X120222858Y-122821758D01*
X120074899Y-122760471D01*
X119941745Y-122671501D01*
X119828499Y-122558255D01*
X119739529Y-122425101D01*
X119678242Y-122277142D01*
X119647000Y-122120075D01*
X119647000Y-121959925D01*
X119678242Y-121802858D01*
X119739529Y-121654899D01*
X119828499Y-121521745D01*
X119941745Y-121408499D01*
X120074899Y-121319529D01*
X120222858Y-121258242D01*
X120379925Y-121227000D01*
X120540075Y-121227000D01*
X120697142Y-121258242D01*
G37*
G36*
X118157142Y-121258242D02*
G01*
X118305101Y-121319529D01*
X118438255Y-121408499D01*
X118551501Y-121521745D01*
X118640471Y-121654899D01*
X118701758Y-121802858D01*
X118733000Y-121959925D01*
X118733000Y-122120075D01*
X118701758Y-122277142D01*
X118640471Y-122425101D01*
X118551501Y-122558255D01*
X118438255Y-122671501D01*
X118305101Y-122760471D01*
X118157142Y-122821758D01*
X118000075Y-122853000D01*
X117839925Y-122853000D01*
X117682858Y-122821758D01*
X117534899Y-122760471D01*
X117401745Y-122671501D01*
X117288499Y-122558255D01*
X117199529Y-122425101D01*
X117138242Y-122277142D01*
X117107000Y-122120075D01*
X117107000Y-121959925D01*
X117138242Y-121802858D01*
X117199529Y-121654899D01*
X117288499Y-121521745D01*
X117401745Y-121408499D01*
X117534899Y-121319529D01*
X117682858Y-121258242D01*
X117839925Y-121227000D01*
X118000075Y-121227000D01*
X118157142Y-121258242D01*
G37*
G36*
X115617142Y-118718242D02*
G01*
X115765101Y-118779529D01*
X115898255Y-118868499D01*
X116011501Y-118981745D01*
X116100471Y-119114899D01*
X116161758Y-119262858D01*
X116193000Y-119419925D01*
X116193000Y-119580075D01*
X116161758Y-119737142D01*
X116100471Y-119885101D01*
X116011501Y-120018255D01*
X115898255Y-120131501D01*
X115765101Y-120220471D01*
X115617142Y-120281758D01*
X115460075Y-120313000D01*
X115299925Y-120313000D01*
X115142858Y-120281758D01*
X114994899Y-120220471D01*
X114861745Y-120131501D01*
X114748499Y-120018255D01*
X114659529Y-119885101D01*
X114598242Y-119737142D01*
X114567000Y-119580075D01*
X114567000Y-119419925D01*
X114598242Y-119262858D01*
X114659529Y-119114899D01*
X114748499Y-118981745D01*
X114861745Y-118868499D01*
X114994899Y-118779529D01*
X115142858Y-118718242D01*
X115299925Y-118687000D01*
X115460075Y-118687000D01*
X115617142Y-118718242D01*
G37*
G36*
X118157142Y-118718242D02*
G01*
X118305101Y-118779529D01*
X118438255Y-118868499D01*
X118551501Y-118981745D01*
X118640471Y-119114899D01*
X118701758Y-119262858D01*
X118733000Y-119419925D01*
X118733000Y-119580075D01*
X118701758Y-119737142D01*
X118640471Y-119885101D01*
X118551501Y-120018255D01*
X118438255Y-120131501D01*
X118305101Y-120220471D01*
X118157142Y-120281758D01*
X118000075Y-120313000D01*
X117839925Y-120313000D01*
X117682858Y-120281758D01*
X117534899Y-120220471D01*
X117401745Y-120131501D01*
X117288499Y-120018255D01*
X117199529Y-119885101D01*
X117138242Y-119737142D01*
X117107000Y-119580075D01*
X117107000Y-119419925D01*
X117138242Y-119262858D01*
X117199529Y-119114899D01*
X117288499Y-118981745D01*
X117401745Y-118868499D01*
X117534899Y-118779529D01*
X117682858Y-118718242D01*
X117839925Y-118687000D01*
X118000075Y-118687000D01*
X118157142Y-118718242D01*
G37*
G36*
X120697142Y-118718242D02*
G01*
X120845101Y-118779529D01*
X120978255Y-118868499D01*
X121091501Y-118981745D01*
X121180471Y-119114899D01*
X121241758Y-119262858D01*
X121273000Y-119419925D01*
X121273000Y-119580075D01*
X121241758Y-119737142D01*
X121180471Y-119885101D01*
X121091501Y-120018255D01*
X120978255Y-120131501D01*
X120845101Y-120220471D01*
X120697142Y-120281758D01*
X120540075Y-120313000D01*
X120379925Y-120313000D01*
X120222858Y-120281758D01*
X120074899Y-120220471D01*
X119941745Y-120131501D01*
X119828499Y-120018255D01*
X119739529Y-119885101D01*
X119678242Y-119737142D01*
X119647000Y-119580075D01*
X119647000Y-119419925D01*
X119678242Y-119262858D01*
X119739529Y-119114899D01*
X119828499Y-118981745D01*
X119941745Y-118868499D01*
X120074899Y-118779529D01*
X120222858Y-118718242D01*
X120379925Y-118687000D01*
X120540075Y-118687000D01*
X120697142Y-118718242D01*
G37*
G36*
X123813000Y-120313000D02*
G01*
X122187000Y-120313000D01*
X122187000Y-118687000D01*
X123813000Y-118687000D01*
X123813000Y-120313000D01*
G37*
G36*
X132479510Y-117551000D02*
G01*
X130677510Y-117551000D01*
X130677510Y-115749000D01*
X132479510Y-115749000D01*
X132479510Y-117551000D01*
G37*
G36*
X150259510Y-117551000D02*
G01*
X148457510Y-117551000D01*
X148457510Y-115749000D01*
X150259510Y-115749000D01*
X150259510Y-117551000D01*
G37*
G36*
X149472022Y-113213927D02*
G01*
X149621322Y-113243624D01*
X149785294Y-113311544D01*
X149932864Y-113410147D01*
X150058363Y-113535646D01*
X150156966Y-113683216D01*
X150224886Y-113847188D01*
X150259510Y-114021259D01*
X150259510Y-114198741D01*
X150224886Y-114372812D01*
X150156966Y-114536784D01*
X150058363Y-114684354D01*
X149932864Y-114809853D01*
X149785294Y-114908456D01*
X149621322Y-114976376D01*
X149472022Y-115006073D01*
X149447252Y-115011000D01*
X149269768Y-115011000D01*
X149244998Y-115006073D01*
X149095698Y-114976376D01*
X148931726Y-114908456D01*
X148784156Y-114809853D01*
X148658657Y-114684354D01*
X148560054Y-114536784D01*
X148492134Y-114372812D01*
X148457510Y-114198741D01*
X148457510Y-114021259D01*
X148492134Y-113847188D01*
X148560054Y-113683216D01*
X148658657Y-113535646D01*
X148784156Y-113410147D01*
X148931726Y-113311544D01*
X149095698Y-113243624D01*
X149244998Y-113213927D01*
X149269768Y-113209000D01*
X149447252Y-113209000D01*
X149472022Y-113213927D01*
G37*
G36*
X131692022Y-113213927D02*
G01*
X131841322Y-113243624D01*
X132005294Y-113311544D01*
X132152864Y-113410147D01*
X132278363Y-113535646D01*
X132376966Y-113683216D01*
X132444886Y-113847188D01*
X132479510Y-114021259D01*
X132479510Y-114198741D01*
X132444886Y-114372812D01*
X132376966Y-114536784D01*
X132278363Y-114684354D01*
X132152864Y-114809853D01*
X132005294Y-114908456D01*
X131841322Y-114976376D01*
X131692022Y-115006073D01*
X131667252Y-115011000D01*
X131489768Y-115011000D01*
X131464998Y-115006073D01*
X131315698Y-114976376D01*
X131151726Y-114908456D01*
X131004156Y-114809853D01*
X130878657Y-114684354D01*
X130780054Y-114536784D01*
X130712134Y-114372812D01*
X130677510Y-114198741D01*
X130677510Y-114021259D01*
X130712134Y-113847188D01*
X130780054Y-113683216D01*
X130878657Y-113535646D01*
X131004156Y-113410147D01*
X131151726Y-113311544D01*
X131315698Y-113243624D01*
X131464998Y-113213927D01*
X131489768Y-113209000D01*
X131667252Y-113209000D01*
X131692022Y-113213927D01*
G37*
G36*
X149472022Y-110673927D02*
G01*
X149621322Y-110703624D01*
X149785294Y-110771544D01*
X149932864Y-110870147D01*
X150058363Y-110995646D01*
X150156966Y-111143216D01*
X150224886Y-111307188D01*
X150259510Y-111481259D01*
X150259510Y-111658741D01*
X150224886Y-111832812D01*
X150156966Y-111996784D01*
X150058363Y-112144354D01*
X149932864Y-112269853D01*
X149785294Y-112368456D01*
X149621322Y-112436376D01*
X149472022Y-112466073D01*
X149447252Y-112471000D01*
X149269768Y-112471000D01*
X149244998Y-112466073D01*
X149095698Y-112436376D01*
X148931726Y-112368456D01*
X148784156Y-112269853D01*
X148658657Y-112144354D01*
X148560054Y-111996784D01*
X148492134Y-111832812D01*
X148457510Y-111658741D01*
X148457510Y-111481259D01*
X148492134Y-111307188D01*
X148560054Y-111143216D01*
X148658657Y-110995646D01*
X148784156Y-110870147D01*
X148931726Y-110771544D01*
X149095698Y-110703624D01*
X149244998Y-110673927D01*
X149269768Y-110669000D01*
X149447252Y-110669000D01*
X149472022Y-110673927D01*
G37*
G36*
X131692022Y-110673927D02*
G01*
X131841322Y-110703624D01*
X132005294Y-110771544D01*
X132152864Y-110870147D01*
X132278363Y-110995646D01*
X132376966Y-111143216D01*
X132444886Y-111307188D01*
X132479510Y-111481259D01*
X132479510Y-111658741D01*
X132444886Y-111832812D01*
X132376966Y-111996784D01*
X132278363Y-112144354D01*
X132152864Y-112269853D01*
X132005294Y-112368456D01*
X131841322Y-112436376D01*
X131692022Y-112466073D01*
X131667252Y-112471000D01*
X131489768Y-112471000D01*
X131464998Y-112466073D01*
X131315698Y-112436376D01*
X131151726Y-112368456D01*
X131004156Y-112269853D01*
X130878657Y-112144354D01*
X130780054Y-111996784D01*
X130712134Y-111832812D01*
X130677510Y-111658741D01*
X130677510Y-111481259D01*
X130712134Y-111307188D01*
X130780054Y-111143216D01*
X130878657Y-110995646D01*
X131004156Y-110870147D01*
X131151726Y-110771544D01*
X131315698Y-110703624D01*
X131464998Y-110673927D01*
X131489768Y-110669000D01*
X131667252Y-110669000D01*
X131692022Y-110673927D01*
G37*
G36*
X131692022Y-108133927D02*
G01*
X131841322Y-108163624D01*
X132005294Y-108231544D01*
X132152864Y-108330147D01*
X132278363Y-108455646D01*
X132376966Y-108603216D01*
X132444886Y-108767188D01*
X132479510Y-108941259D01*
X132479510Y-109118741D01*
X132444886Y-109292812D01*
X132376966Y-109456784D01*
X132278363Y-109604354D01*
X132152864Y-109729853D01*
X132005294Y-109828456D01*
X131841322Y-109896376D01*
X131692022Y-109926073D01*
X131667252Y-109931000D01*
X131489768Y-109931000D01*
X131464998Y-109926073D01*
X131315698Y-109896376D01*
X131151726Y-109828456D01*
X131004156Y-109729853D01*
X130878657Y-109604354D01*
X130780054Y-109456784D01*
X130712134Y-109292812D01*
X130677510Y-109118741D01*
X130677510Y-108941259D01*
X130712134Y-108767188D01*
X130780054Y-108603216D01*
X130878657Y-108455646D01*
X131004156Y-108330147D01*
X131151726Y-108231544D01*
X131315698Y-108163624D01*
X131464998Y-108133927D01*
X131489768Y-108129000D01*
X131667252Y-108129000D01*
X131692022Y-108133927D01*
G37*
G36*
X149472022Y-108133927D02*
G01*
X149621322Y-108163624D01*
X149785294Y-108231544D01*
X149932864Y-108330147D01*
X150058363Y-108455646D01*
X150156966Y-108603216D01*
X150224886Y-108767188D01*
X150259510Y-108941259D01*
X150259510Y-109118741D01*
X150224886Y-109292812D01*
X150156966Y-109456784D01*
X150058363Y-109604354D01*
X149932864Y-109729853D01*
X149785294Y-109828456D01*
X149621322Y-109896376D01*
X149472022Y-109926073D01*
X149447252Y-109931000D01*
X149269768Y-109931000D01*
X149244998Y-109926073D01*
X149095698Y-109896376D01*
X148931726Y-109828456D01*
X148784156Y-109729853D01*
X148658657Y-109604354D01*
X148560054Y-109456784D01*
X148492134Y-109292812D01*
X148457510Y-109118741D01*
X148457510Y-108941259D01*
X148492134Y-108767188D01*
X148560054Y-108603216D01*
X148658657Y-108455646D01*
X148784156Y-108330147D01*
X148931726Y-108231544D01*
X149095698Y-108163624D01*
X149244998Y-108133927D01*
X149269768Y-108129000D01*
X149447252Y-108129000D01*
X149472022Y-108133927D01*
G37*
G36*
X131692022Y-105593927D02*
G01*
X131841322Y-105623624D01*
X132005294Y-105691544D01*
X132152864Y-105790147D01*
X132278363Y-105915646D01*
X132376966Y-106063216D01*
X132444886Y-106227188D01*
X132479510Y-106401259D01*
X132479510Y-106578741D01*
X132444886Y-106752812D01*
X132376966Y-106916784D01*
X132278363Y-107064354D01*
X132152864Y-107189853D01*
X132005294Y-107288456D01*
X131841322Y-107356376D01*
X131692022Y-107386073D01*
X131667252Y-107391000D01*
X131489768Y-107391000D01*
X131464998Y-107386073D01*
X131315698Y-107356376D01*
X131151726Y-107288456D01*
X131004156Y-107189853D01*
X130878657Y-107064354D01*
X130780054Y-106916784D01*
X130712134Y-106752812D01*
X130677510Y-106578741D01*
X130677510Y-106401259D01*
X130712134Y-106227188D01*
X130780054Y-106063216D01*
X130878657Y-105915646D01*
X131004156Y-105790147D01*
X131151726Y-105691544D01*
X131315698Y-105623624D01*
X131464998Y-105593927D01*
X131489768Y-105589000D01*
X131667252Y-105589000D01*
X131692022Y-105593927D01*
G37*
G36*
X149472022Y-105593927D02*
G01*
X149621322Y-105623624D01*
X149785294Y-105691544D01*
X149932864Y-105790147D01*
X150058363Y-105915646D01*
X150156966Y-106063216D01*
X150224886Y-106227188D01*
X150259510Y-106401259D01*
X150259510Y-106578741D01*
X150224886Y-106752812D01*
X150156966Y-106916784D01*
X150058363Y-107064354D01*
X149932864Y-107189853D01*
X149785294Y-107288456D01*
X149621322Y-107356376D01*
X149472022Y-107386073D01*
X149447252Y-107391000D01*
X149269768Y-107391000D01*
X149244998Y-107386073D01*
X149095698Y-107356376D01*
X148931726Y-107288456D01*
X148784156Y-107189853D01*
X148658657Y-107064354D01*
X148560054Y-106916784D01*
X148492134Y-106752812D01*
X148457510Y-106578741D01*
X148457510Y-106401259D01*
X148492134Y-106227188D01*
X148560054Y-106063216D01*
X148658657Y-105915646D01*
X148784156Y-105790147D01*
X148931726Y-105691544D01*
X149095698Y-105623624D01*
X149244998Y-105593927D01*
X149269768Y-105589000D01*
X149447252Y-105589000D01*
X149472022Y-105593927D01*
G37*
G36*
X131692022Y-103053927D02*
G01*
X131841322Y-103083624D01*
X132005294Y-103151544D01*
X132152864Y-103250147D01*
X132278363Y-103375646D01*
X132376966Y-103523216D01*
X132444886Y-103687188D01*
X132479510Y-103861259D01*
X132479510Y-104038741D01*
X132444886Y-104212812D01*
X132376966Y-104376784D01*
X132278363Y-104524354D01*
X132152864Y-104649853D01*
X132005294Y-104748456D01*
X131841322Y-104816376D01*
X131692022Y-104846073D01*
X131667252Y-104851000D01*
X131489768Y-104851000D01*
X131464998Y-104846073D01*
X131315698Y-104816376D01*
X131151726Y-104748456D01*
X131004156Y-104649853D01*
X130878657Y-104524354D01*
X130780054Y-104376784D01*
X130712134Y-104212812D01*
X130677510Y-104038741D01*
X130677510Y-103861259D01*
X130712134Y-103687188D01*
X130780054Y-103523216D01*
X130878657Y-103375646D01*
X131004156Y-103250147D01*
X131151726Y-103151544D01*
X131315698Y-103083624D01*
X131464998Y-103053927D01*
X131489768Y-103049000D01*
X131667252Y-103049000D01*
X131692022Y-103053927D01*
G37*
G36*
X149472022Y-103053927D02*
G01*
X149621322Y-103083624D01*
X149785294Y-103151544D01*
X149932864Y-103250147D01*
X150058363Y-103375646D01*
X150156966Y-103523216D01*
X150224886Y-103687188D01*
X150259510Y-103861259D01*
X150259510Y-104038741D01*
X150224886Y-104212812D01*
X150156966Y-104376784D01*
X150058363Y-104524354D01*
X149932864Y-104649853D01*
X149785294Y-104748456D01*
X149621322Y-104816376D01*
X149472022Y-104846073D01*
X149447252Y-104851000D01*
X149269768Y-104851000D01*
X149244998Y-104846073D01*
X149095698Y-104816376D01*
X148931726Y-104748456D01*
X148784156Y-104649853D01*
X148658657Y-104524354D01*
X148560054Y-104376784D01*
X148492134Y-104212812D01*
X148457510Y-104038741D01*
X148457510Y-103861259D01*
X148492134Y-103687188D01*
X148560054Y-103523216D01*
X148658657Y-103375646D01*
X148784156Y-103250147D01*
X148931726Y-103151544D01*
X149095698Y-103083624D01*
X149244998Y-103053927D01*
X149269768Y-103049000D01*
X149447252Y-103049000D01*
X149472022Y-103053927D01*
G37*
G36*
X168482022Y-99203927D02*
G01*
X168631322Y-99233624D01*
X168795294Y-99301544D01*
X168942864Y-99400147D01*
X169068363Y-99525646D01*
X169166966Y-99673216D01*
X169234886Y-99837188D01*
X169269510Y-100011259D01*
X169269510Y-100188741D01*
X169234886Y-100362812D01*
X169166966Y-100526784D01*
X169068363Y-100674354D01*
X168942864Y-100799853D01*
X168795294Y-100898456D01*
X168631322Y-100966376D01*
X168482022Y-100996073D01*
X168457252Y-101001000D01*
X168279768Y-101001000D01*
X168254998Y-100996073D01*
X168105698Y-100966376D01*
X167941726Y-100898456D01*
X167794156Y-100799853D01*
X167668657Y-100674354D01*
X167570054Y-100526784D01*
X167502134Y-100362812D01*
X167467510Y-100188741D01*
X167467510Y-100011259D01*
X167502134Y-99837188D01*
X167570054Y-99673216D01*
X167668657Y-99525646D01*
X167794156Y-99400147D01*
X167941726Y-99301544D01*
X168105698Y-99233624D01*
X168254998Y-99203927D01*
X168279768Y-99199000D01*
X168457252Y-99199000D01*
X168482022Y-99203927D01*
G37*
G36*
X115386943Y-96234893D02*
G01*
X115477167Y-96252839D01*
X115582777Y-96296585D01*
X115732131Y-96358449D01*
X115732132Y-96358450D01*
X115961596Y-96511772D01*
X116156738Y-96706914D01*
X116193240Y-96761544D01*
X116310061Y-96936379D01*
X116330468Y-96985646D01*
X116391595Y-97133218D01*
X116415671Y-97191344D01*
X116469510Y-97462012D01*
X116469510Y-97737988D01*
X116415671Y-98008656D01*
X116310061Y-98263621D01*
X116310060Y-98263622D01*
X116156738Y-98493086D01*
X115961596Y-98688228D01*
X115808273Y-98790675D01*
X115732131Y-98841551D01*
X115582777Y-98903415D01*
X115477167Y-98947161D01*
X115386943Y-98965107D01*
X115206498Y-99001000D01*
X114930522Y-99001000D01*
X114750077Y-98965107D01*
X114659853Y-98947161D01*
X114554243Y-98903415D01*
X114404889Y-98841551D01*
X114328747Y-98790675D01*
X114175424Y-98688228D01*
X113980282Y-98493086D01*
X113826960Y-98263622D01*
X113826959Y-98263621D01*
X113721349Y-98008656D01*
X113667510Y-97737988D01*
X113667510Y-97462012D01*
X113721349Y-97191344D01*
X113745426Y-97133218D01*
X113806552Y-96985646D01*
X113826959Y-96936379D01*
X113943780Y-96761544D01*
X113980282Y-96706914D01*
X114175424Y-96511772D01*
X114404888Y-96358450D01*
X114404889Y-96358449D01*
X114554243Y-96296585D01*
X114659853Y-96252839D01*
X114750077Y-96234893D01*
X114930522Y-96199000D01*
X115206498Y-96199000D01*
X115386943Y-96234893D01*
G37*
G36*
X168482022Y-96663927D02*
G01*
X168631322Y-96693624D01*
X168795294Y-96761544D01*
X168942864Y-96860147D01*
X169068363Y-96985646D01*
X169166966Y-97133216D01*
X169234886Y-97297188D01*
X169269510Y-97471259D01*
X169269510Y-97648741D01*
X169234886Y-97822812D01*
X169166966Y-97986784D01*
X169068363Y-98134354D01*
X168942864Y-98259853D01*
X168795294Y-98358456D01*
X168631322Y-98426376D01*
X168482022Y-98456073D01*
X168457252Y-98461000D01*
X168279768Y-98461000D01*
X168254998Y-98456073D01*
X168105698Y-98426376D01*
X167941726Y-98358456D01*
X167794156Y-98259853D01*
X167668657Y-98134354D01*
X167570054Y-97986784D01*
X167502134Y-97822812D01*
X167467510Y-97648741D01*
X167467510Y-97471259D01*
X167502134Y-97297188D01*
X167570054Y-97133216D01*
X167668657Y-96985646D01*
X167794156Y-96860147D01*
X167941726Y-96761544D01*
X168105698Y-96693624D01*
X168254998Y-96663927D01*
X168279768Y-96659000D01*
X168457252Y-96659000D01*
X168482022Y-96663927D01*
G37*
G36*
X140269510Y-96201000D02*
G01*
X138667510Y-96201000D01*
X138667510Y-93799000D01*
X140269510Y-93799000D01*
X140269510Y-96201000D01*
G37*
G36*
X169269510Y-95921000D02*
G01*
X167467510Y-95921000D01*
X167467510Y-94119000D01*
X169269510Y-94119000D01*
X169269510Y-95921000D01*
G37*
G36*
X105022022Y-93603927D02*
G01*
X105171322Y-93633624D01*
X105335294Y-93701544D01*
X105482864Y-93800147D01*
X105608363Y-93925646D01*
X105706966Y-94073216D01*
X105774886Y-94237188D01*
X105809510Y-94411259D01*
X105809510Y-94588741D01*
X105774886Y-94762812D01*
X105706966Y-94926784D01*
X105608363Y-95074354D01*
X105482864Y-95199853D01*
X105335294Y-95298456D01*
X105171322Y-95366376D01*
X105022022Y-95396073D01*
X104997252Y-95401000D01*
X104819768Y-95401000D01*
X104794998Y-95396073D01*
X104645698Y-95366376D01*
X104481726Y-95298456D01*
X104334156Y-95199853D01*
X104208657Y-95074354D01*
X104110054Y-94926784D01*
X104042134Y-94762812D01*
X104007510Y-94588741D01*
X104007510Y-94411259D01*
X104042134Y-94237188D01*
X104110054Y-94073216D01*
X104208657Y-93925646D01*
X104334156Y-93800147D01*
X104481726Y-93701544D01*
X104645698Y-93633624D01*
X104794998Y-93603927D01*
X104819768Y-93599000D01*
X104997252Y-93599000D01*
X105022022Y-93603927D01*
G37*
G36*
X110102022Y-93603927D02*
G01*
X110251322Y-93633624D01*
X110415294Y-93701544D01*
X110562864Y-93800147D01*
X110688363Y-93925646D01*
X110786966Y-94073216D01*
X110854886Y-94237188D01*
X110889510Y-94411259D01*
X110889510Y-94588741D01*
X110854886Y-94762812D01*
X110786966Y-94926784D01*
X110688363Y-95074354D01*
X110562864Y-95199853D01*
X110415294Y-95298456D01*
X110251322Y-95366376D01*
X110102022Y-95396073D01*
X110077252Y-95401000D01*
X109899768Y-95401000D01*
X109874998Y-95396073D01*
X109725698Y-95366376D01*
X109561726Y-95298456D01*
X109414156Y-95199853D01*
X109288657Y-95074354D01*
X109190054Y-94926784D01*
X109122134Y-94762812D01*
X109087510Y-94588741D01*
X109087510Y-94411259D01*
X109122134Y-94237188D01*
X109190054Y-94073216D01*
X109288657Y-93925646D01*
X109414156Y-93800147D01*
X109561726Y-93701544D01*
X109725698Y-93633624D01*
X109874998Y-93603927D01*
X109899768Y-93599000D01*
X110077252Y-93599000D01*
X110102022Y-93603927D01*
G37*
G36*
X176513512Y-93103927D02*
G01*
X176662812Y-93133624D01*
X176826784Y-93201544D01*
X176974354Y-93300147D01*
X177099853Y-93425646D01*
X177198456Y-93573216D01*
X177266376Y-93737188D01*
X177301000Y-93911259D01*
X177301000Y-94088741D01*
X177266376Y-94262812D01*
X177198456Y-94426784D01*
X177099853Y-94574354D01*
X176974354Y-94699853D01*
X176826784Y-94798456D01*
X176662812Y-94866376D01*
X176513512Y-94896073D01*
X176488742Y-94901000D01*
X176311258Y-94901000D01*
X176286488Y-94896073D01*
X176137188Y-94866376D01*
X175973216Y-94798456D01*
X175825646Y-94699853D01*
X175700147Y-94574354D01*
X175601544Y-94426784D01*
X175533624Y-94262812D01*
X175499000Y-94088741D01*
X175499000Y-93911259D01*
X175533624Y-93737188D01*
X175601544Y-93573216D01*
X175700147Y-93425646D01*
X175825646Y-93300147D01*
X175973216Y-93201544D01*
X176137188Y-93133624D01*
X176286488Y-93103927D01*
X176311258Y-93099000D01*
X176488742Y-93099000D01*
X176513512Y-93103927D01*
G37*
G36*
X105022022Y-91063927D02*
G01*
X105171322Y-91093624D01*
X105335294Y-91161544D01*
X105482864Y-91260147D01*
X105608363Y-91385646D01*
X105706966Y-91533216D01*
X105774886Y-91697188D01*
X105809510Y-91871259D01*
X105809510Y-92048741D01*
X105774886Y-92222812D01*
X105706966Y-92386784D01*
X105608363Y-92534354D01*
X105482864Y-92659853D01*
X105335294Y-92758456D01*
X105171322Y-92826376D01*
X105022022Y-92856073D01*
X104997252Y-92861000D01*
X104819768Y-92861000D01*
X104794998Y-92856073D01*
X104645698Y-92826376D01*
X104481726Y-92758456D01*
X104334156Y-92659853D01*
X104208657Y-92534354D01*
X104110054Y-92386784D01*
X104042134Y-92222812D01*
X104007510Y-92048741D01*
X104007510Y-91871259D01*
X104042134Y-91697188D01*
X104110054Y-91533216D01*
X104208657Y-91385646D01*
X104334156Y-91260147D01*
X104481726Y-91161544D01*
X104645698Y-91093624D01*
X104794998Y-91063927D01*
X104819768Y-91059000D01*
X104997252Y-91059000D01*
X105022022Y-91063927D01*
G37*
G36*
X110102022Y-91063927D02*
G01*
X110251322Y-91093624D01*
X110415294Y-91161544D01*
X110562864Y-91260147D01*
X110688363Y-91385646D01*
X110786966Y-91533216D01*
X110854886Y-91697188D01*
X110889510Y-91871259D01*
X110889510Y-92048741D01*
X110854886Y-92222812D01*
X110786966Y-92386784D01*
X110688363Y-92534354D01*
X110562864Y-92659853D01*
X110415294Y-92758456D01*
X110251322Y-92826376D01*
X110102022Y-92856073D01*
X110077252Y-92861000D01*
X109899768Y-92861000D01*
X109874998Y-92856073D01*
X109725698Y-92826376D01*
X109561726Y-92758456D01*
X109414156Y-92659853D01*
X109288657Y-92534354D01*
X109190054Y-92386784D01*
X109122134Y-92222812D01*
X109087510Y-92048741D01*
X109087510Y-91871259D01*
X109122134Y-91697188D01*
X109190054Y-91533216D01*
X109288657Y-91385646D01*
X109414156Y-91260147D01*
X109561726Y-91161544D01*
X109725698Y-91093624D01*
X109874998Y-91063927D01*
X109899768Y-91059000D01*
X110077252Y-91059000D01*
X110102022Y-91063927D01*
G37*
G36*
X176513512Y-90563927D02*
G01*
X176662812Y-90593624D01*
X176826784Y-90661544D01*
X176974354Y-90760147D01*
X177099853Y-90885646D01*
X177198456Y-91033216D01*
X177266376Y-91197188D01*
X177301000Y-91371259D01*
X177301000Y-91548741D01*
X177266376Y-91722812D01*
X177198456Y-91886784D01*
X177099853Y-92034354D01*
X176974354Y-92159853D01*
X176826784Y-92258456D01*
X176662812Y-92326376D01*
X176513512Y-92356073D01*
X176488742Y-92361000D01*
X176311258Y-92361000D01*
X176286488Y-92356073D01*
X176137188Y-92326376D01*
X175973216Y-92258456D01*
X175825646Y-92159853D01*
X175700147Y-92034354D01*
X175601544Y-91886784D01*
X175533624Y-91722812D01*
X175499000Y-91548741D01*
X175499000Y-91371259D01*
X175533624Y-91197188D01*
X175601544Y-91033216D01*
X175700147Y-90885646D01*
X175825646Y-90760147D01*
X175973216Y-90661544D01*
X176137188Y-90593624D01*
X176286488Y-90563927D01*
X176311258Y-90559000D01*
X176488742Y-90559000D01*
X176513512Y-90563927D01*
G37*
G36*
X168482022Y-89043927D02*
G01*
X168631322Y-89073624D01*
X168795294Y-89141544D01*
X168942864Y-89240147D01*
X169068363Y-89365646D01*
X169166966Y-89513216D01*
X169234886Y-89677188D01*
X169256604Y-89786375D01*
X169268620Y-89846782D01*
X169269510Y-89851259D01*
X169269510Y-90028741D01*
X169234886Y-90202812D01*
X169166966Y-90366784D01*
X169068363Y-90514354D01*
X168942864Y-90639853D01*
X168795294Y-90738456D01*
X168631322Y-90806376D01*
X168482022Y-90836073D01*
X168457252Y-90841000D01*
X168279768Y-90841000D01*
X168254998Y-90836073D01*
X168105698Y-90806376D01*
X167941726Y-90738456D01*
X167794156Y-90639853D01*
X167668657Y-90514354D01*
X167570054Y-90366784D01*
X167502134Y-90202812D01*
X167467510Y-90028741D01*
X167467510Y-89851259D01*
X167468401Y-89846782D01*
X167480416Y-89786375D01*
X167502134Y-89677188D01*
X167570054Y-89513216D01*
X167668657Y-89365646D01*
X167794156Y-89240147D01*
X167941726Y-89141544D01*
X168105698Y-89073624D01*
X168254998Y-89043927D01*
X168279768Y-89039000D01*
X168457252Y-89039000D01*
X168482022Y-89043927D01*
G37*
G36*
X115182022Y-88523927D02*
G01*
X115331322Y-88553624D01*
X115495294Y-88621544D01*
X115642864Y-88720147D01*
X115768363Y-88845646D01*
X115866966Y-88993216D01*
X115934886Y-89157188D01*
X115951387Y-89240147D01*
X115969510Y-89331258D01*
X115969510Y-89508742D01*
X115964583Y-89533512D01*
X115934886Y-89682812D01*
X115866966Y-89846784D01*
X115768363Y-89994354D01*
X115642864Y-90119853D01*
X115495294Y-90218456D01*
X115331322Y-90286376D01*
X115182022Y-90316073D01*
X115157252Y-90321000D01*
X114979768Y-90321000D01*
X114954998Y-90316073D01*
X114805698Y-90286376D01*
X114641726Y-90218456D01*
X114494156Y-90119853D01*
X114368657Y-89994354D01*
X114270054Y-89846784D01*
X114202134Y-89682812D01*
X114172437Y-89533512D01*
X114167510Y-89508742D01*
X114167510Y-89331258D01*
X114185633Y-89240147D01*
X114202134Y-89157188D01*
X114270054Y-88993216D01*
X114368657Y-88845646D01*
X114494156Y-88720147D01*
X114641726Y-88621544D01*
X114805698Y-88553624D01*
X114954998Y-88523927D01*
X114979768Y-88519000D01*
X115157252Y-88519000D01*
X115182022Y-88523927D01*
G37*
G36*
X110102022Y-88523927D02*
G01*
X110251322Y-88553624D01*
X110415294Y-88621544D01*
X110562864Y-88720147D01*
X110688363Y-88845646D01*
X110786966Y-88993216D01*
X110854886Y-89157188D01*
X110871387Y-89240147D01*
X110889510Y-89331258D01*
X110889510Y-89508742D01*
X110884583Y-89533512D01*
X110854886Y-89682812D01*
X110786966Y-89846784D01*
X110688363Y-89994354D01*
X110562864Y-90119853D01*
X110415294Y-90218456D01*
X110251322Y-90286376D01*
X110102022Y-90316073D01*
X110077252Y-90321000D01*
X109899768Y-90321000D01*
X109874998Y-90316073D01*
X109725698Y-90286376D01*
X109561726Y-90218456D01*
X109414156Y-90119853D01*
X109288657Y-89994354D01*
X109190054Y-89846784D01*
X109122134Y-89682812D01*
X109092437Y-89533512D01*
X109087510Y-89508742D01*
X109087510Y-89331258D01*
X109105633Y-89240147D01*
X109122134Y-89157188D01*
X109190054Y-88993216D01*
X109288657Y-88845646D01*
X109414156Y-88720147D01*
X109561726Y-88621544D01*
X109725698Y-88553624D01*
X109874998Y-88523927D01*
X109899768Y-88519000D01*
X110077252Y-88519000D01*
X110102022Y-88523927D01*
G37*
G36*
X105022022Y-88523927D02*
G01*
X105171322Y-88553624D01*
X105335294Y-88621544D01*
X105482864Y-88720147D01*
X105608363Y-88845646D01*
X105706966Y-88993216D01*
X105774886Y-89157188D01*
X105791387Y-89240147D01*
X105809510Y-89331258D01*
X105809510Y-89508742D01*
X105804583Y-89533512D01*
X105774886Y-89682812D01*
X105706966Y-89846784D01*
X105608363Y-89994354D01*
X105482864Y-90119853D01*
X105335294Y-90218456D01*
X105171322Y-90286376D01*
X105022022Y-90316073D01*
X104997252Y-90321000D01*
X104819768Y-90321000D01*
X104794998Y-90316073D01*
X104645698Y-90286376D01*
X104481726Y-90218456D01*
X104334156Y-90119853D01*
X104208657Y-89994354D01*
X104110054Y-89846784D01*
X104042134Y-89682812D01*
X104012437Y-89533512D01*
X104007510Y-89508742D01*
X104007510Y-89331258D01*
X104025633Y-89240147D01*
X104042134Y-89157188D01*
X104110054Y-88993216D01*
X104208657Y-88845646D01*
X104334156Y-88720147D01*
X104481726Y-88621544D01*
X104645698Y-88553624D01*
X104794998Y-88523927D01*
X104819768Y-88519000D01*
X104997252Y-88519000D01*
X105022022Y-88523927D01*
G37*
G36*
X176513512Y-88023927D02*
G01*
X176662812Y-88053624D01*
X176826784Y-88121544D01*
X176974354Y-88220147D01*
X177099853Y-88345646D01*
X177198456Y-88493216D01*
X177266376Y-88657188D01*
X177301000Y-88831259D01*
X177301000Y-89008741D01*
X177266376Y-89182812D01*
X177198456Y-89346784D01*
X177099853Y-89494354D01*
X176974354Y-89619853D01*
X176826784Y-89718456D01*
X176662812Y-89786376D01*
X176513512Y-89816073D01*
X176488742Y-89821000D01*
X176311258Y-89821000D01*
X176286488Y-89816073D01*
X176137188Y-89786376D01*
X175973216Y-89718456D01*
X175825646Y-89619853D01*
X175700147Y-89494354D01*
X175601544Y-89346784D01*
X175533624Y-89182812D01*
X175499000Y-89008741D01*
X175499000Y-88831259D01*
X175533624Y-88657188D01*
X175601544Y-88493216D01*
X175700147Y-88345646D01*
X175825646Y-88220147D01*
X175973216Y-88121544D01*
X176137188Y-88053624D01*
X176286488Y-88023927D01*
X176311258Y-88019000D01*
X176488742Y-88019000D01*
X176513512Y-88023927D01*
G37*
G36*
X168482022Y-86503927D02*
G01*
X168631322Y-86533624D01*
X168795294Y-86601544D01*
X168942864Y-86700147D01*
X169068363Y-86825646D01*
X169166966Y-86973216D01*
X169234886Y-87137188D01*
X169256604Y-87246375D01*
X169268620Y-87306782D01*
X169269510Y-87311259D01*
X169269510Y-87488741D01*
X169234886Y-87662812D01*
X169166966Y-87826784D01*
X169068363Y-87974354D01*
X168942864Y-88099853D01*
X168795294Y-88198456D01*
X168631322Y-88266376D01*
X168482022Y-88296073D01*
X168457252Y-88301000D01*
X168279768Y-88301000D01*
X168254998Y-88296073D01*
X168105698Y-88266376D01*
X167941726Y-88198456D01*
X167794156Y-88099853D01*
X167668657Y-87974354D01*
X167570054Y-87826784D01*
X167502134Y-87662812D01*
X167467510Y-87488741D01*
X167467510Y-87311259D01*
X167468401Y-87306782D01*
X167480416Y-87246375D01*
X167502134Y-87137188D01*
X167570054Y-86973216D01*
X167668657Y-86825646D01*
X167794156Y-86700147D01*
X167941726Y-86601544D01*
X168105698Y-86533624D01*
X168254998Y-86503927D01*
X168279768Y-86499000D01*
X168457252Y-86499000D01*
X168482022Y-86503927D01*
G37*
G36*
X125342022Y-85983927D02*
G01*
X125491322Y-86013624D01*
X125655294Y-86081544D01*
X125802864Y-86180147D01*
X125928363Y-86305646D01*
X126026966Y-86453216D01*
X126094886Y-86617188D01*
X126111387Y-86700147D01*
X126129510Y-86791258D01*
X126129510Y-86968742D01*
X126124583Y-86993512D01*
X126094886Y-87142812D01*
X126026966Y-87306784D01*
X125928363Y-87454354D01*
X125802864Y-87579853D01*
X125655294Y-87678456D01*
X125491322Y-87746376D01*
X125342022Y-87776073D01*
X125317252Y-87781000D01*
X125139768Y-87781000D01*
X125114998Y-87776073D01*
X124965698Y-87746376D01*
X124801726Y-87678456D01*
X124654156Y-87579853D01*
X124528657Y-87454354D01*
X124430054Y-87306784D01*
X124362134Y-87142812D01*
X124332437Y-86993512D01*
X124327510Y-86968742D01*
X124327510Y-86791258D01*
X124345633Y-86700147D01*
X124362134Y-86617188D01*
X124430054Y-86453216D01*
X124528657Y-86305646D01*
X124654156Y-86180147D01*
X124801726Y-86081544D01*
X124965698Y-86013624D01*
X125114998Y-85983927D01*
X125139768Y-85979000D01*
X125317252Y-85979000D01*
X125342022Y-85983927D01*
G37*
G36*
X120262022Y-85983927D02*
G01*
X120411322Y-86013624D01*
X120575294Y-86081544D01*
X120722864Y-86180147D01*
X120848363Y-86305646D01*
X120946966Y-86453216D01*
X121014886Y-86617188D01*
X121031387Y-86700147D01*
X121049510Y-86791258D01*
X121049510Y-86968742D01*
X121044583Y-86993512D01*
X121014886Y-87142812D01*
X120946966Y-87306784D01*
X120848363Y-87454354D01*
X120722864Y-87579853D01*
X120575294Y-87678456D01*
X120411322Y-87746376D01*
X120262022Y-87776073D01*
X120237252Y-87781000D01*
X120059768Y-87781000D01*
X120034998Y-87776073D01*
X119885698Y-87746376D01*
X119721726Y-87678456D01*
X119574156Y-87579853D01*
X119448657Y-87454354D01*
X119350054Y-87306784D01*
X119282134Y-87142812D01*
X119252437Y-86993512D01*
X119247510Y-86968742D01*
X119247510Y-86791258D01*
X119265633Y-86700147D01*
X119282134Y-86617188D01*
X119350054Y-86453216D01*
X119448657Y-86305646D01*
X119574156Y-86180147D01*
X119721726Y-86081544D01*
X119885698Y-86013624D01*
X120034998Y-85983927D01*
X120059768Y-85979000D01*
X120237252Y-85979000D01*
X120262022Y-85983927D01*
G37*
G36*
X115182022Y-85983927D02*
G01*
X115331322Y-86013624D01*
X115495294Y-86081544D01*
X115642864Y-86180147D01*
X115768363Y-86305646D01*
X115866966Y-86453216D01*
X115934886Y-86617188D01*
X115951387Y-86700147D01*
X115969510Y-86791258D01*
X115969510Y-86968742D01*
X115964583Y-86993512D01*
X115934886Y-87142812D01*
X115866966Y-87306784D01*
X115768363Y-87454354D01*
X115642864Y-87579853D01*
X115495294Y-87678456D01*
X115331322Y-87746376D01*
X115182022Y-87776073D01*
X115157252Y-87781000D01*
X114979768Y-87781000D01*
X114954998Y-87776073D01*
X114805698Y-87746376D01*
X114641726Y-87678456D01*
X114494156Y-87579853D01*
X114368657Y-87454354D01*
X114270054Y-87306784D01*
X114202134Y-87142812D01*
X114172437Y-86993512D01*
X114167510Y-86968742D01*
X114167510Y-86791258D01*
X114185633Y-86700147D01*
X114202134Y-86617188D01*
X114270054Y-86453216D01*
X114368657Y-86305646D01*
X114494156Y-86180147D01*
X114641726Y-86081544D01*
X114805698Y-86013624D01*
X114954998Y-85983927D01*
X114979768Y-85979000D01*
X115157252Y-85979000D01*
X115182022Y-85983927D01*
G37*
G36*
X110102022Y-85983927D02*
G01*
X110251322Y-86013624D01*
X110415294Y-86081544D01*
X110562864Y-86180147D01*
X110688363Y-86305646D01*
X110786966Y-86453216D01*
X110854886Y-86617188D01*
X110871387Y-86700147D01*
X110889510Y-86791258D01*
X110889510Y-86968742D01*
X110884583Y-86993512D01*
X110854886Y-87142812D01*
X110786966Y-87306784D01*
X110688363Y-87454354D01*
X110562864Y-87579853D01*
X110415294Y-87678456D01*
X110251322Y-87746376D01*
X110102022Y-87776073D01*
X110077252Y-87781000D01*
X109899768Y-87781000D01*
X109874998Y-87776073D01*
X109725698Y-87746376D01*
X109561726Y-87678456D01*
X109414156Y-87579853D01*
X109288657Y-87454354D01*
X109190054Y-87306784D01*
X109122134Y-87142812D01*
X109092437Y-86993512D01*
X109087510Y-86968742D01*
X109087510Y-86791258D01*
X109105633Y-86700147D01*
X109122134Y-86617188D01*
X109190054Y-86453216D01*
X109288657Y-86305646D01*
X109414156Y-86180147D01*
X109561726Y-86081544D01*
X109725698Y-86013624D01*
X109874998Y-85983927D01*
X109899768Y-85979000D01*
X110077252Y-85979000D01*
X110102022Y-85983927D01*
G37*
G36*
X105022022Y-85983927D02*
G01*
X105171322Y-86013624D01*
X105335294Y-86081544D01*
X105482864Y-86180147D01*
X105608363Y-86305646D01*
X105706966Y-86453216D01*
X105774886Y-86617188D01*
X105791387Y-86700147D01*
X105809510Y-86791258D01*
X105809510Y-86968742D01*
X105804583Y-86993512D01*
X105774886Y-87142812D01*
X105706966Y-87306784D01*
X105608363Y-87454354D01*
X105482864Y-87579853D01*
X105335294Y-87678456D01*
X105171322Y-87746376D01*
X105022022Y-87776073D01*
X104997252Y-87781000D01*
X104819768Y-87781000D01*
X104794998Y-87776073D01*
X104645698Y-87746376D01*
X104481726Y-87678456D01*
X104334156Y-87579853D01*
X104208657Y-87454354D01*
X104110054Y-87306784D01*
X104042134Y-87142812D01*
X104012437Y-86993512D01*
X104007510Y-86968742D01*
X104007510Y-86791258D01*
X104025633Y-86700147D01*
X104042134Y-86617188D01*
X104110054Y-86453216D01*
X104208657Y-86305646D01*
X104334156Y-86180147D01*
X104481726Y-86081544D01*
X104645698Y-86013624D01*
X104794998Y-85983927D01*
X104819768Y-85979000D01*
X104997252Y-85979000D01*
X105022022Y-85983927D01*
G37*
G36*
X176513512Y-85483927D02*
G01*
X176662812Y-85513624D01*
X176826784Y-85581544D01*
X176974354Y-85680147D01*
X177099853Y-85805646D01*
X177198456Y-85953216D01*
X177266376Y-86117188D01*
X177301000Y-86291259D01*
X177301000Y-86468741D01*
X177266376Y-86642812D01*
X177198456Y-86806784D01*
X177099853Y-86954354D01*
X176974354Y-87079853D01*
X176826784Y-87178456D01*
X176662812Y-87246376D01*
X176513512Y-87276073D01*
X176488742Y-87281000D01*
X176311258Y-87281000D01*
X176286488Y-87276073D01*
X176137188Y-87246376D01*
X175973216Y-87178456D01*
X175825646Y-87079853D01*
X175700147Y-86954354D01*
X175601544Y-86806784D01*
X175533624Y-86642812D01*
X175499000Y-86468741D01*
X175499000Y-86291259D01*
X175533624Y-86117188D01*
X175601544Y-85953216D01*
X175700147Y-85805646D01*
X175825646Y-85680147D01*
X175973216Y-85581544D01*
X176137188Y-85513624D01*
X176286488Y-85483927D01*
X176311258Y-85479000D01*
X176488742Y-85479000D01*
X176513512Y-85483927D01*
G37*
G36*
X131715627Y-84217158D02*
G01*
X130017158Y-85915627D01*
X128884373Y-84782842D01*
X130582842Y-83084373D01*
X131715627Y-84217158D01*
G37*
G36*
X169269510Y-85761000D02*
G01*
X167467510Y-85761000D01*
X167467510Y-83959000D01*
X169269510Y-83959000D01*
X169269510Y-85761000D01*
G37*
G36*
X120262022Y-83443927D02*
G01*
X120411322Y-83473624D01*
X120575294Y-83541544D01*
X120722864Y-83640147D01*
X120848363Y-83765646D01*
X120946966Y-83913216D01*
X121014886Y-84077188D01*
X121042727Y-84217158D01*
X121049459Y-84251000D01*
X121049510Y-84251259D01*
X121049510Y-84428741D01*
X121014886Y-84602812D01*
X120946966Y-84766784D01*
X120848363Y-84914354D01*
X120722864Y-85039853D01*
X120575294Y-85138456D01*
X120411322Y-85206376D01*
X120262022Y-85236073D01*
X120237252Y-85241000D01*
X120059768Y-85241000D01*
X120034998Y-85236073D01*
X119885698Y-85206376D01*
X119721726Y-85138456D01*
X119574156Y-85039853D01*
X119448657Y-84914354D01*
X119350054Y-84766784D01*
X119282134Y-84602812D01*
X119247510Y-84428741D01*
X119247510Y-84251259D01*
X119247562Y-84251000D01*
X119254293Y-84217158D01*
X119282134Y-84077188D01*
X119350054Y-83913216D01*
X119448657Y-83765646D01*
X119574156Y-83640147D01*
X119721726Y-83541544D01*
X119885698Y-83473624D01*
X120034998Y-83443927D01*
X120059768Y-83439000D01*
X120237252Y-83439000D01*
X120262022Y-83443927D01*
G37*
G36*
X125342022Y-83443927D02*
G01*
X125491322Y-83473624D01*
X125655294Y-83541544D01*
X125802864Y-83640147D01*
X125928363Y-83765646D01*
X126026966Y-83913216D01*
X126094886Y-84077188D01*
X126122727Y-84217158D01*
X126129459Y-84251000D01*
X126129510Y-84251259D01*
X126129510Y-84428741D01*
X126094886Y-84602812D01*
X126026966Y-84766784D01*
X125928363Y-84914354D01*
X125802864Y-85039853D01*
X125655294Y-85138456D01*
X125491322Y-85206376D01*
X125342022Y-85236073D01*
X125317252Y-85241000D01*
X125139768Y-85241000D01*
X125114998Y-85236073D01*
X124965698Y-85206376D01*
X124801726Y-85138456D01*
X124654156Y-85039853D01*
X124528657Y-84914354D01*
X124430054Y-84766784D01*
X124362134Y-84602812D01*
X124327510Y-84428741D01*
X124327510Y-84251259D01*
X124327562Y-84251000D01*
X124334293Y-84217158D01*
X124362134Y-84077188D01*
X124430054Y-83913216D01*
X124528657Y-83765646D01*
X124654156Y-83640147D01*
X124801726Y-83541544D01*
X124965698Y-83473624D01*
X125114998Y-83443927D01*
X125139768Y-83439000D01*
X125317252Y-83439000D01*
X125342022Y-83443927D01*
G37*
G36*
X115182022Y-83443927D02*
G01*
X115331322Y-83473624D01*
X115495294Y-83541544D01*
X115642864Y-83640147D01*
X115768363Y-83765646D01*
X115866966Y-83913216D01*
X115934886Y-84077188D01*
X115962727Y-84217158D01*
X115969459Y-84251000D01*
X115969510Y-84251259D01*
X115969510Y-84428741D01*
X115934886Y-84602812D01*
X115866966Y-84766784D01*
X115768363Y-84914354D01*
X115642864Y-85039853D01*
X115495294Y-85138456D01*
X115331322Y-85206376D01*
X115182022Y-85236073D01*
X115157252Y-85241000D01*
X114979768Y-85241000D01*
X114954998Y-85236073D01*
X114805698Y-85206376D01*
X114641726Y-85138456D01*
X114494156Y-85039853D01*
X114368657Y-84914354D01*
X114270054Y-84766784D01*
X114202134Y-84602812D01*
X114167510Y-84428741D01*
X114167510Y-84251259D01*
X114167562Y-84251000D01*
X114174293Y-84217158D01*
X114202134Y-84077188D01*
X114270054Y-83913216D01*
X114368657Y-83765646D01*
X114494156Y-83640147D01*
X114641726Y-83541544D01*
X114805698Y-83473624D01*
X114954998Y-83443927D01*
X114979768Y-83439000D01*
X115157252Y-83439000D01*
X115182022Y-83443927D01*
G37*
G36*
X110102022Y-83443927D02*
G01*
X110251322Y-83473624D01*
X110415294Y-83541544D01*
X110562864Y-83640147D01*
X110688363Y-83765646D01*
X110786966Y-83913216D01*
X110854886Y-84077188D01*
X110882727Y-84217158D01*
X110889459Y-84251000D01*
X110889510Y-84251259D01*
X110889510Y-84428741D01*
X110854886Y-84602812D01*
X110786966Y-84766784D01*
X110688363Y-84914354D01*
X110562864Y-85039853D01*
X110415294Y-85138456D01*
X110251322Y-85206376D01*
X110102022Y-85236073D01*
X110077252Y-85241000D01*
X109899768Y-85241000D01*
X109874998Y-85236073D01*
X109725698Y-85206376D01*
X109561726Y-85138456D01*
X109414156Y-85039853D01*
X109288657Y-84914354D01*
X109190054Y-84766784D01*
X109122134Y-84602812D01*
X109087510Y-84428741D01*
X109087510Y-84251259D01*
X109087562Y-84251000D01*
X109094293Y-84217158D01*
X109122134Y-84077188D01*
X109190054Y-83913216D01*
X109288657Y-83765646D01*
X109414156Y-83640147D01*
X109561726Y-83541544D01*
X109725698Y-83473624D01*
X109874998Y-83443927D01*
X109899768Y-83439000D01*
X110077252Y-83439000D01*
X110102022Y-83443927D01*
G37*
G36*
X105022022Y-83443927D02*
G01*
X105171322Y-83473624D01*
X105335294Y-83541544D01*
X105482864Y-83640147D01*
X105608363Y-83765646D01*
X105706966Y-83913216D01*
X105774886Y-84077188D01*
X105802727Y-84217158D01*
X105809459Y-84251000D01*
X105809510Y-84251259D01*
X105809510Y-84428741D01*
X105774886Y-84602812D01*
X105706966Y-84766784D01*
X105608363Y-84914354D01*
X105482864Y-85039853D01*
X105335294Y-85138456D01*
X105171322Y-85206376D01*
X105022022Y-85236073D01*
X104997252Y-85241000D01*
X104819768Y-85241000D01*
X104794998Y-85236073D01*
X104645698Y-85206376D01*
X104481726Y-85138456D01*
X104334156Y-85039853D01*
X104208657Y-84914354D01*
X104110054Y-84766784D01*
X104042134Y-84602812D01*
X104007510Y-84428741D01*
X104007510Y-84251259D01*
X104007562Y-84251000D01*
X104014293Y-84217158D01*
X104042134Y-84077188D01*
X104110054Y-83913216D01*
X104208657Y-83765646D01*
X104334156Y-83640147D01*
X104481726Y-83541544D01*
X104645698Y-83473624D01*
X104794998Y-83443927D01*
X104819768Y-83439000D01*
X104997252Y-83439000D01*
X105022022Y-83443927D01*
G37*
G36*
X176513512Y-82943927D02*
G01*
X176662812Y-82973624D01*
X176826784Y-83041544D01*
X176974354Y-83140147D01*
X177099853Y-83265646D01*
X177198456Y-83413216D01*
X177266376Y-83577188D01*
X177301000Y-83751259D01*
X177301000Y-83928741D01*
X177266376Y-84102812D01*
X177198456Y-84266784D01*
X177099853Y-84414354D01*
X176974354Y-84539853D01*
X176826784Y-84638456D01*
X176662812Y-84706376D01*
X176513512Y-84736073D01*
X176488742Y-84741000D01*
X176311258Y-84741000D01*
X176286488Y-84736073D01*
X176137188Y-84706376D01*
X175973216Y-84638456D01*
X175825646Y-84539853D01*
X175700147Y-84414354D01*
X175601544Y-84266784D01*
X175533624Y-84102812D01*
X175499000Y-83928741D01*
X175499000Y-83751259D01*
X175533624Y-83577188D01*
X175601544Y-83413216D01*
X175700147Y-83265646D01*
X175825646Y-83140147D01*
X175973216Y-83041544D01*
X176137188Y-82973624D01*
X176286488Y-82943927D01*
X176311258Y-82939000D01*
X176488742Y-82939000D01*
X176513512Y-82943927D01*
G37*
G36*
X185148228Y-82581703D02*
G01*
X185303100Y-82645853D01*
X185442481Y-82738985D01*
X185561015Y-82857519D01*
X185654147Y-82996900D01*
X185718297Y-83151772D01*
X185751000Y-83316184D01*
X185751000Y-83483816D01*
X185718297Y-83648228D01*
X185654147Y-83803100D01*
X185561015Y-83942481D01*
X185442481Y-84061015D01*
X185303100Y-84154147D01*
X185148228Y-84218297D01*
X184983816Y-84251000D01*
X184816184Y-84251000D01*
X184651772Y-84218297D01*
X184496900Y-84154147D01*
X184357519Y-84061015D01*
X184238985Y-83942481D01*
X184145853Y-83803100D01*
X184081703Y-83648228D01*
X184049000Y-83483816D01*
X184049000Y-83316184D01*
X184081703Y-83151772D01*
X184145853Y-82996900D01*
X184238985Y-82857519D01*
X184357519Y-82738985D01*
X184496900Y-82645853D01*
X184651772Y-82581703D01*
X184816184Y-82549000D01*
X184983816Y-82549000D01*
X185148228Y-82581703D01*
G37*
G36*
X183251000Y-84251000D02*
G01*
X181549000Y-84251000D01*
X181549000Y-82549000D01*
X183251000Y-82549000D01*
X183251000Y-84251000D01*
G37*
G36*
X100242716Y-82600000D02*
G01*
X98968510Y-83874206D01*
X97694304Y-82600000D01*
X98968510Y-81325794D01*
X100242716Y-82600000D01*
G37*
G36*
X121049510Y-82701000D02*
G01*
X119247510Y-82701000D01*
X119247510Y-80899000D01*
X121049510Y-80899000D01*
X121049510Y-82701000D01*
G37*
G36*
X115969510Y-82701000D02*
G01*
X114167510Y-82701000D01*
X114167510Y-80899000D01*
X115969510Y-80899000D01*
X115969510Y-82701000D01*
G37*
G36*
X105809510Y-82701000D02*
G01*
X104007510Y-82701000D01*
X104007510Y-80899000D01*
X105809510Y-80899000D01*
X105809510Y-82701000D01*
G37*
G36*
X110889510Y-82701000D02*
G01*
X109087510Y-82701000D01*
X109087510Y-80899000D01*
X110889510Y-80899000D01*
X110889510Y-82701000D01*
G37*
G36*
X126129510Y-82701000D02*
G01*
X124327510Y-82701000D01*
X124327510Y-80899000D01*
X126129510Y-80899000D01*
X126129510Y-82701000D01*
G37*
G36*
X177301000Y-82201000D02*
G01*
X175499000Y-82201000D01*
X175499000Y-80399000D01*
X177301000Y-80399000D01*
X177301000Y-82201000D01*
G37*
G36*
X103315627Y-80217158D02*
G01*
X101617158Y-81915627D01*
X100484373Y-80782842D01*
X102182842Y-79084373D01*
X103315627Y-80217158D01*
G37*
G36*
X97285971Y-79907876D02*
G01*
X97435271Y-79937573D01*
X97599243Y-80005493D01*
X97746813Y-80104096D01*
X97872312Y-80229595D01*
X97970915Y-80377165D01*
X98038835Y-80541137D01*
X98073459Y-80715208D01*
X98073459Y-80892690D01*
X98038835Y-81066761D01*
X97970915Y-81230733D01*
X97872312Y-81378303D01*
X97746813Y-81503802D01*
X97599243Y-81602405D01*
X97435271Y-81670325D01*
X97285971Y-81700022D01*
X97261201Y-81704949D01*
X97083717Y-81704949D01*
X97058947Y-81700022D01*
X96909647Y-81670325D01*
X96745675Y-81602405D01*
X96598105Y-81503802D01*
X96472606Y-81378303D01*
X96374003Y-81230733D01*
X96306083Y-81066761D01*
X96271459Y-80892690D01*
X96271459Y-80715208D01*
X96306083Y-80541137D01*
X96374003Y-80377165D01*
X96472606Y-80229595D01*
X96598105Y-80104096D01*
X96745675Y-80005493D01*
X96909647Y-79937573D01*
X97058947Y-79907876D01*
X97083717Y-79902949D01*
X97261201Y-79902949D01*
X97285971Y-79907876D01*
G37*
G36*
X168482022Y-78883927D02*
G01*
X168631322Y-78913624D01*
X168795294Y-78981544D01*
X168942864Y-79080147D01*
X169068363Y-79205646D01*
X169166966Y-79353216D01*
X169234886Y-79517188D01*
X169269510Y-79691259D01*
X169269510Y-79868741D01*
X169234886Y-80042812D01*
X169166966Y-80206784D01*
X169068363Y-80354354D01*
X168942864Y-80479853D01*
X168795294Y-80578456D01*
X168631322Y-80646376D01*
X168482022Y-80676073D01*
X168457252Y-80681000D01*
X168279768Y-80681000D01*
X168254998Y-80676073D01*
X168105698Y-80646376D01*
X167941726Y-80578456D01*
X167794156Y-80479853D01*
X167668657Y-80354354D01*
X167570054Y-80206784D01*
X167502134Y-80042812D01*
X167467510Y-79868741D01*
X167467510Y-79691259D01*
X167502134Y-79517188D01*
X167570054Y-79353216D01*
X167668657Y-79205646D01*
X167794156Y-79080147D01*
X167941726Y-78981544D01*
X168105698Y-78913624D01*
X168254998Y-78883927D01*
X168279768Y-78879000D01*
X168457252Y-78879000D01*
X168482022Y-78883927D01*
G37*
G36*
X182174206Y-78200000D02*
G01*
X180900000Y-79474206D01*
X179625794Y-78200000D01*
X180900000Y-76925794D01*
X182174206Y-78200000D01*
G37*
G36*
X99933344Y-77352948D02*
G01*
X100082644Y-77382645D01*
X100246616Y-77450565D01*
X100394186Y-77549168D01*
X100519685Y-77674667D01*
X100618288Y-77822237D01*
X100686208Y-77986209D01*
X100720832Y-78160280D01*
X100720832Y-78337762D01*
X100686208Y-78511833D01*
X100618288Y-78675805D01*
X100519685Y-78823375D01*
X100394186Y-78948874D01*
X100246616Y-79047477D01*
X100082644Y-79115397D01*
X99933344Y-79145094D01*
X99908574Y-79150021D01*
X99731090Y-79150021D01*
X99706320Y-79145094D01*
X99557020Y-79115397D01*
X99393048Y-79047477D01*
X99245478Y-78948874D01*
X99119979Y-78823375D01*
X99021376Y-78675805D01*
X98953456Y-78511833D01*
X98918832Y-78337762D01*
X98918832Y-78160280D01*
X98953456Y-77986209D01*
X99021376Y-77822237D01*
X99119979Y-77674667D01*
X99245478Y-77549168D01*
X99393048Y-77450565D01*
X99557020Y-77382645D01*
X99706320Y-77352948D01*
X99731090Y-77348021D01*
X99908574Y-77348021D01*
X99933344Y-77352948D01*
G37*
G36*
X168482022Y-76343927D02*
G01*
X168631322Y-76373624D01*
X168795294Y-76441544D01*
X168942864Y-76540147D01*
X169068363Y-76665646D01*
X169166966Y-76813216D01*
X169234886Y-76977188D01*
X169269510Y-77151259D01*
X169269510Y-77328741D01*
X169234886Y-77502812D01*
X169166966Y-77666784D01*
X169068363Y-77814354D01*
X168942864Y-77939853D01*
X168795294Y-78038456D01*
X168631322Y-78106376D01*
X168482022Y-78136073D01*
X168457252Y-78141000D01*
X168279768Y-78141000D01*
X168254998Y-78136073D01*
X168105698Y-78106376D01*
X167941726Y-78038456D01*
X167794156Y-77939853D01*
X167668657Y-77814354D01*
X167570054Y-77666784D01*
X167502134Y-77502812D01*
X167467510Y-77328741D01*
X167467510Y-77151259D01*
X167502134Y-76977188D01*
X167570054Y-76813216D01*
X167668657Y-76665646D01*
X167794156Y-76540147D01*
X167941726Y-76441544D01*
X168105698Y-76373624D01*
X168254998Y-76343927D01*
X168279768Y-76339000D01*
X168457252Y-76339000D01*
X168482022Y-76343927D01*
G37*
G36*
X101729395Y-75556897D02*
G01*
X101878695Y-75586594D01*
X102042667Y-75654514D01*
X102190237Y-75753117D01*
X102315736Y-75878616D01*
X102414339Y-76026186D01*
X102482259Y-76190158D01*
X102516883Y-76364229D01*
X102516883Y-76541711D01*
X102482259Y-76715782D01*
X102414339Y-76879754D01*
X102315736Y-77027324D01*
X102190237Y-77152823D01*
X102042667Y-77251426D01*
X101878695Y-77319346D01*
X101734532Y-77348021D01*
X101704625Y-77353970D01*
X101527141Y-77353970D01*
X101497234Y-77348021D01*
X101353071Y-77319346D01*
X101189099Y-77251426D01*
X101041529Y-77152823D01*
X100916030Y-77027324D01*
X100817427Y-76879754D01*
X100749507Y-76715782D01*
X100714883Y-76541711D01*
X100714883Y-76364229D01*
X100749507Y-76190158D01*
X100817427Y-76026186D01*
X100916030Y-75878616D01*
X101041529Y-75753117D01*
X101189099Y-75654514D01*
X101353071Y-75586594D01*
X101502371Y-75556897D01*
X101527141Y-75551970D01*
X101704625Y-75551970D01*
X101729395Y-75556897D01*
G37*
G36*
X179217461Y-75507876D02*
G01*
X179366761Y-75537573D01*
X179530733Y-75605493D01*
X179678303Y-75704096D01*
X179803802Y-75829595D01*
X179902405Y-75977165D01*
X179970325Y-76141137D01*
X180004949Y-76315208D01*
X180004949Y-76492690D01*
X179970325Y-76666761D01*
X179902405Y-76830733D01*
X179803802Y-76978303D01*
X179678303Y-77103802D01*
X179530733Y-77202405D01*
X179366761Y-77270325D01*
X179217461Y-77300022D01*
X179192691Y-77304949D01*
X179015207Y-77304949D01*
X178990437Y-77300022D01*
X178841137Y-77270325D01*
X178677165Y-77202405D01*
X178529595Y-77103802D01*
X178404096Y-76978303D01*
X178305493Y-76830733D01*
X178237573Y-76666761D01*
X178202949Y-76492690D01*
X178202949Y-76315208D01*
X178237573Y-76141137D01*
X178305493Y-75977165D01*
X178404096Y-75829595D01*
X178529595Y-75704096D01*
X178677165Y-75605493D01*
X178841137Y-75537573D01*
X178990437Y-75507876D01*
X179015207Y-75502949D01*
X179192691Y-75502949D01*
X179217461Y-75507876D01*
G37*
G36*
X158986943Y-73934893D02*
G01*
X159077167Y-73952839D01*
X159182777Y-73996585D01*
X159332131Y-74058449D01*
X159408273Y-74109325D01*
X159561596Y-74211772D01*
X159756738Y-74406914D01*
X159831735Y-74519156D01*
X159910061Y-74636379D01*
X160015671Y-74891344D01*
X160069510Y-75162012D01*
X160069510Y-75437988D01*
X160039950Y-75586595D01*
X160026441Y-75654514D01*
X160015671Y-75708656D01*
X159910061Y-75963621D01*
X159910060Y-75963622D01*
X159756738Y-76193086D01*
X159561596Y-76388228D01*
X159481802Y-76441544D01*
X159332131Y-76541551D01*
X159182777Y-76603415D01*
X159077167Y-76647161D01*
X158986943Y-76665107D01*
X158806498Y-76701000D01*
X158530522Y-76701000D01*
X158350077Y-76665107D01*
X158259853Y-76647161D01*
X158154243Y-76603415D01*
X158004889Y-76541551D01*
X157855218Y-76441544D01*
X157775424Y-76388228D01*
X157580282Y-76193086D01*
X157426960Y-75963622D01*
X157426959Y-75963621D01*
X157321349Y-75708656D01*
X157310580Y-75654514D01*
X157297070Y-75586595D01*
X157267510Y-75437988D01*
X157267510Y-75162012D01*
X157321349Y-74891344D01*
X157426959Y-74636379D01*
X157505285Y-74519156D01*
X157580282Y-74406914D01*
X157775424Y-74211772D01*
X157928747Y-74109325D01*
X158004889Y-74058449D01*
X158154243Y-73996585D01*
X158259853Y-73952839D01*
X158350077Y-73934893D01*
X158530522Y-73899000D01*
X158806498Y-73899000D01*
X158986943Y-73934893D01*
G37*
G36*
X169269510Y-75601000D02*
G01*
X167467510Y-75601000D01*
X167467510Y-73799000D01*
X169269510Y-73799000D01*
X169269510Y-75601000D01*
G37*
G36*
X103525446Y-73760846D02*
G01*
X103674746Y-73790543D01*
X103838718Y-73858463D01*
X103986288Y-73957066D01*
X104111787Y-74082565D01*
X104210390Y-74230135D01*
X104278310Y-74394107D01*
X104312934Y-74568178D01*
X104312934Y-74745660D01*
X104278310Y-74919731D01*
X104210390Y-75083703D01*
X104111787Y-75231273D01*
X103986288Y-75356772D01*
X103838718Y-75455375D01*
X103674746Y-75523295D01*
X103530583Y-75551970D01*
X103500676Y-75557919D01*
X103323192Y-75557919D01*
X103293285Y-75551970D01*
X103149122Y-75523295D01*
X102985150Y-75455375D01*
X102837580Y-75356772D01*
X102712081Y-75231273D01*
X102613478Y-75083703D01*
X102545558Y-74919731D01*
X102510934Y-74745660D01*
X102510934Y-74568178D01*
X102545558Y-74394107D01*
X102613478Y-74230135D01*
X102712081Y-74082565D01*
X102837580Y-73957066D01*
X102985150Y-73858463D01*
X103149122Y-73790543D01*
X103298422Y-73760846D01*
X103323192Y-73755919D01*
X103500676Y-73755919D01*
X103525446Y-73760846D01*
G37*
G36*
X177421410Y-73711825D02*
G01*
X177570710Y-73741522D01*
X177734682Y-73809442D01*
X177882252Y-73908045D01*
X178007751Y-74033544D01*
X178106354Y-74181114D01*
X178174274Y-74345086D01*
X178208898Y-74519157D01*
X178208898Y-74696639D01*
X178174274Y-74870710D01*
X178106354Y-75034682D01*
X178007751Y-75182252D01*
X177882252Y-75307751D01*
X177734682Y-75406354D01*
X177570710Y-75474274D01*
X177426547Y-75502949D01*
X177396640Y-75508898D01*
X177219156Y-75508898D01*
X177189249Y-75502949D01*
X177045086Y-75474274D01*
X176881114Y-75406354D01*
X176733544Y-75307751D01*
X176608045Y-75182252D01*
X176509442Y-75034682D01*
X176441522Y-74870710D01*
X176406898Y-74696639D01*
X176406898Y-74519157D01*
X176441522Y-74345086D01*
X176509442Y-74181114D01*
X176608045Y-74033544D01*
X176733544Y-73908045D01*
X176881114Y-73809442D01*
X177045086Y-73741522D01*
X177194386Y-73711825D01*
X177219156Y-73706898D01*
X177396640Y-73706898D01*
X177421410Y-73711825D01*
G37*
G36*
X105321498Y-71964794D02*
G01*
X105470798Y-71994491D01*
X105634770Y-72062411D01*
X105782340Y-72161014D01*
X105907839Y-72286513D01*
X106006442Y-72434083D01*
X106074362Y-72598055D01*
X106108986Y-72772126D01*
X106108986Y-72949608D01*
X106074362Y-73123679D01*
X106006442Y-73287651D01*
X105907839Y-73435221D01*
X105782340Y-73560720D01*
X105634770Y-73659323D01*
X105470798Y-73727243D01*
X105326630Y-73755919D01*
X105296728Y-73761867D01*
X105119244Y-73761867D01*
X105089342Y-73755919D01*
X104945174Y-73727243D01*
X104781202Y-73659323D01*
X104633632Y-73560720D01*
X104508133Y-73435221D01*
X104409530Y-73287651D01*
X104341610Y-73123679D01*
X104306986Y-72949608D01*
X104306986Y-72772126D01*
X104341610Y-72598055D01*
X104409530Y-72434083D01*
X104508133Y-72286513D01*
X104633632Y-72161014D01*
X104781202Y-72062411D01*
X104945174Y-71994491D01*
X105094474Y-71964794D01*
X105119244Y-71959867D01*
X105296728Y-71959867D01*
X105321498Y-71964794D01*
G37*
G36*
X175625358Y-71915773D02*
G01*
X175774658Y-71945470D01*
X175938630Y-72013390D01*
X176086200Y-72111993D01*
X176211699Y-72237492D01*
X176310302Y-72385062D01*
X176378222Y-72549034D01*
X176412846Y-72723105D01*
X176412846Y-72900587D01*
X176378222Y-73074658D01*
X176310302Y-73238630D01*
X176211699Y-73386200D01*
X176086200Y-73511699D01*
X175938630Y-73610302D01*
X175774658Y-73678222D01*
X175630490Y-73706898D01*
X175600588Y-73712846D01*
X175423104Y-73712846D01*
X175393202Y-73706898D01*
X175249034Y-73678222D01*
X175085062Y-73610302D01*
X174937492Y-73511699D01*
X174811993Y-73386200D01*
X174713390Y-73238630D01*
X174645470Y-73074658D01*
X174610846Y-72900587D01*
X174610846Y-72723105D01*
X174645470Y-72549034D01*
X174713390Y-72385062D01*
X174811993Y-72237492D01*
X174937492Y-72111993D01*
X175085062Y-72013390D01*
X175249034Y-71945470D01*
X175398334Y-71915773D01*
X175423104Y-71910846D01*
X175600588Y-71910846D01*
X175625358Y-71915773D01*
G37*
G36*
X151269510Y-73101000D02*
G01*
X149667510Y-73101000D01*
X149667510Y-70699000D01*
X151269510Y-70699000D01*
X151269510Y-73101000D01*
G37*
G36*
X171056008Y-71623223D02*
G01*
X169923223Y-72756008D01*
X168224754Y-71057539D01*
X169357539Y-69924754D01*
X171056008Y-71623223D01*
G37*
G36*
X107117549Y-70168743D02*
G01*
X107266849Y-70198440D01*
X107430821Y-70266360D01*
X107578391Y-70364963D01*
X107703890Y-70490462D01*
X107802493Y-70638032D01*
X107870413Y-70802004D01*
X107905037Y-70976075D01*
X107905037Y-71153557D01*
X107870413Y-71327628D01*
X107802493Y-71491600D01*
X107703890Y-71639170D01*
X107578391Y-71764669D01*
X107430821Y-71863272D01*
X107266849Y-71931192D01*
X107122686Y-71959867D01*
X107092779Y-71965816D01*
X106915295Y-71965816D01*
X106885388Y-71959867D01*
X106741225Y-71931192D01*
X106577253Y-71863272D01*
X106429683Y-71764669D01*
X106304184Y-71639170D01*
X106205581Y-71491600D01*
X106137661Y-71327628D01*
X106103037Y-71153557D01*
X106103037Y-70976075D01*
X106137661Y-70802004D01*
X106205581Y-70638032D01*
X106304184Y-70490462D01*
X106429683Y-70364963D01*
X106577253Y-70266360D01*
X106741225Y-70198440D01*
X106890525Y-70168743D01*
X106915295Y-70163816D01*
X107092779Y-70163816D01*
X107117549Y-70168743D01*
G37*
G36*
X173829307Y-70119722D02*
G01*
X173978607Y-70149419D01*
X174142579Y-70217339D01*
X174290149Y-70315942D01*
X174415648Y-70441441D01*
X174514251Y-70589011D01*
X174582171Y-70752983D01*
X174616795Y-70927054D01*
X174616795Y-71104536D01*
X174582171Y-71278607D01*
X174514251Y-71442579D01*
X174415648Y-71590149D01*
X174290149Y-71715648D01*
X174142579Y-71814251D01*
X173978607Y-71882171D01*
X173834444Y-71910846D01*
X173804537Y-71916795D01*
X173627053Y-71916795D01*
X173597146Y-71910846D01*
X173452983Y-71882171D01*
X173289011Y-71814251D01*
X173141441Y-71715648D01*
X173015942Y-71590149D01*
X172917339Y-71442579D01*
X172849419Y-71278607D01*
X172814795Y-71104536D01*
X172814795Y-70927054D01*
X172849419Y-70752983D01*
X172917339Y-70589011D01*
X173015942Y-70441441D01*
X173141441Y-70315942D01*
X173289011Y-70217339D01*
X173452983Y-70149419D01*
X173602283Y-70119722D01*
X173627053Y-70114795D01*
X173804537Y-70114795D01*
X173829307Y-70119722D01*
G37*
G36*
X110074294Y-69268765D02*
G01*
X108800088Y-70542971D01*
X107525882Y-69268765D01*
X108800088Y-67994559D01*
X110074294Y-69268765D01*
G37*
G36*
X172033256Y-68323671D02*
G01*
X172182556Y-68353368D01*
X172346528Y-68421288D01*
X172494098Y-68519891D01*
X172619597Y-68645390D01*
X172718200Y-68792960D01*
X172786120Y-68956932D01*
X172820744Y-69131003D01*
X172820744Y-69308485D01*
X172786120Y-69482556D01*
X172718200Y-69646528D01*
X172619597Y-69794098D01*
X172494098Y-69919597D01*
X172346528Y-70018200D01*
X172182556Y-70086120D01*
X172038393Y-70114795D01*
X172008486Y-70120744D01*
X171831002Y-70120744D01*
X171801095Y-70114795D01*
X171656932Y-70086120D01*
X171492960Y-70018200D01*
X171345390Y-69919597D01*
X171219891Y-69794098D01*
X171121288Y-69646528D01*
X171053368Y-69482556D01*
X171018744Y-69308485D01*
X171018744Y-69131003D01*
X171053368Y-68956932D01*
X171121288Y-68792960D01*
X171219891Y-68645390D01*
X171345390Y-68519891D01*
X171492960Y-68421288D01*
X171656932Y-68353368D01*
X171806232Y-68323671D01*
X171831002Y-68318744D01*
X172008486Y-68318744D01*
X172033256Y-68323671D01*
G37*
G36*
X129332022Y-68153927D02*
G01*
X129481322Y-68183624D01*
X129645294Y-68251544D01*
X129792864Y-68350147D01*
X129918363Y-68475646D01*
X130016966Y-68623216D01*
X130084886Y-68787188D01*
X130119510Y-68961259D01*
X130119510Y-69138741D01*
X130084886Y-69312812D01*
X130016966Y-69476784D01*
X129918363Y-69624354D01*
X129792864Y-69749853D01*
X129645294Y-69848456D01*
X129481322Y-69916376D01*
X129332022Y-69946073D01*
X129307252Y-69951000D01*
X129129768Y-69951000D01*
X129104998Y-69946073D01*
X128955698Y-69916376D01*
X128791726Y-69848456D01*
X128644156Y-69749853D01*
X128518657Y-69624354D01*
X128420054Y-69476784D01*
X128352134Y-69312812D01*
X128317510Y-69138741D01*
X128317510Y-68961259D01*
X128352134Y-68787188D01*
X128420054Y-68623216D01*
X128518657Y-68475646D01*
X128644156Y-68350147D01*
X128791726Y-68251544D01*
X128955698Y-68183624D01*
X129104998Y-68153927D01*
X129129768Y-68149000D01*
X129307252Y-68149000D01*
X129332022Y-68153927D01*
G37*
G36*
X153832022Y-68153927D02*
G01*
X153981322Y-68183624D01*
X154145294Y-68251544D01*
X154292864Y-68350147D01*
X154418363Y-68475646D01*
X154516966Y-68623216D01*
X154584886Y-68787188D01*
X154619510Y-68961259D01*
X154619510Y-69138741D01*
X154584886Y-69312812D01*
X154516966Y-69476784D01*
X154418363Y-69624354D01*
X154292864Y-69749853D01*
X154145294Y-69848456D01*
X153981322Y-69916376D01*
X153832022Y-69946073D01*
X153807252Y-69951000D01*
X153629768Y-69951000D01*
X153604998Y-69946073D01*
X153455698Y-69916376D01*
X153291726Y-69848456D01*
X153144156Y-69749853D01*
X153018657Y-69624354D01*
X152920054Y-69476784D01*
X152852134Y-69312812D01*
X152817510Y-69138741D01*
X152817510Y-68961259D01*
X152852134Y-68787188D01*
X152920054Y-68623216D01*
X153018657Y-68475646D01*
X153144156Y-68350147D01*
X153291726Y-68251544D01*
X153455698Y-68183624D01*
X153604998Y-68153927D01*
X153629768Y-68149000D01*
X153807252Y-68149000D01*
X153832022Y-68153927D01*
G37*
G36*
X158332022Y-68153927D02*
G01*
X158481322Y-68183624D01*
X158645294Y-68251544D01*
X158792864Y-68350147D01*
X158918363Y-68475646D01*
X159016966Y-68623216D01*
X159084886Y-68787188D01*
X159119510Y-68961259D01*
X159119510Y-69138741D01*
X159084886Y-69312812D01*
X159016966Y-69476784D01*
X158918363Y-69624354D01*
X158792864Y-69749853D01*
X158645294Y-69848456D01*
X158481322Y-69916376D01*
X158332022Y-69946073D01*
X158307252Y-69951000D01*
X158129768Y-69951000D01*
X158104998Y-69946073D01*
X157955698Y-69916376D01*
X157791726Y-69848456D01*
X157644156Y-69749853D01*
X157518657Y-69624354D01*
X157420054Y-69476784D01*
X157352134Y-69312812D01*
X157317510Y-69138741D01*
X157317510Y-68961259D01*
X157352134Y-68787188D01*
X157420054Y-68623216D01*
X157518657Y-68475646D01*
X157644156Y-68350147D01*
X157791726Y-68251544D01*
X157955698Y-68183624D01*
X158104998Y-68153927D01*
X158129768Y-68149000D01*
X158307252Y-68149000D01*
X158332022Y-68153927D01*
G37*
G36*
X124832022Y-68153927D02*
G01*
X124981322Y-68183624D01*
X125145294Y-68251544D01*
X125292864Y-68350147D01*
X125418363Y-68475646D01*
X125516966Y-68623216D01*
X125584886Y-68787188D01*
X125619510Y-68961259D01*
X125619510Y-69138741D01*
X125584886Y-69312812D01*
X125516966Y-69476784D01*
X125418363Y-69624354D01*
X125292864Y-69749853D01*
X125145294Y-69848456D01*
X124981322Y-69916376D01*
X124832022Y-69946073D01*
X124807252Y-69951000D01*
X124629768Y-69951000D01*
X124604998Y-69946073D01*
X124455698Y-69916376D01*
X124291726Y-69848456D01*
X124144156Y-69749853D01*
X124018657Y-69624354D01*
X123920054Y-69476784D01*
X123852134Y-69312812D01*
X123817510Y-69138741D01*
X123817510Y-68961259D01*
X123852134Y-68787188D01*
X123920054Y-68623216D01*
X124018657Y-68475646D01*
X124144156Y-68350147D01*
X124291726Y-68251544D01*
X124455698Y-68183624D01*
X124604998Y-68153927D01*
X124629768Y-68149000D01*
X124807252Y-68149000D01*
X124832022Y-68153927D01*
G37*
G36*
X168774206Y-68400000D02*
G01*
X167500000Y-69674206D01*
X166225794Y-68400000D01*
X167500000Y-67125794D01*
X168774206Y-68400000D01*
G37*
G36*
X151369510Y-69301000D02*
G01*
X149567510Y-69301000D01*
X149567510Y-67499000D01*
X151369510Y-67499000D01*
X151369510Y-69301000D01*
G37*
G36*
X169409563Y-65707876D02*
G01*
X169558863Y-65737573D01*
X169722835Y-65805493D01*
X169870405Y-65904096D01*
X169995904Y-66029595D01*
X170094507Y-66177165D01*
X170162427Y-66341137D01*
X170197051Y-66515208D01*
X170197051Y-66692690D01*
X170162427Y-66866761D01*
X170094507Y-67030733D01*
X169995904Y-67178303D01*
X169870405Y-67303802D01*
X169722835Y-67402405D01*
X169558863Y-67470325D01*
X169414700Y-67499000D01*
X169384793Y-67504949D01*
X169207309Y-67504949D01*
X169177402Y-67499000D01*
X169033239Y-67470325D01*
X168869267Y-67402405D01*
X168721697Y-67303802D01*
X168596198Y-67178303D01*
X168497595Y-67030733D01*
X168429675Y-66866761D01*
X168395051Y-66692690D01*
X168395051Y-66515208D01*
X168429675Y-66341137D01*
X168497595Y-66177165D01*
X168596198Y-66029595D01*
X168721697Y-65904096D01*
X168869267Y-65805493D01*
X169033239Y-65737573D01*
X169182539Y-65707876D01*
X169207309Y-65702949D01*
X169384793Y-65702949D01*
X169409563Y-65707876D01*
G37*
G36*
X139193512Y-65003927D02*
G01*
X139342812Y-65033624D01*
X139506784Y-65101544D01*
X139654354Y-65200147D01*
X139779853Y-65325646D01*
X139878456Y-65473216D01*
X139946376Y-65637188D01*
X139981000Y-65811259D01*
X139981000Y-65988741D01*
X139946376Y-66162812D01*
X139878456Y-66326784D01*
X139779853Y-66474354D01*
X139654354Y-66599853D01*
X139506784Y-66698456D01*
X139342812Y-66766376D01*
X139193512Y-66796073D01*
X139168742Y-66801000D01*
X138991258Y-66801000D01*
X138966488Y-66796073D01*
X138817188Y-66766376D01*
X138653216Y-66698456D01*
X138505646Y-66599853D01*
X138380147Y-66474354D01*
X138281544Y-66326784D01*
X138213624Y-66162812D01*
X138179000Y-65988741D01*
X138179000Y-65811259D01*
X138213624Y-65637188D01*
X138281544Y-65473216D01*
X138380147Y-65325646D01*
X138505646Y-65200147D01*
X138653216Y-65101544D01*
X138817188Y-65033624D01*
X138966488Y-65003927D01*
X138991258Y-64999000D01*
X139168742Y-64999000D01*
X139193512Y-65003927D01*
G37*
G36*
X136653512Y-65003927D02*
G01*
X136802812Y-65033624D01*
X136966784Y-65101544D01*
X137114354Y-65200147D01*
X137239853Y-65325646D01*
X137338456Y-65473216D01*
X137406376Y-65637188D01*
X137441000Y-65811259D01*
X137441000Y-65988741D01*
X137406376Y-66162812D01*
X137338456Y-66326784D01*
X137239853Y-66474354D01*
X137114354Y-66599853D01*
X136966784Y-66698456D01*
X136802812Y-66766376D01*
X136653512Y-66796073D01*
X136628742Y-66801000D01*
X136451258Y-66801000D01*
X136426488Y-66796073D01*
X136277188Y-66766376D01*
X136113216Y-66698456D01*
X135965646Y-66599853D01*
X135840147Y-66474354D01*
X135741544Y-66326784D01*
X135673624Y-66162812D01*
X135639000Y-65988741D01*
X135639000Y-65811259D01*
X135673624Y-65637188D01*
X135741544Y-65473216D01*
X135840147Y-65325646D01*
X135965646Y-65200147D01*
X136113216Y-65101544D01*
X136277188Y-65033624D01*
X136426488Y-65003927D01*
X136451258Y-64999000D01*
X136628742Y-64999000D01*
X136653512Y-65003927D01*
G37*
G36*
X134113512Y-65003927D02*
G01*
X134262812Y-65033624D01*
X134426784Y-65101544D01*
X134574354Y-65200147D01*
X134699853Y-65325646D01*
X134798456Y-65473216D01*
X134866376Y-65637188D01*
X134901000Y-65811259D01*
X134901000Y-65988741D01*
X134866376Y-66162812D01*
X134798456Y-66326784D01*
X134699853Y-66474354D01*
X134574354Y-66599853D01*
X134426784Y-66698456D01*
X134262812Y-66766376D01*
X134113512Y-66796073D01*
X134088742Y-66801000D01*
X133911258Y-66801000D01*
X133886488Y-66796073D01*
X133737188Y-66766376D01*
X133573216Y-66698456D01*
X133425646Y-66599853D01*
X133300147Y-66474354D01*
X133201544Y-66326784D01*
X133133624Y-66162812D01*
X133099000Y-65988741D01*
X133099000Y-65811259D01*
X133133624Y-65637188D01*
X133201544Y-65473216D01*
X133300147Y-65325646D01*
X133425646Y-65200147D01*
X133573216Y-65101544D01*
X133737188Y-65033624D01*
X133886488Y-65003927D01*
X133911258Y-64999000D01*
X134088742Y-64999000D01*
X134113512Y-65003927D01*
G37*
G36*
X141733512Y-65003927D02*
G01*
X141882812Y-65033624D01*
X142046784Y-65101544D01*
X142194354Y-65200147D01*
X142319853Y-65325646D01*
X142418456Y-65473216D01*
X142486376Y-65637188D01*
X142521000Y-65811259D01*
X142521000Y-65988741D01*
X142486376Y-66162812D01*
X142418456Y-66326784D01*
X142319853Y-66474354D01*
X142194354Y-66599853D01*
X142046784Y-66698456D01*
X141882812Y-66766376D01*
X141733512Y-66796073D01*
X141708742Y-66801000D01*
X141531258Y-66801000D01*
X141506488Y-66796073D01*
X141357188Y-66766376D01*
X141193216Y-66698456D01*
X141045646Y-66599853D01*
X140920147Y-66474354D01*
X140821544Y-66326784D01*
X140753624Y-66162812D01*
X140719000Y-65988741D01*
X140719000Y-65811259D01*
X140753624Y-65637188D01*
X140821544Y-65473216D01*
X140920147Y-65325646D01*
X141045646Y-65200147D01*
X141193216Y-65101544D01*
X141357188Y-65033624D01*
X141506488Y-65003927D01*
X141531258Y-64999000D01*
X141708742Y-64999000D01*
X141733512Y-65003927D01*
G37*
G36*
X147601000Y-66801000D02*
G01*
X145799000Y-66801000D01*
X145799000Y-64999000D01*
X147601000Y-64999000D01*
X147601000Y-66801000D01*
G37*
G36*
X144273512Y-65003927D02*
G01*
X144422812Y-65033624D01*
X144586784Y-65101544D01*
X144734354Y-65200147D01*
X144859853Y-65325646D01*
X144958456Y-65473216D01*
X145026376Y-65637188D01*
X145061000Y-65811259D01*
X145061000Y-65988741D01*
X145026376Y-66162812D01*
X144958456Y-66326784D01*
X144859853Y-66474354D01*
X144734354Y-66599853D01*
X144586784Y-66698456D01*
X144422812Y-66766376D01*
X144273512Y-66796073D01*
X144248742Y-66801000D01*
X144071258Y-66801000D01*
X144046488Y-66796073D01*
X143897188Y-66766376D01*
X143733216Y-66698456D01*
X143585646Y-66599853D01*
X143460147Y-66474354D01*
X143361544Y-66326784D01*
X143293624Y-66162812D01*
X143259000Y-65988741D01*
X143259000Y-65811259D01*
X143293624Y-65637188D01*
X143361544Y-65473216D01*
X143460147Y-65325646D01*
X143585646Y-65200147D01*
X143733216Y-65101544D01*
X143897188Y-65033624D01*
X144046488Y-65003927D01*
X144071258Y-64999000D01*
X144248742Y-64999000D01*
X144273512Y-65003927D01*
G37*
G36*
X150582022Y-64963927D02*
G01*
X150731322Y-64993624D01*
X150895294Y-65061544D01*
X151042864Y-65160147D01*
X151168363Y-65285646D01*
X151266966Y-65433216D01*
X151334886Y-65597188D01*
X151369510Y-65771259D01*
X151369510Y-65948741D01*
X151334886Y-66122812D01*
X151266966Y-66286784D01*
X151168363Y-66434354D01*
X151042864Y-66559853D01*
X150895294Y-66658456D01*
X150731322Y-66726376D01*
X150582022Y-66756073D01*
X150557252Y-66761000D01*
X150379768Y-66761000D01*
X150354998Y-66756073D01*
X150205698Y-66726376D01*
X150041726Y-66658456D01*
X149894156Y-66559853D01*
X149768657Y-66434354D01*
X149670054Y-66286784D01*
X149602134Y-66122812D01*
X149567510Y-65948741D01*
X149567510Y-65771259D01*
X149602134Y-65597188D01*
X149670054Y-65433216D01*
X149768657Y-65285646D01*
X149894156Y-65160147D01*
X150041726Y-65061544D01*
X150205698Y-64993624D01*
X150354998Y-64963927D01*
X150379768Y-64959000D01*
X150557252Y-64959000D01*
X150582022Y-64963927D01*
G37*
G36*
X124832022Y-61653927D02*
G01*
X124981322Y-61683624D01*
X125145294Y-61751544D01*
X125292864Y-61850147D01*
X125418363Y-61975646D01*
X125516966Y-62123216D01*
X125584886Y-62287188D01*
X125619510Y-62461259D01*
X125619510Y-62638741D01*
X125584886Y-62812812D01*
X125516966Y-62976784D01*
X125418363Y-63124354D01*
X125292864Y-63249853D01*
X125145294Y-63348456D01*
X124981322Y-63416376D01*
X124832022Y-63446073D01*
X124807252Y-63451000D01*
X124629768Y-63451000D01*
X124604998Y-63446073D01*
X124455698Y-63416376D01*
X124291726Y-63348456D01*
X124144156Y-63249853D01*
X124018657Y-63124354D01*
X123920054Y-62976784D01*
X123852134Y-62812812D01*
X123817510Y-62638741D01*
X123817510Y-62461259D01*
X123852134Y-62287188D01*
X123920054Y-62123216D01*
X124018657Y-61975646D01*
X124144156Y-61850147D01*
X124291726Y-61751544D01*
X124455698Y-61683624D01*
X124604998Y-61653927D01*
X124629768Y-61649000D01*
X124807252Y-61649000D01*
X124832022Y-61653927D01*
G37*
G36*
X153832022Y-61653927D02*
G01*
X153981322Y-61683624D01*
X154145294Y-61751544D01*
X154292864Y-61850147D01*
X154418363Y-61975646D01*
X154516966Y-62123216D01*
X154584886Y-62287188D01*
X154619510Y-62461259D01*
X154619510Y-62638741D01*
X154584886Y-62812812D01*
X154516966Y-62976784D01*
X154418363Y-63124354D01*
X154292864Y-63249853D01*
X154145294Y-63348456D01*
X153981322Y-63416376D01*
X153832022Y-63446073D01*
X153807252Y-63451000D01*
X153629768Y-63451000D01*
X153604998Y-63446073D01*
X153455698Y-63416376D01*
X153291726Y-63348456D01*
X153144156Y-63249853D01*
X153018657Y-63124354D01*
X152920054Y-62976784D01*
X152852134Y-62812812D01*
X152817510Y-62638741D01*
X152817510Y-62461259D01*
X152852134Y-62287188D01*
X152920054Y-62123216D01*
X153018657Y-61975646D01*
X153144156Y-61850147D01*
X153291726Y-61751544D01*
X153455698Y-61683624D01*
X153604998Y-61653927D01*
X153629768Y-61649000D01*
X153807252Y-61649000D01*
X153832022Y-61653927D01*
G37*
G36*
X158332022Y-61653927D02*
G01*
X158481322Y-61683624D01*
X158645294Y-61751544D01*
X158792864Y-61850147D01*
X158918363Y-61975646D01*
X159016966Y-62123216D01*
X159084886Y-62287188D01*
X159119510Y-62461259D01*
X159119510Y-62638741D01*
X159084886Y-62812812D01*
X159016966Y-62976784D01*
X158918363Y-63124354D01*
X158792864Y-63249853D01*
X158645294Y-63348456D01*
X158481322Y-63416376D01*
X158332022Y-63446073D01*
X158307252Y-63451000D01*
X158129768Y-63451000D01*
X158104998Y-63446073D01*
X157955698Y-63416376D01*
X157791726Y-63348456D01*
X157644156Y-63249853D01*
X157518657Y-63124354D01*
X157420054Y-62976784D01*
X157352134Y-62812812D01*
X157317510Y-62638741D01*
X157317510Y-62461259D01*
X157352134Y-62287188D01*
X157420054Y-62123216D01*
X157518657Y-61975646D01*
X157644156Y-61850147D01*
X157791726Y-61751544D01*
X157955698Y-61683624D01*
X158104998Y-61653927D01*
X158129768Y-61649000D01*
X158307252Y-61649000D01*
X158332022Y-61653927D01*
G37*
G36*
X129332022Y-61653927D02*
G01*
X129481322Y-61683624D01*
X129645294Y-61751544D01*
X129792864Y-61850147D01*
X129918363Y-61975646D01*
X130016966Y-62123216D01*
X130084886Y-62287188D01*
X130119510Y-62461259D01*
X130119510Y-62638741D01*
X130084886Y-62812812D01*
X130016966Y-62976784D01*
X129918363Y-63124354D01*
X129792864Y-63249853D01*
X129645294Y-63348456D01*
X129481322Y-63416376D01*
X129332022Y-63446073D01*
X129307252Y-63451000D01*
X129129768Y-63451000D01*
X129104998Y-63446073D01*
X128955698Y-63416376D01*
X128791726Y-63348456D01*
X128644156Y-63249853D01*
X128518657Y-63124354D01*
X128420054Y-62976784D01*
X128352134Y-62812812D01*
X128317510Y-62638741D01*
X128317510Y-62461259D01*
X128352134Y-62287188D01*
X128420054Y-62123216D01*
X128518657Y-61975646D01*
X128644156Y-61850147D01*
X128791726Y-61751544D01*
X128955698Y-61683624D01*
X129104998Y-61653927D01*
X129129768Y-61649000D01*
X129307252Y-61649000D01*
X129332022Y-61653927D01*
G37*
M02*
