G04 #@! TF.GenerationSoftware,KiCad,Pcbnew,(5.1.5)-3*
G04 #@! TF.CreationDate,2020-11-07T15:15:16-05:00*
G04 #@! TF.ProjectId,PRoMo,50526f4d-6f2e-46b6-9963-61645f706362,rev?*
G04 #@! TF.SameCoordinates,Original*
G04 #@! TF.FileFunction,Profile,NP*
%FSLAX46Y46*%
G04 Gerber Fmt 4.6, Leading zero omitted, Abs format (unit mm)*
G04 Created by KiCad (PCBNEW (5.1.5)-3) date 2020-11-07 15:15:16*
%MOMM*%
%LPD*%
G04 APERTURE LIST*
%ADD10C,0.200000*%
G04 APERTURE END LIST*
D10*
X190468510Y-127800000D02*
X190468510Y-132888713D01*
X90468510Y-132888713D02*
X90468510Y-127800000D01*
X117879795Y-160299999D02*
G75*
G02X90468510Y-132888713I22588715J49999999D01*
G01*
X163057223Y-160300000D02*
X117879797Y-160300000D01*
X190468509Y-132888715D02*
G75*
G02X163057223Y-160300000I-49999999J22588715D01*
G01*
X163057225Y-60300001D02*
G75*
G02X190468510Y-87711287I-22588715J-49999999D01*
G01*
X183334255Y-127800000D02*
X190468510Y-127800000D01*
X183334255Y-92800000D02*
X183334255Y-127800000D01*
X97602765Y-127800000D02*
X97602765Y-92800000D01*
X190468510Y-92800000D02*
X183334255Y-92800000D01*
X90468510Y-92800000D02*
X90468511Y-87711287D01*
X90468510Y-127800000D02*
X97602765Y-127800000D01*
X190468510Y-87711287D02*
X190468510Y-92800000D01*
X90468511Y-87711286D02*
G75*
G02X117879797Y-60300001I49999999J-22588714D01*
G01*
X103602765Y-101300000D02*
G75*
G03X103602765Y-101300000I-1500000J0D01*
G01*
X146868510Y-144800000D02*
G75*
G03X146868510Y-144800000I-6400000J0D01*
G01*
X97602765Y-92800000D02*
X90468510Y-92800000D01*
X131968510Y-75800000D02*
G75*
G03X131968510Y-75800000I-1500000J0D01*
G01*
X103602765Y-119300000D02*
G75*
G03X103602765Y-119300000I-1500000J0D01*
G01*
X151968510Y-75800000D02*
G75*
G03X151968510Y-75800000I-1500000J0D01*
G01*
X180334255Y-101300000D02*
G75*
G03X180334255Y-101300000I-1500000J0D01*
G01*
X151968510Y-144800000D02*
G75*
G03X151968510Y-144800000I-1500000J0D01*
G01*
X131968510Y-144800000D02*
G75*
G03X131968510Y-144800000I-1500000J0D01*
G01*
X117879797Y-60300001D02*
X163057223Y-60300000D01*
X146868510Y-75800000D02*
G75*
G03X146868510Y-75800000I-6400000J0D01*
G01*
X180334255Y-119300000D02*
G75*
G03X180334255Y-119300000I-1500000J0D01*
G01*
M02*
