G04 #@! TF.GenerationSoftware,KiCad,Pcbnew,(5.1.5)-3*
G04 #@! TF.CreationDate,2020-11-07T15:15:16-05:00*
G04 #@! TF.ProjectId,PRoMo,50526f4d-6f2e-46b6-9963-61645f706362,rev?*
G04 #@! TF.SameCoordinates,Original*
G04 #@! TF.FileFunction,Legend,Top*
G04 #@! TF.FilePolarity,Positive*
%FSLAX46Y46*%
G04 Gerber Fmt 4.6, Leading zero omitted, Abs format (unit mm)*
G04 Created by KiCad (PCBNEW (5.1.5)-3) date 2020-11-07 15:15:16*
%MOMM*%
%LPD*%
G04 APERTURE LIST*
%ADD10C,0.160000*%
%ADD11C,0.120000*%
%ADD12C,0.150000*%
G04 APERTURE END LIST*
D10*
X155000000Y-90200000D02*
X155000000Y-94900000D01*
X155000000Y-90200000D02*
X163300000Y-90200000D01*
X156000000Y-85500000D02*
X156000000Y-86000000D01*
X155692095Y-91972380D02*
X155692095Y-90972380D01*
X156073047Y-90972380D01*
X156168285Y-91020000D01*
X156215904Y-91067619D01*
X156263523Y-91162857D01*
X156263523Y-91305714D01*
X156215904Y-91400952D01*
X156168285Y-91448571D01*
X156073047Y-91496190D01*
X155692095Y-91496190D01*
X157263523Y-91972380D02*
X156930190Y-91496190D01*
X156692095Y-91972380D02*
X156692095Y-90972380D01*
X157073047Y-90972380D01*
X157168285Y-91020000D01*
X157215904Y-91067619D01*
X157263523Y-91162857D01*
X157263523Y-91305714D01*
X157215904Y-91400952D01*
X157168285Y-91448571D01*
X157073047Y-91496190D01*
X156692095Y-91496190D01*
X157834952Y-91972380D02*
X157739714Y-91924761D01*
X157692095Y-91877142D01*
X157644476Y-91781904D01*
X157644476Y-91496190D01*
X157692095Y-91400952D01*
X157739714Y-91353333D01*
X157834952Y-91305714D01*
X157977809Y-91305714D01*
X158073047Y-91353333D01*
X158120666Y-91400952D01*
X158168285Y-91496190D01*
X158168285Y-91781904D01*
X158120666Y-91877142D01*
X158073047Y-91924761D01*
X157977809Y-91972380D01*
X157834952Y-91972380D01*
X158596857Y-91972380D02*
X158596857Y-90972380D01*
X158930190Y-91686666D01*
X159263523Y-90972380D01*
X159263523Y-91972380D01*
X159882571Y-91972380D02*
X159787333Y-91924761D01*
X159739714Y-91877142D01*
X159692095Y-91781904D01*
X159692095Y-91496190D01*
X159739714Y-91400952D01*
X159787333Y-91353333D01*
X159882571Y-91305714D01*
X160025428Y-91305714D01*
X160120666Y-91353333D01*
X160168285Y-91400952D01*
X160215904Y-91496190D01*
X160215904Y-91781904D01*
X160168285Y-91877142D01*
X160120666Y-91924761D01*
X160025428Y-91972380D01*
X159882571Y-91972380D01*
X155596857Y-92965714D02*
X155834952Y-93632380D01*
X156073047Y-92965714D01*
X156977809Y-93632380D02*
X156406380Y-93632380D01*
X156692095Y-93632380D02*
X156692095Y-92632380D01*
X156596857Y-92775238D01*
X156501619Y-92870476D01*
X156406380Y-92918095D01*
X157406380Y-93537142D02*
X157454000Y-93584761D01*
X157406380Y-93632380D01*
X157358761Y-93584761D01*
X157406380Y-93537142D01*
X157406380Y-93632380D01*
X158073047Y-92632380D02*
X158168285Y-92632380D01*
X158263523Y-92680000D01*
X158311142Y-92727619D01*
X158358761Y-92822857D01*
X158406380Y-93013333D01*
X158406380Y-93251428D01*
X158358761Y-93441904D01*
X158311142Y-93537142D01*
X158263523Y-93584761D01*
X158168285Y-93632380D01*
X158073047Y-93632380D01*
X157977809Y-93584761D01*
X157930190Y-93537142D01*
X157882571Y-93441904D01*
X157834952Y-93251428D01*
X157834952Y-93013333D01*
X157882571Y-92822857D01*
X157930190Y-92727619D01*
X157977809Y-92680000D01*
X158073047Y-92632380D01*
X174314285Y-79352380D02*
X174314285Y-78352380D01*
X174695238Y-78352380D01*
X174790476Y-78400000D01*
X174838095Y-78447619D01*
X174885714Y-78542857D01*
X174885714Y-78685714D01*
X174838095Y-78780952D01*
X174790476Y-78828571D01*
X174695238Y-78876190D01*
X174314285Y-78876190D01*
X175885714Y-79352380D02*
X175552380Y-78876190D01*
X175314285Y-79352380D02*
X175314285Y-78352380D01*
X175695238Y-78352380D01*
X175790476Y-78400000D01*
X175838095Y-78447619D01*
X175885714Y-78542857D01*
X175885714Y-78685714D01*
X175838095Y-78780952D01*
X175790476Y-78828571D01*
X175695238Y-78876190D01*
X175314285Y-78876190D01*
X176504761Y-78352380D02*
X176695238Y-78352380D01*
X176790476Y-78400000D01*
X176885714Y-78495238D01*
X176933333Y-78685714D01*
X176933333Y-79019047D01*
X176885714Y-79209523D01*
X176790476Y-79304761D01*
X176695238Y-79352380D01*
X176504761Y-79352380D01*
X176409523Y-79304761D01*
X176314285Y-79209523D01*
X176266666Y-79019047D01*
X176266666Y-78685714D01*
X176314285Y-78495238D01*
X176409523Y-78400000D01*
X176504761Y-78352380D01*
X177885714Y-78400000D02*
X177790476Y-78352380D01*
X177647619Y-78352380D01*
X177504761Y-78400000D01*
X177409523Y-78495238D01*
X177361904Y-78590476D01*
X177314285Y-78780952D01*
X177314285Y-78923809D01*
X177361904Y-79114285D01*
X177409523Y-79209523D01*
X177504761Y-79304761D01*
X177647619Y-79352380D01*
X177742857Y-79352380D01*
X177885714Y-79304761D01*
X177933333Y-79257142D01*
X177933333Y-78923809D01*
X177742857Y-78923809D01*
X166523809Y-93152380D02*
X166523809Y-92152380D01*
X166761904Y-92152380D01*
X166904761Y-92200000D01*
X167000000Y-92295238D01*
X167047619Y-92390476D01*
X167095238Y-92580952D01*
X167095238Y-92723809D01*
X167047619Y-92914285D01*
X167000000Y-93009523D01*
X166904761Y-93104761D01*
X166761904Y-93152380D01*
X166523809Y-93152380D01*
X167523809Y-93152380D02*
X167523809Y-92152380D01*
X168190476Y-92152380D02*
X168380952Y-92152380D01*
X168476190Y-92200000D01*
X168571428Y-92295238D01*
X168619047Y-92485714D01*
X168619047Y-92819047D01*
X168571428Y-93009523D01*
X168476190Y-93104761D01*
X168380952Y-93152380D01*
X168190476Y-93152380D01*
X168095238Y-93104761D01*
X168000000Y-93009523D01*
X167952380Y-92819047D01*
X167952380Y-92485714D01*
X168000000Y-92295238D01*
X168095238Y-92200000D01*
X168190476Y-92152380D01*
X169571428Y-93152380D02*
X169000000Y-93152380D01*
X169285714Y-93152380D02*
X169285714Y-92152380D01*
X169190476Y-92295238D01*
X169095238Y-92390476D01*
X169000000Y-92438095D01*
X170190476Y-92152380D02*
X170285714Y-92152380D01*
X170380952Y-92200000D01*
X170428571Y-92247619D01*
X170476190Y-92342857D01*
X170523809Y-92533333D01*
X170523809Y-92771428D01*
X170476190Y-92961904D01*
X170428571Y-93057142D01*
X170380952Y-93104761D01*
X170285714Y-93152380D01*
X170190476Y-93152380D01*
X170095238Y-93104761D01*
X170047619Y-93057142D01*
X170000000Y-92961904D01*
X169952380Y-92771428D01*
X169952380Y-92533333D01*
X170000000Y-92342857D01*
X170047619Y-92247619D01*
X170095238Y-92200000D01*
X170190476Y-92152380D01*
X166423809Y-83052380D02*
X166423809Y-82052380D01*
X166661904Y-82052380D01*
X166804761Y-82100000D01*
X166900000Y-82195238D01*
X166947619Y-82290476D01*
X166995238Y-82480952D01*
X166995238Y-82623809D01*
X166947619Y-82814285D01*
X166900000Y-82909523D01*
X166804761Y-83004761D01*
X166661904Y-83052380D01*
X166423809Y-83052380D01*
X167423809Y-83052380D02*
X167423809Y-82052380D01*
X168090476Y-82052380D02*
X168280952Y-82052380D01*
X168376190Y-82100000D01*
X168471428Y-82195238D01*
X168519047Y-82385714D01*
X168519047Y-82719047D01*
X168471428Y-82909523D01*
X168376190Y-83004761D01*
X168280952Y-83052380D01*
X168090476Y-83052380D01*
X167995238Y-83004761D01*
X167900000Y-82909523D01*
X167852380Y-82719047D01*
X167852380Y-82385714D01*
X167900000Y-82195238D01*
X167995238Y-82100000D01*
X168090476Y-82052380D01*
X169471428Y-83052380D02*
X168900000Y-83052380D01*
X169185714Y-83052380D02*
X169185714Y-82052380D01*
X169090476Y-82195238D01*
X168995238Y-82290476D01*
X168900000Y-82338095D01*
X170423809Y-83052380D02*
X169852380Y-83052380D01*
X170138095Y-83052380D02*
X170138095Y-82052380D01*
X170042857Y-82195238D01*
X169947619Y-82290476D01*
X169852380Y-82338095D01*
X166423809Y-72852380D02*
X166423809Y-71852380D01*
X166661904Y-71852380D01*
X166804761Y-71900000D01*
X166900000Y-71995238D01*
X166947619Y-72090476D01*
X166995238Y-72280952D01*
X166995238Y-72423809D01*
X166947619Y-72614285D01*
X166900000Y-72709523D01*
X166804761Y-72804761D01*
X166661904Y-72852380D01*
X166423809Y-72852380D01*
X167423809Y-72852380D02*
X167423809Y-71852380D01*
X168090476Y-71852380D02*
X168280952Y-71852380D01*
X168376190Y-71900000D01*
X168471428Y-71995238D01*
X168519047Y-72185714D01*
X168519047Y-72519047D01*
X168471428Y-72709523D01*
X168376190Y-72804761D01*
X168280952Y-72852380D01*
X168090476Y-72852380D01*
X167995238Y-72804761D01*
X167900000Y-72709523D01*
X167852380Y-72519047D01*
X167852380Y-72185714D01*
X167900000Y-71995238D01*
X167995238Y-71900000D01*
X168090476Y-71852380D01*
X169471428Y-72852380D02*
X168900000Y-72852380D01*
X169185714Y-72852380D02*
X169185714Y-71852380D01*
X169090476Y-71995238D01*
X168995238Y-72090476D01*
X168900000Y-72138095D01*
X169852380Y-71947619D02*
X169900000Y-71900000D01*
X169995238Y-71852380D01*
X170233333Y-71852380D01*
X170328571Y-71900000D01*
X170376190Y-71947619D01*
X170423809Y-72042857D01*
X170423809Y-72138095D01*
X170376190Y-72280952D01*
X169804761Y-72852380D01*
X170423809Y-72852380D01*
X106423809Y-135266666D02*
X106900000Y-135266666D01*
X106328571Y-135552380D02*
X106661904Y-134552380D01*
X106995238Y-135552380D01*
X107328571Y-135552380D02*
X107328571Y-134552380D01*
X107995238Y-134552380D02*
X108185714Y-134552380D01*
X108280952Y-134600000D01*
X108376190Y-134695238D01*
X108423809Y-134885714D01*
X108423809Y-135219047D01*
X108376190Y-135409523D01*
X108280952Y-135504761D01*
X108185714Y-135552380D01*
X107995238Y-135552380D01*
X107900000Y-135504761D01*
X107804761Y-135409523D01*
X107757142Y-135219047D01*
X107757142Y-134885714D01*
X107804761Y-134695238D01*
X107900000Y-134600000D01*
X107995238Y-134552380D01*
X108995238Y-134980952D02*
X108900000Y-134933333D01*
X108852380Y-134885714D01*
X108804761Y-134790476D01*
X108804761Y-134742857D01*
X108852380Y-134647619D01*
X108900000Y-134600000D01*
X108995238Y-134552380D01*
X109185714Y-134552380D01*
X109280952Y-134600000D01*
X109328571Y-134647619D01*
X109376190Y-134742857D01*
X109376190Y-134790476D01*
X109328571Y-134885714D01*
X109280952Y-134933333D01*
X109185714Y-134980952D01*
X108995238Y-134980952D01*
X108900000Y-135028571D01*
X108852380Y-135076190D01*
X108804761Y-135171428D01*
X108804761Y-135361904D01*
X108852380Y-135457142D01*
X108900000Y-135504761D01*
X108995238Y-135552380D01*
X109185714Y-135552380D01*
X109280952Y-135504761D01*
X109328571Y-135457142D01*
X109376190Y-135361904D01*
X109376190Y-135171428D01*
X109328571Y-135076190D01*
X109280952Y-135028571D01*
X109185714Y-134980952D01*
X102423809Y-135266666D02*
X102900000Y-135266666D01*
X102328571Y-135552380D02*
X102661904Y-134552380D01*
X102995238Y-135552380D01*
X103328571Y-135552380D02*
X103328571Y-134552380D01*
X103995238Y-134552380D02*
X104185714Y-134552380D01*
X104280952Y-134600000D01*
X104376190Y-134695238D01*
X104423809Y-134885714D01*
X104423809Y-135219047D01*
X104376190Y-135409523D01*
X104280952Y-135504761D01*
X104185714Y-135552380D01*
X103995238Y-135552380D01*
X103900000Y-135504761D01*
X103804761Y-135409523D01*
X103757142Y-135219047D01*
X103757142Y-134885714D01*
X103804761Y-134695238D01*
X103900000Y-134600000D01*
X103995238Y-134552380D01*
X104900000Y-135552380D02*
X105090476Y-135552380D01*
X105185714Y-135504761D01*
X105233333Y-135457142D01*
X105328571Y-135314285D01*
X105376190Y-135123809D01*
X105376190Y-134742857D01*
X105328571Y-134647619D01*
X105280952Y-134600000D01*
X105185714Y-134552380D01*
X104995238Y-134552380D01*
X104900000Y-134600000D01*
X104852380Y-134647619D01*
X104804761Y-134742857D01*
X104804761Y-134980952D01*
X104852380Y-135076190D01*
X104900000Y-135123809D01*
X104995238Y-135171428D01*
X105185714Y-135171428D01*
X105280952Y-135123809D01*
X105328571Y-135076190D01*
X105376190Y-134980952D01*
X123247619Y-79666666D02*
X123723809Y-79666666D01*
X123152380Y-79952380D02*
X123485714Y-78952380D01*
X123819047Y-79952380D01*
X124152380Y-79952380D02*
X124152380Y-78952380D01*
X124819047Y-78952380D02*
X125009523Y-78952380D01*
X125104761Y-79000000D01*
X125200000Y-79095238D01*
X125247619Y-79285714D01*
X125247619Y-79619047D01*
X125200000Y-79809523D01*
X125104761Y-79904761D01*
X125009523Y-79952380D01*
X124819047Y-79952380D01*
X124723809Y-79904761D01*
X124628571Y-79809523D01*
X124580952Y-79619047D01*
X124580952Y-79285714D01*
X124628571Y-79095238D01*
X124723809Y-79000000D01*
X124819047Y-78952380D01*
X126200000Y-79952380D02*
X125628571Y-79952380D01*
X125914285Y-79952380D02*
X125914285Y-78952380D01*
X125819047Y-79095238D01*
X125723809Y-79190476D01*
X125628571Y-79238095D01*
X127057142Y-79285714D02*
X127057142Y-79952380D01*
X126819047Y-78904761D02*
X126580952Y-79619047D01*
X127200000Y-79619047D01*
X118247619Y-79766666D02*
X118723809Y-79766666D01*
X118152380Y-80052380D02*
X118485714Y-79052380D01*
X118819047Y-80052380D01*
X119152380Y-80052380D02*
X119152380Y-79052380D01*
X119819047Y-79052380D02*
X120009523Y-79052380D01*
X120104761Y-79100000D01*
X120200000Y-79195238D01*
X120247619Y-79385714D01*
X120247619Y-79719047D01*
X120200000Y-79909523D01*
X120104761Y-80004761D01*
X120009523Y-80052380D01*
X119819047Y-80052380D01*
X119723809Y-80004761D01*
X119628571Y-79909523D01*
X119580952Y-79719047D01*
X119580952Y-79385714D01*
X119628571Y-79195238D01*
X119723809Y-79100000D01*
X119819047Y-79052380D01*
X121200000Y-80052380D02*
X120628571Y-80052380D01*
X120914285Y-80052380D02*
X120914285Y-79052380D01*
X120819047Y-79195238D01*
X120723809Y-79290476D01*
X120628571Y-79338095D01*
X122104761Y-79052380D02*
X121628571Y-79052380D01*
X121580952Y-79528571D01*
X121628571Y-79480952D01*
X121723809Y-79433333D01*
X121961904Y-79433333D01*
X122057142Y-79480952D01*
X122104761Y-79528571D01*
X122152380Y-79623809D01*
X122152380Y-79861904D01*
X122104761Y-79957142D01*
X122057142Y-80004761D01*
X121961904Y-80052380D01*
X121723809Y-80052380D01*
X121628571Y-80004761D01*
X121580952Y-79957142D01*
X114023809Y-80052380D02*
X114023809Y-79052380D01*
X114452380Y-79147619D02*
X114500000Y-79100000D01*
X114595238Y-79052380D01*
X114833333Y-79052380D01*
X114928571Y-79100000D01*
X114976190Y-79147619D01*
X115023809Y-79242857D01*
X115023809Y-79338095D01*
X114976190Y-79480952D01*
X114404761Y-80052380D01*
X115023809Y-80052380D01*
X116023809Y-79957142D02*
X115976190Y-80004761D01*
X115833333Y-80052380D01*
X115738095Y-80052380D01*
X115595238Y-80004761D01*
X115500000Y-79909523D01*
X115452380Y-79814285D01*
X115404761Y-79623809D01*
X115404761Y-79480952D01*
X115452380Y-79290476D01*
X115500000Y-79195238D01*
X115595238Y-79100000D01*
X115738095Y-79052380D01*
X115833333Y-79052380D01*
X115976190Y-79100000D01*
X116023809Y-79147619D01*
X108676190Y-80004761D02*
X108819047Y-80052380D01*
X109057142Y-80052380D01*
X109152380Y-80004761D01*
X109200000Y-79957142D01*
X109247619Y-79861904D01*
X109247619Y-79766666D01*
X109200000Y-79671428D01*
X109152380Y-79623809D01*
X109057142Y-79576190D01*
X108866666Y-79528571D01*
X108771428Y-79480952D01*
X108723809Y-79433333D01*
X108676190Y-79338095D01*
X108676190Y-79242857D01*
X108723809Y-79147619D01*
X108771428Y-79100000D01*
X108866666Y-79052380D01*
X109104761Y-79052380D01*
X109247619Y-79100000D01*
X109676190Y-80052380D02*
X109676190Y-79052380D01*
X110057142Y-79052380D01*
X110152380Y-79100000D01*
X110200000Y-79147619D01*
X110247619Y-79242857D01*
X110247619Y-79385714D01*
X110200000Y-79480952D01*
X110152380Y-79528571D01*
X110057142Y-79576190D01*
X109676190Y-79576190D01*
X110676190Y-80052380D02*
X110676190Y-79052380D01*
X103404761Y-79052380D02*
X103404761Y-79861904D01*
X103452380Y-79957142D01*
X103500000Y-80004761D01*
X103595238Y-80052380D01*
X103785714Y-80052380D01*
X103880952Y-80004761D01*
X103928571Y-79957142D01*
X103976190Y-79861904D01*
X103976190Y-79052380D01*
X104404761Y-79766666D02*
X104880952Y-79766666D01*
X104309523Y-80052380D02*
X104642857Y-79052380D01*
X104976190Y-80052380D01*
X105880952Y-80052380D02*
X105547619Y-79576190D01*
X105309523Y-80052380D02*
X105309523Y-79052380D01*
X105690476Y-79052380D01*
X105785714Y-79100000D01*
X105833333Y-79147619D01*
X105880952Y-79242857D01*
X105880952Y-79385714D01*
X105833333Y-79480952D01*
X105785714Y-79528571D01*
X105690476Y-79576190D01*
X105309523Y-79576190D01*
X106166666Y-79052380D02*
X106738095Y-79052380D01*
X106452380Y-80052380D02*
X106452380Y-79052380D01*
X105166666Y-139852380D02*
X105500000Y-140852380D01*
X105833333Y-139852380D01*
X106166666Y-139852380D02*
X106166666Y-140661904D01*
X106214285Y-140757142D01*
X106261904Y-140804761D01*
X106357142Y-140852380D01*
X106547619Y-140852380D01*
X106642857Y-140804761D01*
X106690476Y-140757142D01*
X106738095Y-140661904D01*
X106738095Y-139852380D01*
X107166666Y-140804761D02*
X107309523Y-140852380D01*
X107547619Y-140852380D01*
X107642857Y-140804761D01*
X107690476Y-140757142D01*
X107738095Y-140661904D01*
X107738095Y-140566666D01*
X107690476Y-140471428D01*
X107642857Y-140423809D01*
X107547619Y-140376190D01*
X107357142Y-140328571D01*
X107261904Y-140280952D01*
X107214285Y-140233333D01*
X107166666Y-140138095D01*
X107166666Y-140042857D01*
X107214285Y-139947619D01*
X107261904Y-139900000D01*
X107357142Y-139852380D01*
X107595238Y-139852380D01*
X107738095Y-139900000D01*
X108500000Y-140328571D02*
X108642857Y-140376190D01*
X108690476Y-140423809D01*
X108738095Y-140519047D01*
X108738095Y-140661904D01*
X108690476Y-140757142D01*
X108642857Y-140804761D01*
X108547619Y-140852380D01*
X108166666Y-140852380D01*
X108166666Y-139852380D01*
X108500000Y-139852380D01*
X108595238Y-139900000D01*
X108642857Y-139947619D01*
X108690476Y-140042857D01*
X108690476Y-140138095D01*
X108642857Y-140233333D01*
X108595238Y-140280952D01*
X108500000Y-140328571D01*
X108166666Y-140328571D01*
X148476190Y-157552380D02*
X148666666Y-157552380D01*
X148761904Y-157600000D01*
X148857142Y-157695238D01*
X148904761Y-157885714D01*
X148904761Y-158219047D01*
X148857142Y-158409523D01*
X148761904Y-158504761D01*
X148666666Y-158552380D01*
X148476190Y-158552380D01*
X148380952Y-158504761D01*
X148285714Y-158409523D01*
X148238095Y-158219047D01*
X148238095Y-157885714D01*
X148285714Y-157695238D01*
X148380952Y-157600000D01*
X148476190Y-157552380D01*
X149333333Y-158552380D02*
X149333333Y-157552380D01*
X149904761Y-158552380D01*
X149904761Y-157552380D01*
X151095238Y-157504761D02*
X150238095Y-158790476D01*
X151619047Y-157552380D02*
X151809523Y-157552380D01*
X151904761Y-157600000D01*
X152000000Y-157695238D01*
X152047619Y-157885714D01*
X152047619Y-158219047D01*
X152000000Y-158409523D01*
X151904761Y-158504761D01*
X151809523Y-158552380D01*
X151619047Y-158552380D01*
X151523809Y-158504761D01*
X151428571Y-158409523D01*
X151380952Y-158219047D01*
X151380952Y-157885714D01*
X151428571Y-157695238D01*
X151523809Y-157600000D01*
X151619047Y-157552380D01*
X152809523Y-158028571D02*
X152476190Y-158028571D01*
X152476190Y-158552380D02*
X152476190Y-157552380D01*
X152952380Y-157552380D01*
X153666666Y-158028571D02*
X153333333Y-158028571D01*
X153333333Y-158552380D02*
X153333333Y-157552380D01*
X153809523Y-157552380D01*
X148366666Y-101852380D02*
X148366666Y-100852380D01*
X148700000Y-101566666D01*
X149033333Y-100852380D01*
X149033333Y-101852380D01*
X149509523Y-101852380D02*
X149509523Y-100852380D01*
X149747619Y-100852380D01*
X149890476Y-100900000D01*
X149985714Y-100995238D01*
X150033333Y-101090476D01*
X150080952Y-101280952D01*
X150080952Y-101423809D01*
X150033333Y-101614285D01*
X149985714Y-101709523D01*
X149890476Y-101804761D01*
X149747619Y-101852380D01*
X149509523Y-101852380D01*
X130766666Y-101952380D02*
X130766666Y-100952380D01*
X131100000Y-101666666D01*
X131433333Y-100952380D01*
X131433333Y-101952380D01*
X132433333Y-101000000D02*
X132338095Y-100952380D01*
X132195238Y-100952380D01*
X132052380Y-101000000D01*
X131957142Y-101095238D01*
X131909523Y-101190476D01*
X131861904Y-101380952D01*
X131861904Y-101523809D01*
X131909523Y-101714285D01*
X131957142Y-101809523D01*
X132052380Y-101904761D01*
X132195238Y-101952380D01*
X132290476Y-101952380D01*
X132433333Y-101904761D01*
X132480952Y-101857142D01*
X132480952Y-101523809D01*
X132290476Y-101523809D01*
X152009523Y-131552380D02*
X151533333Y-131552380D01*
X151485714Y-132028571D01*
X151533333Y-131980952D01*
X151628571Y-131933333D01*
X151866666Y-131933333D01*
X151961904Y-131980952D01*
X152009523Y-132028571D01*
X152057142Y-132123809D01*
X152057142Y-132361904D01*
X152009523Y-132457142D01*
X151961904Y-132504761D01*
X151866666Y-132552380D01*
X151628571Y-132552380D01*
X151533333Y-132504761D01*
X151485714Y-132457142D01*
X152342857Y-131552380D02*
X152676190Y-132552380D01*
X153009523Y-131552380D01*
X151538095Y-139200000D02*
X151442857Y-139152380D01*
X151300000Y-139152380D01*
X151157142Y-139200000D01*
X151061904Y-139295238D01*
X151014285Y-139390476D01*
X150966666Y-139580952D01*
X150966666Y-139723809D01*
X151014285Y-139914285D01*
X151061904Y-140009523D01*
X151157142Y-140104761D01*
X151300000Y-140152380D01*
X151395238Y-140152380D01*
X151538095Y-140104761D01*
X151585714Y-140057142D01*
X151585714Y-139723809D01*
X151395238Y-139723809D01*
X152014285Y-140152380D02*
X152014285Y-139152380D01*
X152585714Y-140152380D01*
X152585714Y-139152380D01*
X153061904Y-140152380D02*
X153061904Y-139152380D01*
X153300000Y-139152380D01*
X153442857Y-139200000D01*
X153538095Y-139295238D01*
X153585714Y-139390476D01*
X153633333Y-139580952D01*
X153633333Y-139723809D01*
X153585714Y-139914285D01*
X153538095Y-140009523D01*
X153442857Y-140104761D01*
X153300000Y-140152380D01*
X153061904Y-140152380D01*
X128638095Y-139200000D02*
X128542857Y-139152380D01*
X128400000Y-139152380D01*
X128257142Y-139200000D01*
X128161904Y-139295238D01*
X128114285Y-139390476D01*
X128066666Y-139580952D01*
X128066666Y-139723809D01*
X128114285Y-139914285D01*
X128161904Y-140009523D01*
X128257142Y-140104761D01*
X128400000Y-140152380D01*
X128495238Y-140152380D01*
X128638095Y-140104761D01*
X128685714Y-140057142D01*
X128685714Y-139723809D01*
X128495238Y-139723809D01*
X129114285Y-140152380D02*
X129114285Y-139152380D01*
X129685714Y-140152380D01*
X129685714Y-139152380D01*
X130161904Y-140152380D02*
X130161904Y-139152380D01*
X130400000Y-139152380D01*
X130542857Y-139200000D01*
X130638095Y-139295238D01*
X130685714Y-139390476D01*
X130733333Y-139580952D01*
X130733333Y-139723809D01*
X130685714Y-139914285D01*
X130638095Y-140009523D01*
X130542857Y-140104761D01*
X130400000Y-140152380D01*
X130161904Y-140152380D01*
X128261904Y-131452380D02*
X128880952Y-131452380D01*
X128547619Y-131833333D01*
X128690476Y-131833333D01*
X128785714Y-131880952D01*
X128833333Y-131928571D01*
X128880952Y-132023809D01*
X128880952Y-132261904D01*
X128833333Y-132357142D01*
X128785714Y-132404761D01*
X128690476Y-132452380D01*
X128404761Y-132452380D01*
X128309523Y-132404761D01*
X128261904Y-132357142D01*
X129166666Y-131452380D02*
X129500000Y-132452380D01*
X129833333Y-131452380D01*
X130071428Y-131452380D02*
X130690476Y-131452380D01*
X130357142Y-131833333D01*
X130500000Y-131833333D01*
X130595238Y-131880952D01*
X130642857Y-131928571D01*
X130690476Y-132023809D01*
X130690476Y-132261904D01*
X130642857Y-132357142D01*
X130595238Y-132404761D01*
X130500000Y-132452380D01*
X130214285Y-132452380D01*
X130119047Y-132404761D01*
X130071428Y-132357142D01*
X156080952Y-145928571D02*
X156223809Y-145976190D01*
X156271428Y-146023809D01*
X156319047Y-146119047D01*
X156319047Y-146261904D01*
X156271428Y-146357142D01*
X156223809Y-146404761D01*
X156128571Y-146452380D01*
X155747619Y-146452380D01*
X155747619Y-145452380D01*
X156080952Y-145452380D01*
X156176190Y-145500000D01*
X156223809Y-145547619D01*
X156271428Y-145642857D01*
X156271428Y-145738095D01*
X156223809Y-145833333D01*
X156176190Y-145880952D01*
X156080952Y-145928571D01*
X155747619Y-145928571D01*
X156700000Y-146166666D02*
X157176190Y-146166666D01*
X156604761Y-146452380D02*
X156938095Y-145452380D01*
X157271428Y-146452380D01*
X157461904Y-145452380D02*
X158033333Y-145452380D01*
X157747619Y-146452380D02*
X157747619Y-145452380D01*
X158223809Y-145452380D02*
X158795238Y-145452380D01*
X158509523Y-146452380D02*
X158509523Y-145452380D01*
X128795238Y-71028571D02*
X128938095Y-71076190D01*
X128985714Y-71123809D01*
X129033333Y-71219047D01*
X129033333Y-71361904D01*
X128985714Y-71457142D01*
X128938095Y-71504761D01*
X128842857Y-71552380D01*
X128461904Y-71552380D01*
X128461904Y-70552380D01*
X128795238Y-70552380D01*
X128890476Y-70600000D01*
X128938095Y-70647619D01*
X128985714Y-70742857D01*
X128985714Y-70838095D01*
X128938095Y-70933333D01*
X128890476Y-70980952D01*
X128795238Y-71028571D01*
X128461904Y-71028571D01*
X129461904Y-71552380D02*
X129461904Y-70552380D01*
X129842857Y-70552380D01*
X129938095Y-70600000D01*
X129985714Y-70647619D01*
X130033333Y-70742857D01*
X130033333Y-70885714D01*
X129985714Y-70980952D01*
X129938095Y-71028571D01*
X129842857Y-71076190D01*
X129461904Y-71076190D01*
X130985714Y-71552380D02*
X130414285Y-71552380D01*
X130700000Y-71552380D02*
X130700000Y-70552380D01*
X130604761Y-70695238D01*
X130509523Y-70790476D01*
X130414285Y-70838095D01*
X155352380Y-71452380D02*
X155019047Y-70976190D01*
X154780952Y-71452380D02*
X154780952Y-70452380D01*
X155161904Y-70452380D01*
X155257142Y-70500000D01*
X155304761Y-70547619D01*
X155352380Y-70642857D01*
X155352380Y-70785714D01*
X155304761Y-70880952D01*
X155257142Y-70928571D01*
X155161904Y-70976190D01*
X154780952Y-70976190D01*
X155733333Y-71404761D02*
X155876190Y-71452380D01*
X156114285Y-71452380D01*
X156209523Y-71404761D01*
X156257142Y-71357142D01*
X156304761Y-71261904D01*
X156304761Y-71166666D01*
X156257142Y-71071428D01*
X156209523Y-71023809D01*
X156114285Y-70976190D01*
X155923809Y-70928571D01*
X155828571Y-70880952D01*
X155780952Y-70833333D01*
X155733333Y-70738095D01*
X155733333Y-70642857D01*
X155780952Y-70547619D01*
X155828571Y-70500000D01*
X155923809Y-70452380D01*
X156161904Y-70452380D01*
X156304761Y-70500000D01*
X156590476Y-70452380D02*
X157161904Y-70452380D01*
X156876190Y-71452380D02*
X156876190Y-70452380D01*
D11*
X153720280Y-88088047D02*
X157538657Y-84269670D01*
X150538299Y-84906066D02*
X153720280Y-88088047D01*
X132750000Y-69000000D02*
G75*
G03X132750000Y-69000000I-950000J0D01*
G01*
X124524000Y-118230000D02*
X124524000Y-118230000D01*
X113856000Y-118230000D02*
X124524000Y-118230000D01*
X125100000Y-117900000D02*
X125100000Y-117900000D01*
X109650000Y-117900000D02*
X125100000Y-117900000D01*
X109650000Y-147100000D02*
X109650000Y-117900000D01*
X125100000Y-147100000D02*
X109650000Y-147100000D01*
X125100000Y-117900000D02*
X125100000Y-147100000D01*
X121730000Y-118484000D02*
X121730000Y-118484000D01*
X121730000Y-120770000D02*
X121730000Y-118484000D01*
X124016000Y-120770000D02*
X121730000Y-120770000D01*
X113856000Y-118230000D02*
X113856000Y-118230000D01*
X113856000Y-123564000D02*
X113856000Y-118230000D01*
X124524000Y-123564000D02*
X113856000Y-123564000D01*
X124524000Y-118230000D02*
X124524000Y-123564000D01*
X96118510Y-84900000D02*
G75*
G03X96118510Y-84900000I-950000J0D01*
G01*
X148030000Y-65900000D02*
X148030000Y-67230000D01*
X148030000Y-67230000D02*
X146700000Y-67230000D01*
X145430000Y-67230000D02*
X132670000Y-67230000D01*
X132670000Y-64570000D02*
X132670000Y-67230000D01*
X145430000Y-64570000D02*
X132670000Y-64570000D01*
X145430000Y-64570000D02*
X145430000Y-67230000D01*
X181860000Y-90335000D02*
X181860000Y-87475000D01*
X179940000Y-90335000D02*
X181860000Y-90335000D01*
X179940000Y-87475000D02*
X179940000Y-90335000D01*
X142132258Y-115710000D02*
X142654762Y-115710000D01*
X142132258Y-114290000D02*
X142654762Y-114290000D01*
D12*
X143541511Y-128519509D02*
X143541511Y-124019509D01*
X137991511Y-129644509D02*
X137991511Y-124019509D01*
D11*
X123572510Y-124864759D02*
X122942510Y-124864759D01*
X123257510Y-124549759D02*
X123257510Y-125179759D01*
X121820510Y-131291000D02*
X121016510Y-131291000D01*
X122051510Y-131251000D02*
X120785510Y-131251000D01*
X122220510Y-131211000D02*
X120616510Y-131211000D01*
X122358510Y-131171000D02*
X120478510Y-131171000D01*
X122477510Y-131131000D02*
X120359510Y-131131000D01*
X122583510Y-131091000D02*
X120253510Y-131091000D01*
X122680510Y-131051000D02*
X120156510Y-131051000D01*
X122768510Y-131011000D02*
X120068510Y-131011000D01*
X122850510Y-130971000D02*
X119986510Y-130971000D01*
X122927510Y-130931000D02*
X119909510Y-130931000D01*
X122999510Y-130891000D02*
X119837510Y-130891000D01*
X123068510Y-130851000D02*
X119768510Y-130851000D01*
X123132510Y-130811000D02*
X119704510Y-130811000D01*
X123194510Y-130771000D02*
X119642510Y-130771000D01*
X123252510Y-130731000D02*
X119584510Y-130731000D01*
X123308510Y-130691000D02*
X119528510Y-130691000D01*
X123362510Y-130651000D02*
X119474510Y-130651000D01*
X123413510Y-130611000D02*
X119423510Y-130611000D01*
X123462510Y-130571000D02*
X119374510Y-130571000D01*
X123510510Y-130531000D02*
X119326510Y-130531000D01*
X123555510Y-130491000D02*
X119281510Y-130491000D01*
X123600510Y-130451000D02*
X119236510Y-130451000D01*
X123642510Y-130411000D02*
X119194510Y-130411000D01*
X123683510Y-130371000D02*
X119153510Y-130371000D01*
X120378510Y-130331000D02*
X119113510Y-130331000D01*
X123723510Y-130331000D02*
X122458510Y-130331000D01*
X120378510Y-130291000D02*
X119075510Y-130291000D01*
X123761510Y-130291000D02*
X122458510Y-130291000D01*
X120378510Y-130251000D02*
X119038510Y-130251000D01*
X123798510Y-130251000D02*
X122458510Y-130251000D01*
X120378510Y-130211000D02*
X119002510Y-130211000D01*
X123834510Y-130211000D02*
X122458510Y-130211000D01*
X120378510Y-130171000D02*
X118968510Y-130171000D01*
X123868510Y-130171000D02*
X122458510Y-130171000D01*
X120378510Y-130131000D02*
X118934510Y-130131000D01*
X123902510Y-130131000D02*
X122458510Y-130131000D01*
X120378510Y-130091000D02*
X118902510Y-130091000D01*
X123934510Y-130091000D02*
X122458510Y-130091000D01*
X120378510Y-130051000D02*
X118870510Y-130051000D01*
X123966510Y-130051000D02*
X122458510Y-130051000D01*
X120378510Y-130011000D02*
X118840510Y-130011000D01*
X123996510Y-130011000D02*
X122458510Y-130011000D01*
X120378510Y-129971000D02*
X118811510Y-129971000D01*
X124025510Y-129971000D02*
X122458510Y-129971000D01*
X120378510Y-129931000D02*
X118782510Y-129931000D01*
X124054510Y-129931000D02*
X122458510Y-129931000D01*
X120378510Y-129891000D02*
X118754510Y-129891000D01*
X124082510Y-129891000D02*
X122458510Y-129891000D01*
X120378510Y-129851000D02*
X118728510Y-129851000D01*
X124108510Y-129851000D02*
X122458510Y-129851000D01*
X120378510Y-129811000D02*
X118702510Y-129811000D01*
X124134510Y-129811000D02*
X122458510Y-129811000D01*
X120378510Y-129771000D02*
X118676510Y-129771000D01*
X124160510Y-129771000D02*
X122458510Y-129771000D01*
X120378510Y-129731000D02*
X118652510Y-129731000D01*
X124184510Y-129731000D02*
X122458510Y-129731000D01*
X120378510Y-129691000D02*
X118628510Y-129691000D01*
X124208510Y-129691000D02*
X122458510Y-129691000D01*
X120378510Y-129651000D02*
X118606510Y-129651000D01*
X124230510Y-129651000D02*
X122458510Y-129651000D01*
X120378510Y-129611000D02*
X118584510Y-129611000D01*
X124252510Y-129611000D02*
X122458510Y-129611000D01*
X120378510Y-129571000D02*
X118562510Y-129571000D01*
X124274510Y-129571000D02*
X122458510Y-129571000D01*
X120378510Y-129531000D02*
X118542510Y-129531000D01*
X124294510Y-129531000D02*
X122458510Y-129531000D01*
X120378510Y-129491000D02*
X118522510Y-129491000D01*
X124314510Y-129491000D02*
X122458510Y-129491000D01*
X120378510Y-129451000D02*
X118502510Y-129451000D01*
X124334510Y-129451000D02*
X122458510Y-129451000D01*
X120378510Y-129411000D02*
X118484510Y-129411000D01*
X124352510Y-129411000D02*
X122458510Y-129411000D01*
X120378510Y-129371000D02*
X118466510Y-129371000D01*
X124370510Y-129371000D02*
X122458510Y-129371000D01*
X120378510Y-129331000D02*
X118448510Y-129331000D01*
X124388510Y-129331000D02*
X122458510Y-129331000D01*
X120378510Y-129291000D02*
X118432510Y-129291000D01*
X124404510Y-129291000D02*
X122458510Y-129291000D01*
X120378510Y-129251000D02*
X118416510Y-129251000D01*
X124420510Y-129251000D02*
X122458510Y-129251000D01*
X120378510Y-129211000D02*
X118400510Y-129211000D01*
X124436510Y-129211000D02*
X122458510Y-129211000D01*
X120378510Y-129171000D02*
X118385510Y-129171000D01*
X124451510Y-129171000D02*
X122458510Y-129171000D01*
X120378510Y-129131000D02*
X118371510Y-129131000D01*
X124465510Y-129131000D02*
X122458510Y-129131000D01*
X120378510Y-129091000D02*
X118357510Y-129091000D01*
X124479510Y-129091000D02*
X122458510Y-129091000D01*
X120378510Y-129051000D02*
X118344510Y-129051000D01*
X124492510Y-129051000D02*
X122458510Y-129051000D01*
X120378510Y-129011000D02*
X118332510Y-129011000D01*
X124504510Y-129011000D02*
X122458510Y-129011000D01*
X120378510Y-128971000D02*
X118320510Y-128971000D01*
X124516510Y-128971000D02*
X122458510Y-128971000D01*
X120378510Y-128931000D02*
X118308510Y-128931000D01*
X124528510Y-128931000D02*
X122458510Y-128931000D01*
X120378510Y-128891000D02*
X118297510Y-128891000D01*
X124539510Y-128891000D02*
X122458510Y-128891000D01*
X120378510Y-128851000D02*
X118287510Y-128851000D01*
X124549510Y-128851000D02*
X122458510Y-128851000D01*
X120378510Y-128811000D02*
X118277510Y-128811000D01*
X124559510Y-128811000D02*
X122458510Y-128811000D01*
X120378510Y-128771000D02*
X118268510Y-128771000D01*
X124568510Y-128771000D02*
X122458510Y-128771000D01*
X120378510Y-128730000D02*
X118259510Y-128730000D01*
X124577510Y-128730000D02*
X122458510Y-128730000D01*
X120378510Y-128690000D02*
X118251510Y-128690000D01*
X124585510Y-128690000D02*
X122458510Y-128690000D01*
X120378510Y-128650000D02*
X118243510Y-128650000D01*
X124593510Y-128650000D02*
X122458510Y-128650000D01*
X120378510Y-128610000D02*
X118236510Y-128610000D01*
X124600510Y-128610000D02*
X122458510Y-128610000D01*
X120378510Y-128570000D02*
X118229510Y-128570000D01*
X124607510Y-128570000D02*
X122458510Y-128570000D01*
X120378510Y-128530000D02*
X118223510Y-128530000D01*
X124613510Y-128530000D02*
X122458510Y-128530000D01*
X120378510Y-128490000D02*
X118217510Y-128490000D01*
X124619510Y-128490000D02*
X122458510Y-128490000D01*
X120378510Y-128450000D02*
X118212510Y-128450000D01*
X124624510Y-128450000D02*
X122458510Y-128450000D01*
X120378510Y-128410000D02*
X118207510Y-128410000D01*
X124629510Y-128410000D02*
X122458510Y-128410000D01*
X120378510Y-128370000D02*
X118203510Y-128370000D01*
X124633510Y-128370000D02*
X122458510Y-128370000D01*
X120378510Y-128330000D02*
X118200510Y-128330000D01*
X124636510Y-128330000D02*
X122458510Y-128330000D01*
X120378510Y-128290000D02*
X118196510Y-128290000D01*
X124640510Y-128290000D02*
X122458510Y-128290000D01*
X124642510Y-128250000D02*
X118194510Y-128250000D01*
X124645510Y-128210000D02*
X118191510Y-128210000D01*
X124646510Y-128170000D02*
X118190510Y-128170000D01*
X124648510Y-128130000D02*
X118188510Y-128130000D01*
X124648510Y-128090000D02*
X118188510Y-128090000D01*
X124648510Y-128050000D02*
X118188510Y-128050000D01*
X124688510Y-128050000D02*
G75*
G03X124688510Y-128050000I-3270000J0D01*
G01*
X120818510Y-134800000D02*
G75*
G03X120818510Y-134800000I-950000J0D01*
G01*
X118018510Y-134800000D02*
G75*
G03X118018510Y-134800000I-950000J0D01*
G01*
X163238510Y-133300000D02*
G75*
G03X163238510Y-133300000I-3270000J0D01*
G01*
X159968510Y-136530000D02*
X159968510Y-130070000D01*
X159928510Y-136530000D02*
X159928510Y-130070000D01*
X159888510Y-136530000D02*
X159888510Y-130070000D01*
X159848510Y-136528000D02*
X159848510Y-130072000D01*
X159808510Y-136527000D02*
X159808510Y-130073000D01*
X159768510Y-136524000D02*
X159768510Y-130076000D01*
X159728510Y-136522000D02*
X159728510Y-134340000D01*
X159728510Y-132260000D02*
X159728510Y-130078000D01*
X159688510Y-136518000D02*
X159688510Y-134340000D01*
X159688510Y-132260000D02*
X159688510Y-130082000D01*
X159648510Y-136515000D02*
X159648510Y-134340000D01*
X159648510Y-132260000D02*
X159648510Y-130085000D01*
X159608510Y-136511000D02*
X159608510Y-134340000D01*
X159608510Y-132260000D02*
X159608510Y-130089000D01*
X159568510Y-136506000D02*
X159568510Y-134340000D01*
X159568510Y-132260000D02*
X159568510Y-130094000D01*
X159528510Y-136501000D02*
X159528510Y-134340000D01*
X159528510Y-132260000D02*
X159528510Y-130099000D01*
X159488510Y-136495000D02*
X159488510Y-134340000D01*
X159488510Y-132260000D02*
X159488510Y-130105000D01*
X159448510Y-136489000D02*
X159448510Y-134340000D01*
X159448510Y-132260000D02*
X159448510Y-130111000D01*
X159408510Y-136482000D02*
X159408510Y-134340000D01*
X159408510Y-132260000D02*
X159408510Y-130118000D01*
X159368510Y-136475000D02*
X159368510Y-134340000D01*
X159368510Y-132260000D02*
X159368510Y-130125000D01*
X159328510Y-136467000D02*
X159328510Y-134340000D01*
X159328510Y-132260000D02*
X159328510Y-130133000D01*
X159288510Y-136459000D02*
X159288510Y-134340000D01*
X159288510Y-132260000D02*
X159288510Y-130141000D01*
X159247510Y-136450000D02*
X159247510Y-134340000D01*
X159247510Y-132260000D02*
X159247510Y-130150000D01*
X159207510Y-136441000D02*
X159207510Y-134340000D01*
X159207510Y-132260000D02*
X159207510Y-130159000D01*
X159167510Y-136431000D02*
X159167510Y-134340000D01*
X159167510Y-132260000D02*
X159167510Y-130169000D01*
X159127510Y-136421000D02*
X159127510Y-134340000D01*
X159127510Y-132260000D02*
X159127510Y-130179000D01*
X159087510Y-136410000D02*
X159087510Y-134340000D01*
X159087510Y-132260000D02*
X159087510Y-130190000D01*
X159047510Y-136398000D02*
X159047510Y-134340000D01*
X159047510Y-132260000D02*
X159047510Y-130202000D01*
X159007510Y-136386000D02*
X159007510Y-134340000D01*
X159007510Y-132260000D02*
X159007510Y-130214000D01*
X158967510Y-136374000D02*
X158967510Y-134340000D01*
X158967510Y-132260000D02*
X158967510Y-130226000D01*
X158927510Y-136361000D02*
X158927510Y-134340000D01*
X158927510Y-132260000D02*
X158927510Y-130239000D01*
X158887510Y-136347000D02*
X158887510Y-134340000D01*
X158887510Y-132260000D02*
X158887510Y-130253000D01*
X158847510Y-136333000D02*
X158847510Y-134340000D01*
X158847510Y-132260000D02*
X158847510Y-130267000D01*
X158807510Y-136318000D02*
X158807510Y-134340000D01*
X158807510Y-132260000D02*
X158807510Y-130282000D01*
X158767510Y-136302000D02*
X158767510Y-134340000D01*
X158767510Y-132260000D02*
X158767510Y-130298000D01*
X158727510Y-136286000D02*
X158727510Y-134340000D01*
X158727510Y-132260000D02*
X158727510Y-130314000D01*
X158687510Y-136270000D02*
X158687510Y-134340000D01*
X158687510Y-132260000D02*
X158687510Y-130330000D01*
X158647510Y-136252000D02*
X158647510Y-134340000D01*
X158647510Y-132260000D02*
X158647510Y-130348000D01*
X158607510Y-136234000D02*
X158607510Y-134340000D01*
X158607510Y-132260000D02*
X158607510Y-130366000D01*
X158567510Y-136216000D02*
X158567510Y-134340000D01*
X158567510Y-132260000D02*
X158567510Y-130384000D01*
X158527510Y-136196000D02*
X158527510Y-134340000D01*
X158527510Y-132260000D02*
X158527510Y-130404000D01*
X158487510Y-136176000D02*
X158487510Y-134340000D01*
X158487510Y-132260000D02*
X158487510Y-130424000D01*
X158447510Y-136156000D02*
X158447510Y-134340000D01*
X158447510Y-132260000D02*
X158447510Y-130444000D01*
X158407510Y-136134000D02*
X158407510Y-134340000D01*
X158407510Y-132260000D02*
X158407510Y-130466000D01*
X158367510Y-136112000D02*
X158367510Y-134340000D01*
X158367510Y-132260000D02*
X158367510Y-130488000D01*
X158327510Y-136090000D02*
X158327510Y-134340000D01*
X158327510Y-132260000D02*
X158327510Y-130510000D01*
X158287510Y-136066000D02*
X158287510Y-134340000D01*
X158287510Y-132260000D02*
X158287510Y-130534000D01*
X158247510Y-136042000D02*
X158247510Y-134340000D01*
X158247510Y-132260000D02*
X158247510Y-130558000D01*
X158207510Y-136016000D02*
X158207510Y-134340000D01*
X158207510Y-132260000D02*
X158207510Y-130584000D01*
X158167510Y-135990000D02*
X158167510Y-134340000D01*
X158167510Y-132260000D02*
X158167510Y-130610000D01*
X158127510Y-135964000D02*
X158127510Y-134340000D01*
X158127510Y-132260000D02*
X158127510Y-130636000D01*
X158087510Y-135936000D02*
X158087510Y-134340000D01*
X158087510Y-132260000D02*
X158087510Y-130664000D01*
X158047510Y-135907000D02*
X158047510Y-134340000D01*
X158047510Y-132260000D02*
X158047510Y-130693000D01*
X158007510Y-135878000D02*
X158007510Y-134340000D01*
X158007510Y-132260000D02*
X158007510Y-130722000D01*
X157967510Y-135848000D02*
X157967510Y-134340000D01*
X157967510Y-132260000D02*
X157967510Y-130752000D01*
X157927510Y-135816000D02*
X157927510Y-134340000D01*
X157927510Y-132260000D02*
X157927510Y-130784000D01*
X157887510Y-135784000D02*
X157887510Y-134340000D01*
X157887510Y-132260000D02*
X157887510Y-130816000D01*
X157847510Y-135750000D02*
X157847510Y-134340000D01*
X157847510Y-132260000D02*
X157847510Y-130850000D01*
X157807510Y-135716000D02*
X157807510Y-134340000D01*
X157807510Y-132260000D02*
X157807510Y-130884000D01*
X157767510Y-135680000D02*
X157767510Y-134340000D01*
X157767510Y-132260000D02*
X157767510Y-130920000D01*
X157727510Y-135643000D02*
X157727510Y-134340000D01*
X157727510Y-132260000D02*
X157727510Y-130957000D01*
X157687510Y-135605000D02*
X157687510Y-134340000D01*
X157687510Y-132260000D02*
X157687510Y-130995000D01*
X157647510Y-135565000D02*
X157647510Y-131035000D01*
X157607510Y-135524000D02*
X157607510Y-131076000D01*
X157567510Y-135482000D02*
X157567510Y-131118000D01*
X157527510Y-135437000D02*
X157527510Y-131163000D01*
X157487510Y-135392000D02*
X157487510Y-131208000D01*
X157447510Y-135344000D02*
X157447510Y-131256000D01*
X157407510Y-135295000D02*
X157407510Y-131305000D01*
X157367510Y-135244000D02*
X157367510Y-131356000D01*
X157327510Y-135190000D02*
X157327510Y-131410000D01*
X157287510Y-135134000D02*
X157287510Y-131466000D01*
X157247510Y-135076000D02*
X157247510Y-131524000D01*
X157207510Y-135014000D02*
X157207510Y-131586000D01*
X157167510Y-134950000D02*
X157167510Y-131650000D01*
X157127510Y-134881000D02*
X157127510Y-131719000D01*
X157087510Y-134809000D02*
X157087510Y-131791000D01*
X157047510Y-134732000D02*
X157047510Y-131868000D01*
X157007510Y-134650000D02*
X157007510Y-131950000D01*
X156967510Y-134562000D02*
X156967510Y-132038000D01*
X156927510Y-134465000D02*
X156927510Y-132135000D01*
X156887510Y-134359000D02*
X156887510Y-132241000D01*
X156847510Y-134240000D02*
X156847510Y-132360000D01*
X156807510Y-134102000D02*
X156807510Y-132498000D01*
X156767510Y-133933000D02*
X156767510Y-132667000D01*
X156727510Y-133702000D02*
X156727510Y-132898000D01*
X163468751Y-135139000D02*
X162838751Y-135139000D01*
X163153751Y-135454000D02*
X163153751Y-134824000D01*
X161728020Y-120353000D02*
X160468020Y-120353000D01*
X154908020Y-120353000D02*
X156168020Y-120353000D01*
X161728020Y-124113000D02*
X161728020Y-120353000D01*
X154908020Y-126363000D02*
X154908020Y-120353000D01*
X175070000Y-79970000D02*
X176400000Y-79970000D01*
X175070000Y-81300000D02*
X175070000Y-79970000D01*
X175070000Y-82570000D02*
X177730000Y-82570000D01*
X177730000Y-82570000D02*
X177730000Y-95330000D01*
X175070000Y-82570000D02*
X175070000Y-95330000D01*
X175070000Y-95330000D02*
X177730000Y-95330000D01*
X148418510Y-151300000D02*
G75*
G03X148418510Y-151300000I-950000J0D01*
G01*
X102649999Y-80800000D02*
G75*
G03X102649999Y-80800000I-949999J0D01*
G01*
X120504762Y-93090000D02*
X119982258Y-93090000D01*
X120504762Y-94510000D02*
X119982258Y-94510000D01*
X119678510Y-91086252D02*
X119678510Y-90563748D01*
X118258510Y-91086252D02*
X118258510Y-90563748D01*
X120218510Y-89250000D02*
X122218510Y-89250000D01*
X120218510Y-92050000D02*
X120218510Y-89250000D01*
X122218510Y-92050000D02*
X120218510Y-92050000D01*
X122218510Y-89250000D02*
X122218510Y-92050000D01*
X118168510Y-76600000D02*
X122268510Y-76600000D01*
X122268510Y-76600000D02*
X122268510Y-78600000D01*
X122268510Y-78600000D02*
X118168510Y-78600000D01*
X118168510Y-78600000D02*
X118168510Y-76600000D01*
X118918510Y-78800000D02*
X118618510Y-79100000D01*
X118618510Y-79100000D02*
X119218510Y-79100000D01*
X118918510Y-78800000D02*
X119218510Y-79100000D01*
X118818510Y-88210000D02*
X121478510Y-88210000D01*
X118818510Y-83070000D02*
X118818510Y-88210000D01*
X121478510Y-83070000D02*
X121478510Y-88210000D01*
X118818510Y-83070000D02*
X121478510Y-83070000D01*
X118818510Y-81800000D02*
X118818510Y-80470000D01*
X118818510Y-80470000D02*
X120148510Y-80470000D01*
X161178510Y-68261252D02*
X161178510Y-67738748D01*
X159758510Y-68261252D02*
X159758510Y-67738748D01*
X155788437Y-86707471D02*
X156157903Y-86338005D01*
X156792529Y-87711563D02*
X157161995Y-87342097D01*
X151282687Y-81513221D02*
X150913221Y-81882687D01*
X152286779Y-82517313D02*
X151917313Y-82886779D01*
X135856947Y-83407471D02*
X136226413Y-83038005D01*
X136861039Y-84411563D02*
X137230505Y-84042097D01*
X139306947Y-102392529D02*
X139676413Y-102761995D01*
X140311039Y-101388437D02*
X140680505Y-101757903D01*
X129581731Y-84182687D02*
X129951197Y-83813221D01*
X130585823Y-85186779D02*
X130955289Y-84817313D01*
X131178510Y-91063748D02*
X131178510Y-91586252D01*
X129758510Y-91063748D02*
X129758510Y-91586252D01*
X136706515Y-102942097D02*
X137075981Y-103311563D01*
X137710607Y-101938005D02*
X138080073Y-102307471D01*
X149776413Y-94238005D02*
X149406947Y-94607471D01*
X150780505Y-95242097D02*
X150411039Y-95611563D01*
X153285823Y-92913221D02*
X153655289Y-93282687D01*
X152281731Y-93917313D02*
X152651197Y-94286779D01*
X152255289Y-96717313D02*
X151885823Y-97086779D01*
X151251197Y-95713221D02*
X150881731Y-96082687D01*
X145068322Y-83520205D02*
X145437788Y-83889671D01*
X146072414Y-82516113D02*
X146441880Y-82885579D01*
X147514565Y-81061234D02*
X147884031Y-81430700D01*
X146510473Y-82065326D02*
X146879939Y-82434792D01*
X132110607Y-86661995D02*
X132480073Y-86292529D01*
X131106515Y-85657903D02*
X131475981Y-85288437D01*
X180464759Y-81246000D02*
X180464759Y-81876000D01*
X180149759Y-81561000D02*
X180779759Y-81561000D01*
X186891000Y-82998000D02*
X186891000Y-83802000D01*
X186851000Y-82767000D02*
X186851000Y-84033000D01*
X186811000Y-82598000D02*
X186811000Y-84202000D01*
X186771000Y-82460000D02*
X186771000Y-84340000D01*
X186731000Y-82341000D02*
X186731000Y-84459000D01*
X186691000Y-82235000D02*
X186691000Y-84565000D01*
X186651000Y-82138000D02*
X186651000Y-84662000D01*
X186611000Y-82050000D02*
X186611000Y-84750000D01*
X186571000Y-81968000D02*
X186571000Y-84832000D01*
X186531000Y-81891000D02*
X186531000Y-84909000D01*
X186491000Y-81819000D02*
X186491000Y-84981000D01*
X186451000Y-81750000D02*
X186451000Y-85050000D01*
X186411000Y-81686000D02*
X186411000Y-85114000D01*
X186371000Y-81624000D02*
X186371000Y-85176000D01*
X186331000Y-81566000D02*
X186331000Y-85234000D01*
X186291000Y-81510000D02*
X186291000Y-85290000D01*
X186251000Y-81456000D02*
X186251000Y-85344000D01*
X186211000Y-81405000D02*
X186211000Y-85395000D01*
X186171000Y-81356000D02*
X186171000Y-85444000D01*
X186131000Y-81308000D02*
X186131000Y-85492000D01*
X186091000Y-81263000D02*
X186091000Y-85537000D01*
X186051000Y-81218000D02*
X186051000Y-85582000D01*
X186011000Y-81176000D02*
X186011000Y-85624000D01*
X185971000Y-81135000D02*
X185971000Y-85665000D01*
X185931000Y-84440000D02*
X185931000Y-85705000D01*
X185931000Y-81095000D02*
X185931000Y-82360000D01*
X185891000Y-84440000D02*
X185891000Y-85743000D01*
X185891000Y-81057000D02*
X185891000Y-82360000D01*
X185851000Y-84440000D02*
X185851000Y-85780000D01*
X185851000Y-81020000D02*
X185851000Y-82360000D01*
X185811000Y-84440000D02*
X185811000Y-85816000D01*
X185811000Y-80984000D02*
X185811000Y-82360000D01*
X185771000Y-84440000D02*
X185771000Y-85850000D01*
X185771000Y-80950000D02*
X185771000Y-82360000D01*
X185731000Y-84440000D02*
X185731000Y-85884000D01*
X185731000Y-80916000D02*
X185731000Y-82360000D01*
X185691000Y-84440000D02*
X185691000Y-85916000D01*
X185691000Y-80884000D02*
X185691000Y-82360000D01*
X185651000Y-84440000D02*
X185651000Y-85948000D01*
X185651000Y-80852000D02*
X185651000Y-82360000D01*
X185611000Y-84440000D02*
X185611000Y-85978000D01*
X185611000Y-80822000D02*
X185611000Y-82360000D01*
X185571000Y-84440000D02*
X185571000Y-86007000D01*
X185571000Y-80793000D02*
X185571000Y-82360000D01*
X185531000Y-84440000D02*
X185531000Y-86036000D01*
X185531000Y-80764000D02*
X185531000Y-82360000D01*
X185491000Y-84440000D02*
X185491000Y-86064000D01*
X185491000Y-80736000D02*
X185491000Y-82360000D01*
X185451000Y-84440000D02*
X185451000Y-86090000D01*
X185451000Y-80710000D02*
X185451000Y-82360000D01*
X185411000Y-84440000D02*
X185411000Y-86116000D01*
X185411000Y-80684000D02*
X185411000Y-82360000D01*
X185371000Y-84440000D02*
X185371000Y-86142000D01*
X185371000Y-80658000D02*
X185371000Y-82360000D01*
X185331000Y-84440000D02*
X185331000Y-86166000D01*
X185331000Y-80634000D02*
X185331000Y-82360000D01*
X185291000Y-84440000D02*
X185291000Y-86190000D01*
X185291000Y-80610000D02*
X185291000Y-82360000D01*
X185251000Y-84440000D02*
X185251000Y-86212000D01*
X185251000Y-80588000D02*
X185251000Y-82360000D01*
X185211000Y-84440000D02*
X185211000Y-86234000D01*
X185211000Y-80566000D02*
X185211000Y-82360000D01*
X185171000Y-84440000D02*
X185171000Y-86256000D01*
X185171000Y-80544000D02*
X185171000Y-82360000D01*
X185131000Y-84440000D02*
X185131000Y-86276000D01*
X185131000Y-80524000D02*
X185131000Y-82360000D01*
X185091000Y-84440000D02*
X185091000Y-86296000D01*
X185091000Y-80504000D02*
X185091000Y-82360000D01*
X185051000Y-84440000D02*
X185051000Y-86316000D01*
X185051000Y-80484000D02*
X185051000Y-82360000D01*
X185011000Y-84440000D02*
X185011000Y-86334000D01*
X185011000Y-80466000D02*
X185011000Y-82360000D01*
X184971000Y-84440000D02*
X184971000Y-86352000D01*
X184971000Y-80448000D02*
X184971000Y-82360000D01*
X184931000Y-84440000D02*
X184931000Y-86370000D01*
X184931000Y-80430000D02*
X184931000Y-82360000D01*
X184891000Y-84440000D02*
X184891000Y-86386000D01*
X184891000Y-80414000D02*
X184891000Y-82360000D01*
X184851000Y-84440000D02*
X184851000Y-86402000D01*
X184851000Y-80398000D02*
X184851000Y-82360000D01*
X184811000Y-84440000D02*
X184811000Y-86418000D01*
X184811000Y-80382000D02*
X184811000Y-82360000D01*
X184771000Y-84440000D02*
X184771000Y-86433000D01*
X184771000Y-80367000D02*
X184771000Y-82360000D01*
X184731000Y-84440000D02*
X184731000Y-86447000D01*
X184731000Y-80353000D02*
X184731000Y-82360000D01*
X184691000Y-84440000D02*
X184691000Y-86461000D01*
X184691000Y-80339000D02*
X184691000Y-82360000D01*
X184651000Y-84440000D02*
X184651000Y-86474000D01*
X184651000Y-80326000D02*
X184651000Y-82360000D01*
X184611000Y-84440000D02*
X184611000Y-86486000D01*
X184611000Y-80314000D02*
X184611000Y-82360000D01*
X184571000Y-84440000D02*
X184571000Y-86498000D01*
X184571000Y-80302000D02*
X184571000Y-82360000D01*
X184531000Y-84440000D02*
X184531000Y-86510000D01*
X184531000Y-80290000D02*
X184531000Y-82360000D01*
X184491000Y-84440000D02*
X184491000Y-86521000D01*
X184491000Y-80279000D02*
X184491000Y-82360000D01*
X184451000Y-84440000D02*
X184451000Y-86531000D01*
X184451000Y-80269000D02*
X184451000Y-82360000D01*
X184411000Y-84440000D02*
X184411000Y-86541000D01*
X184411000Y-80259000D02*
X184411000Y-82360000D01*
X184371000Y-84440000D02*
X184371000Y-86550000D01*
X184371000Y-80250000D02*
X184371000Y-82360000D01*
X184330000Y-84440000D02*
X184330000Y-86559000D01*
X184330000Y-80241000D02*
X184330000Y-82360000D01*
X184290000Y-84440000D02*
X184290000Y-86567000D01*
X184290000Y-80233000D02*
X184290000Y-82360000D01*
X184250000Y-84440000D02*
X184250000Y-86575000D01*
X184250000Y-80225000D02*
X184250000Y-82360000D01*
X184210000Y-84440000D02*
X184210000Y-86582000D01*
X184210000Y-80218000D02*
X184210000Y-82360000D01*
X184170000Y-84440000D02*
X184170000Y-86589000D01*
X184170000Y-80211000D02*
X184170000Y-82360000D01*
X184130000Y-84440000D02*
X184130000Y-86595000D01*
X184130000Y-80205000D02*
X184130000Y-82360000D01*
X184090000Y-84440000D02*
X184090000Y-86601000D01*
X184090000Y-80199000D02*
X184090000Y-82360000D01*
X184050000Y-84440000D02*
X184050000Y-86606000D01*
X184050000Y-80194000D02*
X184050000Y-82360000D01*
X184010000Y-84440000D02*
X184010000Y-86611000D01*
X184010000Y-80189000D02*
X184010000Y-82360000D01*
X183970000Y-84440000D02*
X183970000Y-86615000D01*
X183970000Y-80185000D02*
X183970000Y-82360000D01*
X183930000Y-84440000D02*
X183930000Y-86618000D01*
X183930000Y-80182000D02*
X183930000Y-82360000D01*
X183890000Y-84440000D02*
X183890000Y-86622000D01*
X183890000Y-80178000D02*
X183890000Y-82360000D01*
X183850000Y-80176000D02*
X183850000Y-86624000D01*
X183810000Y-80173000D02*
X183810000Y-86627000D01*
X183770000Y-80172000D02*
X183770000Y-86628000D01*
X183730000Y-80170000D02*
X183730000Y-86630000D01*
X183690000Y-80170000D02*
X183690000Y-86630000D01*
X183650000Y-80170000D02*
X183650000Y-86630000D01*
X186920000Y-83400000D02*
G75*
G03X186920000Y-83400000I-3270000J0D01*
G01*
X181610000Y-92163748D02*
X181610000Y-92686252D01*
X180190000Y-92163748D02*
X180190000Y-92686252D01*
X186182258Y-135510000D02*
X186704762Y-135510000D01*
X186182258Y-134090000D02*
X186704762Y-134090000D01*
X99008510Y-131811252D02*
X99008510Y-131288748D01*
X100428510Y-131811252D02*
X100428510Y-131288748D01*
X100428510Y-90436252D02*
X100428510Y-89913748D01*
X99008510Y-90436252D02*
X99008510Y-89913748D01*
X137178510Y-110863748D02*
X137178510Y-111386252D01*
X135758510Y-110863748D02*
X135758510Y-111386252D01*
X143758510Y-110913748D02*
X143758510Y-111436252D01*
X145178510Y-110913748D02*
X145178510Y-111436252D01*
X143758510Y-106913748D02*
X143758510Y-107436252D01*
X145178510Y-106913748D02*
X145178510Y-107436252D01*
X143254762Y-121260000D02*
X142732258Y-121260000D01*
X143254762Y-119840000D02*
X142732258Y-119840000D01*
X139479762Y-119840000D02*
X138957258Y-119840000D01*
X139479762Y-121260000D02*
X138957258Y-121260000D01*
X141204762Y-119260000D02*
X140682258Y-119260000D01*
X141204762Y-117840000D02*
X140682258Y-117840000D01*
X181738510Y-133300000D02*
G75*
G03X181738510Y-133300000I-3270000J0D01*
G01*
X178468510Y-130070000D02*
X178468510Y-136530000D01*
X178508510Y-130070000D02*
X178508510Y-136530000D01*
X178548510Y-130070000D02*
X178548510Y-136530000D01*
X178588510Y-130072000D02*
X178588510Y-136528000D01*
X178628510Y-130073000D02*
X178628510Y-136527000D01*
X178668510Y-130076000D02*
X178668510Y-136524000D01*
X178708510Y-130078000D02*
X178708510Y-132260000D01*
X178708510Y-134340000D02*
X178708510Y-136522000D01*
X178748510Y-130082000D02*
X178748510Y-132260000D01*
X178748510Y-134340000D02*
X178748510Y-136518000D01*
X178788510Y-130085000D02*
X178788510Y-132260000D01*
X178788510Y-134340000D02*
X178788510Y-136515000D01*
X178828510Y-130089000D02*
X178828510Y-132260000D01*
X178828510Y-134340000D02*
X178828510Y-136511000D01*
X178868510Y-130094000D02*
X178868510Y-132260000D01*
X178868510Y-134340000D02*
X178868510Y-136506000D01*
X178908510Y-130099000D02*
X178908510Y-132260000D01*
X178908510Y-134340000D02*
X178908510Y-136501000D01*
X178948510Y-130105000D02*
X178948510Y-132260000D01*
X178948510Y-134340000D02*
X178948510Y-136495000D01*
X178988510Y-130111000D02*
X178988510Y-132260000D01*
X178988510Y-134340000D02*
X178988510Y-136489000D01*
X179028510Y-130118000D02*
X179028510Y-132260000D01*
X179028510Y-134340000D02*
X179028510Y-136482000D01*
X179068510Y-130125000D02*
X179068510Y-132260000D01*
X179068510Y-134340000D02*
X179068510Y-136475000D01*
X179108510Y-130133000D02*
X179108510Y-132260000D01*
X179108510Y-134340000D02*
X179108510Y-136467000D01*
X179148510Y-130141000D02*
X179148510Y-132260000D01*
X179148510Y-134340000D02*
X179148510Y-136459000D01*
X179189510Y-130150000D02*
X179189510Y-132260000D01*
X179189510Y-134340000D02*
X179189510Y-136450000D01*
X179229510Y-130159000D02*
X179229510Y-132260000D01*
X179229510Y-134340000D02*
X179229510Y-136441000D01*
X179269510Y-130169000D02*
X179269510Y-132260000D01*
X179269510Y-134340000D02*
X179269510Y-136431000D01*
X179309510Y-130179000D02*
X179309510Y-132260000D01*
X179309510Y-134340000D02*
X179309510Y-136421000D01*
X179349510Y-130190000D02*
X179349510Y-132260000D01*
X179349510Y-134340000D02*
X179349510Y-136410000D01*
X179389510Y-130202000D02*
X179389510Y-132260000D01*
X179389510Y-134340000D02*
X179389510Y-136398000D01*
X179429510Y-130214000D02*
X179429510Y-132260000D01*
X179429510Y-134340000D02*
X179429510Y-136386000D01*
X179469510Y-130226000D02*
X179469510Y-132260000D01*
X179469510Y-134340000D02*
X179469510Y-136374000D01*
X179509510Y-130239000D02*
X179509510Y-132260000D01*
X179509510Y-134340000D02*
X179509510Y-136361000D01*
X179549510Y-130253000D02*
X179549510Y-132260000D01*
X179549510Y-134340000D02*
X179549510Y-136347000D01*
X179589510Y-130267000D02*
X179589510Y-132260000D01*
X179589510Y-134340000D02*
X179589510Y-136333000D01*
X179629510Y-130282000D02*
X179629510Y-132260000D01*
X179629510Y-134340000D02*
X179629510Y-136318000D01*
X179669510Y-130298000D02*
X179669510Y-132260000D01*
X179669510Y-134340000D02*
X179669510Y-136302000D01*
X179709510Y-130314000D02*
X179709510Y-132260000D01*
X179709510Y-134340000D02*
X179709510Y-136286000D01*
X179749510Y-130330000D02*
X179749510Y-132260000D01*
X179749510Y-134340000D02*
X179749510Y-136270000D01*
X179789510Y-130348000D02*
X179789510Y-132260000D01*
X179789510Y-134340000D02*
X179789510Y-136252000D01*
X179829510Y-130366000D02*
X179829510Y-132260000D01*
X179829510Y-134340000D02*
X179829510Y-136234000D01*
X179869510Y-130384000D02*
X179869510Y-132260000D01*
X179869510Y-134340000D02*
X179869510Y-136216000D01*
X179909510Y-130404000D02*
X179909510Y-132260000D01*
X179909510Y-134340000D02*
X179909510Y-136196000D01*
X179949510Y-130424000D02*
X179949510Y-132260000D01*
X179949510Y-134340000D02*
X179949510Y-136176000D01*
X179989510Y-130444000D02*
X179989510Y-132260000D01*
X179989510Y-134340000D02*
X179989510Y-136156000D01*
X180029510Y-130466000D02*
X180029510Y-132260000D01*
X180029510Y-134340000D02*
X180029510Y-136134000D01*
X180069510Y-130488000D02*
X180069510Y-132260000D01*
X180069510Y-134340000D02*
X180069510Y-136112000D01*
X180109510Y-130510000D02*
X180109510Y-132260000D01*
X180109510Y-134340000D02*
X180109510Y-136090000D01*
X180149510Y-130534000D02*
X180149510Y-132260000D01*
X180149510Y-134340000D02*
X180149510Y-136066000D01*
X180189510Y-130558000D02*
X180189510Y-132260000D01*
X180189510Y-134340000D02*
X180189510Y-136042000D01*
X180229510Y-130584000D02*
X180229510Y-132260000D01*
X180229510Y-134340000D02*
X180229510Y-136016000D01*
X180269510Y-130610000D02*
X180269510Y-132260000D01*
X180269510Y-134340000D02*
X180269510Y-135990000D01*
X180309510Y-130636000D02*
X180309510Y-132260000D01*
X180309510Y-134340000D02*
X180309510Y-135964000D01*
X180349510Y-130664000D02*
X180349510Y-132260000D01*
X180349510Y-134340000D02*
X180349510Y-135936000D01*
X180389510Y-130693000D02*
X180389510Y-132260000D01*
X180389510Y-134340000D02*
X180389510Y-135907000D01*
X180429510Y-130722000D02*
X180429510Y-132260000D01*
X180429510Y-134340000D02*
X180429510Y-135878000D01*
X180469510Y-130752000D02*
X180469510Y-132260000D01*
X180469510Y-134340000D02*
X180469510Y-135848000D01*
X180509510Y-130784000D02*
X180509510Y-132260000D01*
X180509510Y-134340000D02*
X180509510Y-135816000D01*
X180549510Y-130816000D02*
X180549510Y-132260000D01*
X180549510Y-134340000D02*
X180549510Y-135784000D01*
X180589510Y-130850000D02*
X180589510Y-132260000D01*
X180589510Y-134340000D02*
X180589510Y-135750000D01*
X180629510Y-130884000D02*
X180629510Y-132260000D01*
X180629510Y-134340000D02*
X180629510Y-135716000D01*
X180669510Y-130920000D02*
X180669510Y-132260000D01*
X180669510Y-134340000D02*
X180669510Y-135680000D01*
X180709510Y-130957000D02*
X180709510Y-132260000D01*
X180709510Y-134340000D02*
X180709510Y-135643000D01*
X180749510Y-130995000D02*
X180749510Y-132260000D01*
X180749510Y-134340000D02*
X180749510Y-135605000D01*
X180789510Y-131035000D02*
X180789510Y-135565000D01*
X180829510Y-131076000D02*
X180829510Y-135524000D01*
X180869510Y-131118000D02*
X180869510Y-135482000D01*
X180909510Y-131163000D02*
X180909510Y-135437000D01*
X180949510Y-131208000D02*
X180949510Y-135392000D01*
X180989510Y-131256000D02*
X180989510Y-135344000D01*
X181029510Y-131305000D02*
X181029510Y-135295000D01*
X181069510Y-131356000D02*
X181069510Y-135244000D01*
X181109510Y-131410000D02*
X181109510Y-135190000D01*
X181149510Y-131466000D02*
X181149510Y-135134000D01*
X181189510Y-131524000D02*
X181189510Y-135076000D01*
X181229510Y-131586000D02*
X181229510Y-135014000D01*
X181269510Y-131650000D02*
X181269510Y-134950000D01*
X181309510Y-131719000D02*
X181309510Y-134881000D01*
X181349510Y-131791000D02*
X181349510Y-134809000D01*
X181389510Y-131868000D02*
X181389510Y-134732000D01*
X181429510Y-131950000D02*
X181429510Y-134650000D01*
X181469510Y-132038000D02*
X181469510Y-134562000D01*
X181509510Y-132135000D02*
X181509510Y-134465000D01*
X181549510Y-132241000D02*
X181549510Y-134359000D01*
X181589510Y-132360000D02*
X181589510Y-134240000D01*
X181629510Y-132498000D02*
X181629510Y-134102000D01*
X181669510Y-132667000D02*
X181669510Y-133933000D01*
X181709510Y-132898000D02*
X181709510Y-133702000D01*
X174968269Y-131461000D02*
X175598269Y-131461000D01*
X175283269Y-131146000D02*
X175283269Y-131776000D01*
X155556010Y-129040000D02*
X159641010Y-129040000D01*
X159641010Y-129040000D02*
X159641010Y-127170000D01*
X159641010Y-127170000D02*
X155556010Y-127170000D01*
X110678510Y-142086252D02*
X110678510Y-141563748D01*
X109258510Y-142086252D02*
X109258510Y-141563748D01*
X122928510Y-142538748D02*
X122928510Y-143061252D01*
X121508510Y-142538748D02*
X121508510Y-143061252D01*
X121508510Y-147061252D02*
X121508510Y-146538748D01*
X122928510Y-147061252D02*
X122928510Y-146538748D01*
X127010000Y-121036252D02*
X127010000Y-120513748D01*
X125590000Y-121036252D02*
X125590000Y-120513748D01*
X117008510Y-64525000D02*
X117008510Y-67385000D01*
X117008510Y-67385000D02*
X118928510Y-67385000D01*
X118928510Y-67385000D02*
X118928510Y-64525000D01*
X120928510Y-67385000D02*
X120928510Y-64525000D01*
X119008510Y-67385000D02*
X120928510Y-67385000D01*
X119008510Y-64525000D02*
X119008510Y-67385000D01*
X182568510Y-87050000D02*
X189868510Y-87050000D01*
X182568510Y-92550000D02*
X189868510Y-92550000D01*
X189868510Y-92550000D02*
X189868510Y-91400000D01*
X189868510Y-133550000D02*
X189868510Y-132400000D01*
X182568510Y-133550000D02*
X189868510Y-133550000D01*
X182568510Y-128050000D02*
X189868510Y-128050000D01*
X91318510Y-128300000D02*
X91318510Y-129450000D01*
X98618510Y-128300000D02*
X91318510Y-128300000D01*
X98618510Y-133800000D02*
X91318510Y-133800000D01*
X98618510Y-92300000D02*
X91318510Y-92300000D01*
X98618510Y-86800000D02*
X91318510Y-86800000D01*
X91318510Y-86800000D02*
X91318510Y-87950000D01*
X170868510Y-121250000D02*
X170868510Y-117950000D01*
X170868510Y-117950000D02*
X163968510Y-117950000D01*
X170868510Y-121250000D02*
X163968510Y-121250000D01*
X164258510Y-149215000D02*
X164258510Y-152075000D01*
X166178510Y-149215000D02*
X164258510Y-149215000D01*
X166178510Y-152075000D02*
X166178510Y-149215000D01*
X123508510Y-149775000D02*
X123508510Y-152635000D01*
X123508510Y-152635000D02*
X125428510Y-152635000D01*
X125428510Y-152635000D02*
X125428510Y-149775000D01*
X161678510Y-152075000D02*
X161678510Y-149215000D01*
X161678510Y-149215000D02*
X159758510Y-149215000D01*
X159758510Y-149215000D02*
X159758510Y-152075000D01*
X155258510Y-149215000D02*
X155258510Y-152075000D01*
X157178510Y-149215000D02*
X155258510Y-149215000D01*
X157178510Y-152075000D02*
X157178510Y-149215000D01*
X108368510Y-141650000D02*
X105068510Y-141650000D01*
X105068510Y-141650000D02*
X105068510Y-148550000D01*
X108368510Y-141650000D02*
X108368510Y-148550000D01*
X115678510Y-151800000D02*
X115678510Y-148940000D01*
X115678510Y-148940000D02*
X113758510Y-148940000D01*
X113758510Y-148940000D02*
X113758510Y-151800000D01*
X116008510Y-148965000D02*
X116008510Y-151825000D01*
X117928510Y-148965000D02*
X116008510Y-148965000D01*
X117928510Y-151825000D02*
X117928510Y-148965000D01*
X167038510Y-93690000D02*
X168368510Y-93690000D01*
X167038510Y-95020000D02*
X167038510Y-93690000D01*
X167038510Y-96290000D02*
X169698510Y-96290000D01*
X169698510Y-96290000D02*
X169698510Y-101430000D01*
X167038510Y-96290000D02*
X167038510Y-101430000D01*
X167038510Y-101430000D02*
X169698510Y-101430000D01*
X167038510Y-91270000D02*
X169698510Y-91270000D01*
X167038510Y-86130000D02*
X167038510Y-91270000D01*
X169698510Y-86130000D02*
X169698510Y-91270000D01*
X167038510Y-86130000D02*
X169698510Y-86130000D01*
X167038510Y-84860000D02*
X167038510Y-83530000D01*
X167038510Y-83530000D02*
X168368510Y-83530000D01*
X167038510Y-73370000D02*
X168368510Y-73370000D01*
X167038510Y-74700000D02*
X167038510Y-73370000D01*
X167038510Y-75970000D02*
X169698510Y-75970000D01*
X169698510Y-75970000D02*
X169698510Y-81110000D01*
X167038510Y-75970000D02*
X167038510Y-81110000D01*
X167038510Y-81110000D02*
X169698510Y-81110000D01*
X106118510Y-126500000D02*
X107448510Y-126500000D01*
X106118510Y-127830000D02*
X106118510Y-126500000D01*
X106118510Y-129100000D02*
X108778510Y-129100000D01*
X108778510Y-129100000D02*
X108778510Y-134240000D01*
X106118510Y-129100000D02*
X106118510Y-134240000D01*
X106118510Y-134240000D02*
X108778510Y-134240000D01*
X102288510Y-134240000D02*
X104948510Y-134240000D01*
X102288510Y-129100000D02*
X102288510Y-134240000D01*
X104948510Y-129100000D02*
X104948510Y-134240000D01*
X102288510Y-129100000D02*
X104948510Y-129100000D01*
X102288510Y-127830000D02*
X102288510Y-126500000D01*
X102288510Y-126500000D02*
X103618510Y-126500000D01*
X123898510Y-80470000D02*
X125228510Y-80470000D01*
X123898510Y-81800000D02*
X123898510Y-80470000D01*
X123898510Y-83070000D02*
X126558510Y-83070000D01*
X126558510Y-83070000D02*
X126558510Y-88210000D01*
X123898510Y-83070000D02*
X123898510Y-88210000D01*
X123898510Y-88210000D02*
X126558510Y-88210000D01*
X103578510Y-80470000D02*
X104908510Y-80470000D01*
X103578510Y-81800000D02*
X103578510Y-80470000D01*
X103578510Y-83070000D02*
X106238510Y-83070000D01*
X106238510Y-83070000D02*
X106238510Y-95830000D01*
X103578510Y-83070000D02*
X103578510Y-95830000D01*
X103578510Y-95830000D02*
X106238510Y-95830000D01*
X108658510Y-95830000D02*
X111318510Y-95830000D01*
X108658510Y-83070000D02*
X108658510Y-95830000D01*
X111318510Y-83070000D02*
X111318510Y-95830000D01*
X108658510Y-83070000D02*
X111318510Y-83070000D01*
X108658510Y-81800000D02*
X108658510Y-80470000D01*
X108658510Y-80470000D02*
X109988510Y-80470000D01*
X113738510Y-90750000D02*
X116398510Y-90750000D01*
X113738510Y-83070000D02*
X113738510Y-90750000D01*
X116398510Y-83070000D02*
X116398510Y-90750000D01*
X113738510Y-83070000D02*
X116398510Y-83070000D01*
X113738510Y-81800000D02*
X113738510Y-80470000D01*
X113738510Y-80470000D02*
X115068510Y-80470000D01*
X167500000Y-70280904D02*
X166559548Y-69340452D01*
X168440452Y-69340452D02*
X167500000Y-70280904D01*
X169338478Y-68442426D02*
X167457574Y-66561522D01*
X167457574Y-66561522D02*
X169296051Y-64723045D01*
X169338478Y-68442426D02*
X171176955Y-66603949D01*
X171176955Y-66603949D02*
X169296051Y-64723045D01*
X151798510Y-64530000D02*
X149138510Y-64530000D01*
X151798510Y-67130000D02*
X151798510Y-64530000D01*
X149138510Y-67130000D02*
X149138510Y-64530000D01*
X151798510Y-67130000D02*
X149138510Y-67130000D01*
X151798510Y-68400000D02*
X151798510Y-69730000D01*
X151798510Y-69730000D02*
X150468510Y-69730000D01*
X100849414Y-82600000D02*
X99908962Y-83540452D01*
X99908962Y-81659548D02*
X100849414Y-82600000D01*
X99010936Y-80761522D02*
X97130032Y-82642426D01*
X97130032Y-82642426D02*
X95291555Y-80803949D01*
X99010936Y-80761522D02*
X97172459Y-78923045D01*
X97172459Y-78923045D02*
X95291555Y-80803949D01*
X152030000Y-150430000D02*
X149370000Y-150430000D01*
X152030000Y-153030000D02*
X152030000Y-150430000D01*
X149370000Y-153030000D02*
X149370000Y-150430000D01*
X152030000Y-153030000D02*
X149370000Y-153030000D01*
X152030000Y-154300000D02*
X152030000Y-155630000D01*
X152030000Y-155630000D02*
X150700000Y-155630000D01*
X132908510Y-117980000D02*
X131578510Y-117980000D01*
X132908510Y-116650000D02*
X132908510Y-117980000D01*
X132908510Y-115380000D02*
X130248510Y-115380000D01*
X130248510Y-115380000D02*
X130248510Y-102620000D01*
X132908510Y-115380000D02*
X132908510Y-102620000D01*
X132908510Y-102620000D02*
X130248510Y-102620000D01*
X150688510Y-102620000D02*
X148028510Y-102620000D01*
X150688510Y-115380000D02*
X150688510Y-102620000D01*
X148028510Y-115380000D02*
X148028510Y-102620000D01*
X150688510Y-115380000D02*
X148028510Y-115380000D01*
X150688510Y-116650000D02*
X150688510Y-117980000D01*
X150688510Y-117980000D02*
X149358510Y-117980000D01*
X158548510Y-144650000D02*
X157218510Y-144650000D01*
X158548510Y-143320000D02*
X158548510Y-144650000D01*
X158548510Y-142050000D02*
X155888510Y-142050000D01*
X155888510Y-142050000D02*
X155888510Y-139450000D01*
X158548510Y-142050000D02*
X158548510Y-139450000D01*
X158548510Y-139450000D02*
X155888510Y-139450000D01*
X153508510Y-133220000D02*
X154838510Y-133220000D01*
X154838510Y-133220000D02*
X154838510Y-134550000D01*
X152238510Y-133220000D02*
X152238510Y-135820000D01*
X152238510Y-135820000D02*
X154838510Y-135820000D01*
X154838510Y-135820000D02*
X154838510Y-138420000D01*
X149638510Y-138420000D02*
X154838510Y-138420000D01*
X149638510Y-133220000D02*
X149638510Y-138420000D01*
X149638510Y-133220000D02*
X152238510Y-133220000D01*
X126888510Y-133220000D02*
X129488510Y-133220000D01*
X126888510Y-133220000D02*
X126888510Y-138420000D01*
X126888510Y-138420000D02*
X132088510Y-138420000D01*
X132088510Y-135820000D02*
X132088510Y-138420000D01*
X129488510Y-135820000D02*
X132088510Y-135820000D01*
X129488510Y-133220000D02*
X129488510Y-135820000D01*
X132088510Y-133220000D02*
X132088510Y-134550000D01*
X130758510Y-133220000D02*
X132088510Y-133220000D01*
X178048510Y-137470000D02*
X175388510Y-137470000D01*
X178048510Y-140070000D02*
X178048510Y-137470000D01*
X175388510Y-140070000D02*
X175388510Y-137470000D01*
X178048510Y-140070000D02*
X175388510Y-140070000D01*
X178048510Y-141340000D02*
X178048510Y-142670000D01*
X178048510Y-142670000D02*
X176718510Y-142670000D01*
X163048510Y-137470000D02*
X160388510Y-137470000D01*
X163048510Y-140070000D02*
X163048510Y-137470000D01*
X160388510Y-140070000D02*
X160388510Y-137470000D01*
X163048510Y-140070000D02*
X160388510Y-140070000D01*
X163048510Y-141340000D02*
X163048510Y-142670000D01*
X163048510Y-142670000D02*
X161718510Y-142670000D01*
X126528510Y-155840000D02*
X126148510Y-155840000D01*
X126528510Y-159890000D02*
X126528510Y-160150000D01*
X126528510Y-155840000D02*
X126528510Y-157610000D01*
X118908510Y-155840000D02*
X119288510Y-155840000D01*
X118908510Y-157610000D02*
X118908510Y-155840000D01*
X118908510Y-160150000D02*
X118908510Y-159890000D01*
X108830000Y-136570000D02*
X108830000Y-137900000D01*
X107500000Y-136570000D02*
X108830000Y-136570000D01*
X106230000Y-136570000D02*
X106230000Y-139230000D01*
X106230000Y-139230000D02*
X103630000Y-139230000D01*
X106230000Y-136570000D02*
X103630000Y-136570000D01*
X103630000Y-136570000D02*
X103630000Y-139230000D01*
X165758510Y-96320000D02*
X166058510Y-96020000D01*
X166058510Y-96620000D02*
X166058510Y-96020000D01*
X165758510Y-96320000D02*
X166058510Y-96620000D01*
X165558510Y-97070000D02*
X163558510Y-97070000D01*
X165558510Y-92970000D02*
X165558510Y-97070000D01*
X163558510Y-92970000D02*
X165558510Y-92970000D01*
X163558510Y-97070000D02*
X163558510Y-92970000D01*
X163558510Y-86910000D02*
X163558510Y-82810000D01*
X163558510Y-82810000D02*
X165558510Y-82810000D01*
X165558510Y-82810000D02*
X165558510Y-86910000D01*
X165558510Y-86910000D02*
X163558510Y-86910000D01*
X165758510Y-86160000D02*
X166058510Y-86460000D01*
X166058510Y-86460000D02*
X166058510Y-85860000D01*
X165758510Y-86160000D02*
X166058510Y-85860000D01*
X165768510Y-76900000D02*
X166068510Y-76600000D01*
X166068510Y-77200000D02*
X166068510Y-76600000D01*
X165768510Y-76900000D02*
X166068510Y-77200000D01*
X165568510Y-77650000D02*
X163568510Y-77650000D01*
X165568510Y-73550000D02*
X165568510Y-77650000D01*
X163568510Y-73550000D02*
X165568510Y-73550000D01*
X163568510Y-77650000D02*
X163568510Y-73550000D01*
X109268510Y-123500000D02*
X108968510Y-123200000D01*
X109568510Y-123200000D02*
X108968510Y-123200000D01*
X109268510Y-123500000D02*
X109568510Y-123200000D01*
X110018510Y-123700000D02*
X110018510Y-125700000D01*
X105918510Y-123700000D02*
X110018510Y-123700000D01*
X105918510Y-125700000D02*
X105918510Y-123700000D01*
X110018510Y-125700000D02*
X105918510Y-125700000D01*
X101018510Y-123700000D02*
X105118510Y-123700000D01*
X105118510Y-123700000D02*
X105118510Y-125700000D01*
X105118510Y-125700000D02*
X101018510Y-125700000D01*
X101018510Y-125700000D02*
X101018510Y-123700000D01*
X101768510Y-125900000D02*
X101468510Y-126200000D01*
X101468510Y-126200000D02*
X102068510Y-126200000D01*
X101768510Y-125900000D02*
X102068510Y-126200000D01*
X123918510Y-78800000D02*
X124218510Y-79100000D01*
X123618510Y-79100000D02*
X124218510Y-79100000D01*
X123918510Y-78800000D02*
X123618510Y-79100000D01*
X123168510Y-78600000D02*
X123168510Y-76600000D01*
X127268510Y-78600000D02*
X123168510Y-78600000D01*
X127268510Y-76600000D02*
X127268510Y-78600000D01*
X123168510Y-76600000D02*
X127268510Y-76600000D01*
X113918510Y-130000000D02*
X113918510Y-132800000D01*
X113918510Y-132800000D02*
X111918510Y-132800000D01*
X111918510Y-132800000D02*
X111918510Y-130000000D01*
X111918510Y-130000000D02*
X113918510Y-130000000D01*
X97918510Y-135900000D02*
X99918510Y-135900000D01*
X97918510Y-138700000D02*
X97918510Y-135900000D01*
X99918510Y-138700000D02*
X97918510Y-138700000D01*
X99918510Y-135900000D02*
X99918510Y-138700000D01*
X125218510Y-89250000D02*
X125218510Y-92050000D01*
X125218510Y-92050000D02*
X123218510Y-92050000D01*
X123218510Y-92050000D02*
X123218510Y-89250000D01*
X123218510Y-89250000D02*
X125218510Y-89250000D01*
X122118510Y-69800000D02*
X119318510Y-69800000D01*
X119318510Y-69800000D02*
X119318510Y-67800000D01*
X119318510Y-67800000D02*
X122118510Y-67800000D01*
X122118510Y-67800000D02*
X122118510Y-69800000D01*
X126618510Y-72550000D02*
X123818510Y-72550000D01*
X123818510Y-72550000D02*
X123818510Y-70550000D01*
X123818510Y-70550000D02*
X126618510Y-70550000D01*
X126618510Y-70550000D02*
X126618510Y-72550000D01*
X115568510Y-69800000D02*
X115568510Y-67800000D01*
X118368510Y-69800000D02*
X115568510Y-69800000D01*
X118368510Y-67800000D02*
X118368510Y-69800000D01*
X115568510Y-67800000D02*
X118368510Y-67800000D01*
X134468510Y-119250000D02*
X134468510Y-122050000D01*
X134468510Y-122050000D02*
X132468510Y-122050000D01*
X132468510Y-122050000D02*
X132468510Y-119250000D01*
X132468510Y-119250000D02*
X134468510Y-119250000D01*
X134968510Y-119250000D02*
X136968510Y-119250000D01*
X134968510Y-122050000D02*
X134968510Y-119250000D01*
X136968510Y-122050000D02*
X134968510Y-122050000D01*
X136968510Y-119250000D02*
X136968510Y-122050000D01*
X107938510Y-76580000D02*
X112038510Y-76580000D01*
X112038510Y-76580000D02*
X112038510Y-78580000D01*
X112038510Y-78580000D02*
X107938510Y-78580000D01*
X107938510Y-78580000D02*
X107938510Y-76580000D01*
X108688510Y-78780000D02*
X108388510Y-79080000D01*
X108388510Y-79080000D02*
X108988510Y-79080000D01*
X108688510Y-78780000D02*
X108988510Y-79080000D01*
X113018510Y-76580000D02*
X117118510Y-76580000D01*
X117118510Y-76580000D02*
X117118510Y-78580000D01*
X117118510Y-78580000D02*
X113018510Y-78580000D01*
X113018510Y-78580000D02*
X113018510Y-76580000D01*
X113768510Y-78780000D02*
X113468510Y-79080000D01*
X113468510Y-79080000D02*
X114068510Y-79080000D01*
X113768510Y-78780000D02*
X114068510Y-79080000D01*
X139468510Y-113500000D02*
X139168510Y-113200000D01*
X139768510Y-113200000D02*
X139168510Y-113200000D01*
X139468510Y-113500000D02*
X139768510Y-113200000D01*
X140218510Y-113700000D02*
X140218510Y-115700000D01*
X136118510Y-113700000D02*
X140218510Y-113700000D01*
X136118510Y-115700000D02*
X136118510Y-113700000D01*
X140218510Y-115700000D02*
X136118510Y-115700000D01*
X167004762Y-126152000D02*
X166482258Y-126152000D01*
X167004762Y-124732000D02*
X166482258Y-124732000D01*
X163131000Y-124042000D02*
X163131000Y-121742000D01*
X163131000Y-121742000D02*
X170531000Y-121742000D01*
X170531000Y-121742000D02*
X170531000Y-124042000D01*
X170531000Y-126842000D02*
X170531000Y-129142000D01*
X170531000Y-129142000D02*
X163131000Y-129142000D01*
X163131000Y-129142000D02*
X163131000Y-126842000D01*
X111128510Y-131661252D02*
X111128510Y-131138748D01*
X109708510Y-131661252D02*
X109708510Y-131138748D01*
X102128510Y-137586252D02*
X102128510Y-137063748D01*
X100708510Y-137586252D02*
X100708510Y-137063748D01*
X127178510Y-91061252D02*
X127178510Y-90538748D01*
X125758510Y-91061252D02*
X125758510Y-90538748D01*
X111954762Y-135110000D02*
X111432258Y-135110000D01*
X111954762Y-133690000D02*
X111432258Y-133690000D01*
X99632258Y-139590000D02*
X100154762Y-139590000D01*
X99632258Y-141010000D02*
X100154762Y-141010000D01*
X124682258Y-93090000D02*
X125204762Y-93090000D01*
X124682258Y-94510000D02*
X125204762Y-94510000D01*
X163178510Y-67738748D02*
X163178510Y-68261252D01*
X161758510Y-67738748D02*
X161758510Y-68261252D01*
X113732258Y-93510000D02*
X114254762Y-93510000D01*
X113732258Y-92090000D02*
X114254762Y-92090000D01*
X155878510Y-98561252D02*
X155878510Y-98038748D01*
X154458510Y-98561252D02*
X154458510Y-98038748D01*
X116678510Y-65786252D02*
X116678510Y-65263748D01*
X115258510Y-65786252D02*
X115258510Y-65263748D01*
X121258510Y-65786252D02*
X121258510Y-65263748D01*
X122678510Y-65786252D02*
X122678510Y-65263748D01*
X121207258Y-72260000D02*
X121729762Y-72260000D01*
X121207258Y-70840000D02*
X121729762Y-70840000D01*
X121404762Y-96910000D02*
X120882258Y-96910000D01*
X121404762Y-95490000D02*
X120882258Y-95490000D01*
X112307258Y-70490000D02*
X112829762Y-70490000D01*
X112307258Y-71910000D02*
X112829762Y-71910000D01*
X112282258Y-73190000D02*
X112804762Y-73190000D01*
X112282258Y-74610000D02*
X112804762Y-74610000D01*
X138733074Y-136510000D02*
X134628946Y-136510000D01*
X138733074Y-133090000D02*
X134628946Y-133090000D01*
X142903946Y-136510000D02*
X147008074Y-136510000D01*
X142903946Y-133090000D02*
X147008074Y-133090000D01*
X136008510Y-127538748D02*
X136008510Y-128061252D01*
X137428510Y-127538748D02*
X137428510Y-128061252D01*
X168178510Y-151286252D02*
X168178510Y-150763748D01*
X166758510Y-151286252D02*
X166758510Y-150763748D01*
X126008510Y-150538748D02*
X126008510Y-151061252D01*
X127428510Y-150538748D02*
X127428510Y-151061252D01*
X162258510Y-151311252D02*
X162258510Y-150788748D01*
X163678510Y-151311252D02*
X163678510Y-150788748D01*
X157758510Y-151311252D02*
X157758510Y-150788748D01*
X159178510Y-151311252D02*
X159178510Y-150788748D01*
X111758510Y-150538748D02*
X111758510Y-151061252D01*
X113178510Y-150538748D02*
X113178510Y-151061252D01*
X110928510Y-150513748D02*
X110928510Y-151036252D01*
X109508510Y-150513748D02*
X109508510Y-151036252D01*
X157382724Y-65800000D02*
G75*
G03X157382724Y-65800000I-1414214J0D01*
G01*
X159088510Y-68770000D02*
X159088510Y-62830000D01*
X152848510Y-68770000D02*
X152848510Y-62830000D01*
X157308510Y-68920000D02*
X154628510Y-68920000D01*
X154628510Y-62680000D02*
X157308510Y-62680000D01*
X125628510Y-62680000D02*
X128308510Y-62680000D01*
X128308510Y-68920000D02*
X125628510Y-68920000D01*
X123848510Y-68770000D02*
X123848510Y-62830000D01*
X130088510Y-68770000D02*
X130088510Y-62830000D01*
X128382724Y-65800000D02*
G75*
G03X128382724Y-65800000I-1414214J0D01*
G01*
X159868510Y-156680000D02*
X160068510Y-156680000D01*
X157068510Y-160820000D02*
X157268510Y-161030000D01*
X158368510Y-160820000D02*
X158168510Y-161030000D01*
X157068510Y-159530000D02*
X157068510Y-160820000D01*
X157268510Y-161030000D02*
X158168510Y-161030000D01*
X158368510Y-160820000D02*
X158368510Y-159530000D01*
X155618510Y-159530000D02*
X161318510Y-159530000D01*
X156868510Y-156680000D02*
X158568510Y-156680000D01*
X155018510Y-157730000D02*
X155018510Y-158520000D01*
X161918510Y-158520000D02*
X161918510Y-157730000D01*
X129750000Y-80800000D02*
G75*
G03X129750000Y-80800000I-950000J0D01*
G01*
X133913630Y-91628249D02*
X133241879Y-92300000D01*
X133241879Y-92300000D02*
X133913630Y-92971751D01*
X139796759Y-85745120D02*
X140468510Y-85073369D01*
X140468510Y-85073369D02*
X141140261Y-85745120D01*
X141140261Y-98854880D02*
X140468510Y-99526631D01*
X140468510Y-99526631D02*
X139796759Y-98854880D01*
X147023390Y-92971751D02*
X147695141Y-92300000D01*
X147695141Y-92300000D02*
X147023390Y-91628249D01*
X147023390Y-91628249D02*
X147970913Y-90680725D01*
X180942426Y-76361522D02*
X179061522Y-78242426D01*
X180942426Y-76361522D02*
X171919744Y-67338840D01*
X171919744Y-67338840D02*
X170038840Y-69219744D01*
X179061522Y-78242426D02*
X170038840Y-69219744D01*
X180900000Y-80080904D02*
X179959548Y-79140452D01*
X181840452Y-79140452D02*
X180900000Y-80080904D01*
X106961610Y-69226339D02*
X108842514Y-71107243D01*
X106961610Y-69226339D02*
X97938928Y-78249021D01*
X97938928Y-78249021D02*
X99819832Y-80129925D01*
X108842514Y-71107243D02*
X99819832Y-80129925D01*
X110680992Y-69268765D02*
X109740540Y-70209217D01*
X109740540Y-68328313D02*
X110680992Y-69268765D01*
X132978510Y-154300000D02*
X132978510Y-152970000D01*
X132978510Y-152970000D02*
X134308510Y-152970000D01*
X135578510Y-152970000D02*
X148338510Y-152970000D01*
X148338510Y-155630000D02*
X148338510Y-152970000D01*
X135578510Y-155630000D02*
X148338510Y-155630000D01*
X135578510Y-155630000D02*
X135578510Y-152970000D01*
D12*
X142618510Y-108150000D02*
X142618510Y-108675000D01*
X138318510Y-112450000D02*
X138318510Y-111925000D01*
X142618510Y-112450000D02*
X142618510Y-111925000D01*
X138318510Y-108150000D02*
X138843510Y-108150000D01*
X138318510Y-112450000D02*
X138843510Y-112450000D01*
X142618510Y-112450000D02*
X142093510Y-112450000D01*
X142618510Y-108150000D02*
X142093510Y-108150000D01*
D11*
X174418510Y-136850000D02*
X174418510Y-135350000D01*
X174418510Y-135350000D02*
X173468510Y-135350000D01*
X173468510Y-135350000D02*
X173468510Y-130225000D01*
X164018510Y-136850000D02*
X164018510Y-135350000D01*
X164018510Y-135350000D02*
X164968510Y-135350000D01*
X164968510Y-135350000D02*
X164968510Y-134250000D01*
D12*
X113093510Y-137725000D02*
X113093510Y-138300000D01*
X118843510Y-137725000D02*
X118843510Y-138375000D01*
X118843510Y-148375000D02*
X118843510Y-147725000D01*
X113093510Y-148375000D02*
X113093510Y-147725000D01*
X113093510Y-137725000D02*
X118843510Y-137725000D01*
X113093510Y-148375000D02*
X118843510Y-148375000D01*
X113093510Y-138300000D02*
X111493510Y-138300000D01*
D11*
X135472000Y-133656000D02*
X138272000Y-133656000D01*
X138272000Y-133656000D02*
X138272000Y-135656000D01*
X138272000Y-135656000D02*
X135472000Y-135656000D01*
X135472000Y-135656000D02*
X135472000Y-133656000D01*
X146342020Y-133622000D02*
X146342020Y-135622000D01*
X143542020Y-133622000D02*
X146342020Y-133622000D01*
X143542020Y-135622000D02*
X143542020Y-133622000D01*
X146342020Y-135622000D02*
X143542020Y-135622000D01*
D12*
X156173809Y-81926190D02*
X156173809Y-82402380D01*
X155840476Y-81402380D02*
X156173809Y-81926190D01*
X156507142Y-81402380D01*
X157364285Y-82402380D02*
X156792857Y-82402380D01*
X157078571Y-82402380D02*
X157078571Y-81402380D01*
X156983333Y-81545238D01*
X156888095Y-81640476D01*
X156792857Y-81688095D01*
X125452380Y-120738095D02*
X126261904Y-120738095D01*
X126357142Y-120690476D01*
X126404761Y-120642857D01*
X126452380Y-120547619D01*
X126452380Y-120357142D01*
X126404761Y-120261904D01*
X126357142Y-120214285D01*
X126261904Y-120166666D01*
X125452380Y-120166666D01*
X126452380Y-119166666D02*
X126452380Y-119738095D01*
X126452380Y-119452380D02*
X125452380Y-119452380D01*
X125595238Y-119547619D01*
X125690476Y-119642857D01*
X125738095Y-119738095D01*
X125452380Y-118547619D02*
X125452380Y-118452380D01*
X125500000Y-118357142D01*
X125547619Y-118309523D01*
X125642857Y-118261904D01*
X125833333Y-118214285D01*
X126071428Y-118214285D01*
X126261904Y-118261904D01*
X126357142Y-118309523D01*
X126404761Y-118357142D01*
X126452380Y-118452380D01*
X126452380Y-118547619D01*
X126404761Y-118642857D01*
X126357142Y-118690476D01*
X126261904Y-118738095D01*
X126071428Y-118785714D01*
X125833333Y-118785714D01*
X125642857Y-118738095D01*
X125547619Y-118690476D01*
X125500000Y-118642857D01*
X125452380Y-118547619D01*
X145926605Y-68052380D02*
X145926605Y-68861904D01*
X145974224Y-68957142D01*
X146021843Y-69004761D01*
X146117081Y-69052380D01*
X146307557Y-69052380D01*
X146402795Y-69004761D01*
X146450414Y-68957142D01*
X146498033Y-68861904D01*
X146498033Y-68052380D01*
X146878986Y-68052380D02*
X147498033Y-68052380D01*
X147164700Y-68433333D01*
X147307557Y-68433333D01*
X147402795Y-68480952D01*
X147450414Y-68528571D01*
X147498033Y-68623809D01*
X147498033Y-68861904D01*
X147450414Y-68957142D01*
X147402795Y-69004761D01*
X147307557Y-69052380D01*
X147021843Y-69052380D01*
X146926605Y-69004761D01*
X146878986Y-68957142D01*
X179361904Y-86452380D02*
X179361904Y-85452380D01*
X179600000Y-85452380D01*
X179742857Y-85500000D01*
X179838095Y-85595238D01*
X179885714Y-85690476D01*
X179933333Y-85880952D01*
X179933333Y-86023809D01*
X179885714Y-86214285D01*
X179838095Y-86309523D01*
X179742857Y-86404761D01*
X179600000Y-86452380D01*
X179361904Y-86452380D01*
X180266666Y-85452380D02*
X180885714Y-85452380D01*
X180552380Y-85833333D01*
X180695238Y-85833333D01*
X180790476Y-85880952D01*
X180838095Y-85928571D01*
X180885714Y-86023809D01*
X180885714Y-86261904D01*
X180838095Y-86357142D01*
X180790476Y-86404761D01*
X180695238Y-86452380D01*
X180409523Y-86452380D01*
X180314285Y-86404761D01*
X180266666Y-86357142D01*
X145125652Y-115657142D02*
X145078033Y-115704761D01*
X144935176Y-115752380D01*
X144839938Y-115752380D01*
X144697081Y-115704761D01*
X144601843Y-115609523D01*
X144554224Y-115514285D01*
X144506605Y-115323809D01*
X144506605Y-115180952D01*
X144554224Y-114990476D01*
X144601843Y-114895238D01*
X144697081Y-114800000D01*
X144839938Y-114752380D01*
X144935176Y-114752380D01*
X145078033Y-114800000D01*
X145125652Y-114847619D01*
X145506605Y-114847619D02*
X145554224Y-114800000D01*
X145649462Y-114752380D01*
X145887557Y-114752380D01*
X145982795Y-114800000D01*
X146030414Y-114847619D01*
X146078033Y-114942857D01*
X146078033Y-115038095D01*
X146030414Y-115180952D01*
X145458986Y-115752380D01*
X146078033Y-115752380D01*
X146649462Y-115180952D02*
X146554224Y-115133333D01*
X146506605Y-115085714D01*
X146458986Y-114990476D01*
X146458986Y-114942857D01*
X146506605Y-114847619D01*
X146554224Y-114800000D01*
X146649462Y-114752380D01*
X146839938Y-114752380D01*
X146935176Y-114800000D01*
X146982795Y-114847619D01*
X147030414Y-114942857D01*
X147030414Y-114990476D01*
X146982795Y-115085714D01*
X146935176Y-115133333D01*
X146839938Y-115180952D01*
X146649462Y-115180952D01*
X146554224Y-115228571D01*
X146506605Y-115276190D01*
X146458986Y-115371428D01*
X146458986Y-115561904D01*
X146506605Y-115657142D01*
X146554224Y-115704761D01*
X146649462Y-115752380D01*
X146839938Y-115752380D01*
X146935176Y-115704761D01*
X146982795Y-115657142D01*
X147030414Y-115561904D01*
X147030414Y-115371428D01*
X146982795Y-115276190D01*
X146935176Y-115228571D01*
X146839938Y-115180952D01*
X143706605Y-126002380D02*
X143706605Y-126811904D01*
X143754224Y-126907142D01*
X143801843Y-126954761D01*
X143897081Y-127002380D01*
X144087557Y-127002380D01*
X144182795Y-126954761D01*
X144230414Y-126907142D01*
X144278033Y-126811904D01*
X144278033Y-126002380D01*
X144658986Y-126002380D02*
X145325652Y-126002380D01*
X144897081Y-127002380D01*
X125325652Y-126457142D02*
X125278033Y-126504761D01*
X125135176Y-126552380D01*
X125039938Y-126552380D01*
X124897081Y-126504761D01*
X124801843Y-126409523D01*
X124754224Y-126314285D01*
X124706605Y-126123809D01*
X124706605Y-125980952D01*
X124754224Y-125790476D01*
X124801843Y-125695238D01*
X124897081Y-125600000D01*
X125039938Y-125552380D01*
X125135176Y-125552380D01*
X125278033Y-125600000D01*
X125325652Y-125647619D01*
X125658986Y-125552380D02*
X126278033Y-125552380D01*
X125944700Y-125933333D01*
X126087557Y-125933333D01*
X126182795Y-125980952D01*
X126230414Y-126028571D01*
X126278033Y-126123809D01*
X126278033Y-126361904D01*
X126230414Y-126457142D01*
X126182795Y-126504761D01*
X126087557Y-126552380D01*
X125801843Y-126552380D01*
X125706605Y-126504761D01*
X125658986Y-126457142D01*
X127135176Y-125552380D02*
X126944700Y-125552380D01*
X126849462Y-125600000D01*
X126801843Y-125647619D01*
X126706605Y-125790476D01*
X126658986Y-125980952D01*
X126658986Y-126361904D01*
X126706605Y-126457142D01*
X126754224Y-126504761D01*
X126849462Y-126552380D01*
X127039938Y-126552380D01*
X127135176Y-126504761D01*
X127182795Y-126457142D01*
X127230414Y-126361904D01*
X127230414Y-126123809D01*
X127182795Y-126028571D01*
X127135176Y-125980952D01*
X127039938Y-125933333D01*
X126849462Y-125933333D01*
X126754224Y-125980952D01*
X126706605Y-126028571D01*
X126658986Y-126123809D01*
X155075652Y-131157142D02*
X155028033Y-131204761D01*
X154885176Y-131252380D01*
X154789938Y-131252380D01*
X154647081Y-131204761D01*
X154551843Y-131109523D01*
X154504224Y-131014285D01*
X154456605Y-130823809D01*
X154456605Y-130680952D01*
X154504224Y-130490476D01*
X154551843Y-130395238D01*
X154647081Y-130300000D01*
X154789938Y-130252380D01*
X154885176Y-130252380D01*
X155028033Y-130300000D01*
X155075652Y-130347619D01*
X155408986Y-130252380D02*
X156028033Y-130252380D01*
X155694700Y-130633333D01*
X155837557Y-130633333D01*
X155932795Y-130680952D01*
X155980414Y-130728571D01*
X156028033Y-130823809D01*
X156028033Y-131061904D01*
X155980414Y-131157142D01*
X155932795Y-131204761D01*
X155837557Y-131252380D01*
X155551843Y-131252380D01*
X155456605Y-131204761D01*
X155408986Y-131157142D01*
X156885176Y-130585714D02*
X156885176Y-131252380D01*
X156647081Y-130204761D02*
X156408986Y-130919047D01*
X157028033Y-130919047D01*
X153056115Y-121715380D02*
X153056115Y-122524904D01*
X153103734Y-122620142D01*
X153151353Y-122667761D01*
X153246591Y-122715380D01*
X153437067Y-122715380D01*
X153532305Y-122667761D01*
X153579924Y-122620142D01*
X153627543Y-122524904D01*
X153627543Y-121715380D01*
X154151353Y-122715380D02*
X154341829Y-122715380D01*
X154437067Y-122667761D01*
X154484686Y-122620142D01*
X154579924Y-122477285D01*
X154627543Y-122286809D01*
X154627543Y-121905857D01*
X154579924Y-121810619D01*
X154532305Y-121763000D01*
X154437067Y-121715380D01*
X154246591Y-121715380D01*
X154151353Y-121763000D01*
X154103734Y-121810619D01*
X154056115Y-121905857D01*
X154056115Y-122143952D01*
X154103734Y-122239190D01*
X154151353Y-122286809D01*
X154246591Y-122334428D01*
X154437067Y-122334428D01*
X154532305Y-122286809D01*
X154579924Y-122239190D01*
X154627543Y-122143952D01*
X116425652Y-94652380D02*
X116092319Y-94176190D01*
X115854224Y-94652380D02*
X115854224Y-93652380D01*
X116235176Y-93652380D01*
X116330414Y-93700000D01*
X116378033Y-93747619D01*
X116425652Y-93842857D01*
X116425652Y-93985714D01*
X116378033Y-94080952D01*
X116330414Y-94128571D01*
X116235176Y-94176190D01*
X115854224Y-94176190D01*
X117378033Y-94652380D02*
X116806605Y-94652380D01*
X117092319Y-94652380D02*
X117092319Y-93652380D01*
X116997081Y-93795238D01*
X116901843Y-93890476D01*
X116806605Y-93938095D01*
X117997081Y-93652380D02*
X118092319Y-93652380D01*
X118187557Y-93700000D01*
X118235176Y-93747619D01*
X118282795Y-93842857D01*
X118330414Y-94033333D01*
X118330414Y-94271428D01*
X118282795Y-94461904D01*
X118235176Y-94557142D01*
X118187557Y-94604761D01*
X118092319Y-94652380D01*
X117997081Y-94652380D01*
X117901843Y-94604761D01*
X117854224Y-94557142D01*
X117806605Y-94461904D01*
X117758986Y-94271428D01*
X117758986Y-94033333D01*
X117806605Y-93842857D01*
X117854224Y-93747619D01*
X117901843Y-93700000D01*
X117997081Y-93652380D01*
X116901843Y-92552380D02*
X116568510Y-92076190D01*
X116330414Y-92552380D02*
X116330414Y-91552380D01*
X116711367Y-91552380D01*
X116806605Y-91600000D01*
X116854224Y-91647619D01*
X116901843Y-91742857D01*
X116901843Y-91885714D01*
X116854224Y-91980952D01*
X116806605Y-92028571D01*
X116711367Y-92076190D01*
X116330414Y-92076190D01*
X117235176Y-91552380D02*
X117901843Y-91552380D01*
X117473271Y-92552380D01*
X118908986Y-75252380D02*
X118908986Y-75966666D01*
X118861367Y-76109523D01*
X118766129Y-76204761D01*
X118623271Y-76252380D01*
X118528033Y-76252380D01*
X119385176Y-76252380D02*
X119385176Y-75252380D01*
X119766129Y-75252380D01*
X119861367Y-75300000D01*
X119908986Y-75347619D01*
X119956605Y-75442857D01*
X119956605Y-75585714D01*
X119908986Y-75680952D01*
X119861367Y-75728571D01*
X119766129Y-75776190D01*
X119385176Y-75776190D01*
X120908986Y-76252380D02*
X120337557Y-76252380D01*
X120623271Y-76252380D02*
X120623271Y-75252380D01*
X120528033Y-75395238D01*
X120432795Y-75490476D01*
X120337557Y-75538095D01*
X121528033Y-75252380D02*
X121623271Y-75252380D01*
X121718510Y-75300000D01*
X121766129Y-75347619D01*
X121813748Y-75442857D01*
X121861367Y-75633333D01*
X121861367Y-75871428D01*
X121813748Y-76061904D01*
X121766129Y-76157142D01*
X121718510Y-76204761D01*
X121623271Y-76252380D01*
X121528033Y-76252380D01*
X121432795Y-76204761D01*
X121385176Y-76157142D01*
X121337557Y-76061904D01*
X121289938Y-75871428D01*
X121289938Y-75633333D01*
X121337557Y-75442857D01*
X121385176Y-75347619D01*
X121432795Y-75300000D01*
X121528033Y-75252380D01*
X160301843Y-70857142D02*
X160254224Y-70904761D01*
X160111367Y-70952380D01*
X160016129Y-70952380D01*
X159873271Y-70904761D01*
X159778033Y-70809523D01*
X159730414Y-70714285D01*
X159682795Y-70523809D01*
X159682795Y-70380952D01*
X159730414Y-70190476D01*
X159778033Y-70095238D01*
X159873271Y-70000000D01*
X160016129Y-69952380D01*
X160111367Y-69952380D01*
X160254224Y-70000000D01*
X160301843Y-70047619D01*
X161254224Y-70952380D02*
X160682795Y-70952380D01*
X160968510Y-70952380D02*
X160968510Y-69952380D01*
X160873271Y-70095238D01*
X160778033Y-70190476D01*
X160682795Y-70238095D01*
X158183333Y-85407142D02*
X158135714Y-85454761D01*
X157992857Y-85502380D01*
X157897619Y-85502380D01*
X157754761Y-85454761D01*
X157659523Y-85359523D01*
X157611904Y-85264285D01*
X157564285Y-85073809D01*
X157564285Y-84930952D01*
X157611904Y-84740476D01*
X157659523Y-84645238D01*
X157754761Y-84550000D01*
X157897619Y-84502380D01*
X157992857Y-84502380D01*
X158135714Y-84550000D01*
X158183333Y-84597619D01*
X158564285Y-84597619D02*
X158611904Y-84550000D01*
X158707142Y-84502380D01*
X158945238Y-84502380D01*
X159040476Y-84550000D01*
X159088095Y-84597619D01*
X159135714Y-84692857D01*
X159135714Y-84788095D01*
X159088095Y-84930952D01*
X158516666Y-85502380D01*
X159135714Y-85502380D01*
X153483333Y-80757142D02*
X153435714Y-80804761D01*
X153292857Y-80852380D01*
X153197619Y-80852380D01*
X153054761Y-80804761D01*
X152959523Y-80709523D01*
X152911904Y-80614285D01*
X152864285Y-80423809D01*
X152864285Y-80280952D01*
X152911904Y-80090476D01*
X152959523Y-79995238D01*
X153054761Y-79900000D01*
X153197619Y-79852380D01*
X153292857Y-79852380D01*
X153435714Y-79900000D01*
X153483333Y-79947619D01*
X153816666Y-79852380D02*
X154435714Y-79852380D01*
X154102380Y-80233333D01*
X154245238Y-80233333D01*
X154340476Y-80280952D01*
X154388095Y-80328571D01*
X154435714Y-80423809D01*
X154435714Y-80661904D01*
X154388095Y-80757142D01*
X154340476Y-80804761D01*
X154245238Y-80852380D01*
X153959523Y-80852380D01*
X153864285Y-80804761D01*
X153816666Y-80757142D01*
X134433333Y-83257142D02*
X134385714Y-83304761D01*
X134242857Y-83352380D01*
X134147619Y-83352380D01*
X134004761Y-83304761D01*
X133909523Y-83209523D01*
X133861904Y-83114285D01*
X133814285Y-82923809D01*
X133814285Y-82780952D01*
X133861904Y-82590476D01*
X133909523Y-82495238D01*
X134004761Y-82400000D01*
X134147619Y-82352380D01*
X134242857Y-82352380D01*
X134385714Y-82400000D01*
X134433333Y-82447619D01*
X135290476Y-82685714D02*
X135290476Y-83352380D01*
X135052380Y-82304761D02*
X134814285Y-83019047D01*
X135433333Y-83019047D01*
X141833333Y-104357142D02*
X141785714Y-104404761D01*
X141642857Y-104452380D01*
X141547619Y-104452380D01*
X141404761Y-104404761D01*
X141309523Y-104309523D01*
X141261904Y-104214285D01*
X141214285Y-104023809D01*
X141214285Y-103880952D01*
X141261904Y-103690476D01*
X141309523Y-103595238D01*
X141404761Y-103500000D01*
X141547619Y-103452380D01*
X141642857Y-103452380D01*
X141785714Y-103500000D01*
X141833333Y-103547619D01*
X142738095Y-103452380D02*
X142261904Y-103452380D01*
X142214285Y-103928571D01*
X142261904Y-103880952D01*
X142357142Y-103833333D01*
X142595238Y-103833333D01*
X142690476Y-103880952D01*
X142738095Y-103928571D01*
X142785714Y-104023809D01*
X142785714Y-104261904D01*
X142738095Y-104357142D01*
X142690476Y-104404761D01*
X142595238Y-104452380D01*
X142357142Y-104452380D01*
X142261904Y-104404761D01*
X142214285Y-104357142D01*
X128433333Y-87557142D02*
X128385714Y-87604761D01*
X128242857Y-87652380D01*
X128147619Y-87652380D01*
X128004761Y-87604761D01*
X127909523Y-87509523D01*
X127861904Y-87414285D01*
X127814285Y-87223809D01*
X127814285Y-87080952D01*
X127861904Y-86890476D01*
X127909523Y-86795238D01*
X128004761Y-86700000D01*
X128147619Y-86652380D01*
X128242857Y-86652380D01*
X128385714Y-86700000D01*
X128433333Y-86747619D01*
X129290476Y-86652380D02*
X129100000Y-86652380D01*
X129004761Y-86700000D01*
X128957142Y-86747619D01*
X128861904Y-86890476D01*
X128814285Y-87080952D01*
X128814285Y-87461904D01*
X128861904Y-87557142D01*
X128909523Y-87604761D01*
X129004761Y-87652380D01*
X129195238Y-87652380D01*
X129290476Y-87604761D01*
X129338095Y-87557142D01*
X129385714Y-87461904D01*
X129385714Y-87223809D01*
X129338095Y-87128571D01*
X129290476Y-87080952D01*
X129195238Y-87033333D01*
X129004761Y-87033333D01*
X128909523Y-87080952D01*
X128861904Y-87128571D01*
X128814285Y-87223809D01*
X132133333Y-92057142D02*
X132085714Y-92104761D01*
X131942857Y-92152380D01*
X131847619Y-92152380D01*
X131704761Y-92104761D01*
X131609523Y-92009523D01*
X131561904Y-91914285D01*
X131514285Y-91723809D01*
X131514285Y-91580952D01*
X131561904Y-91390476D01*
X131609523Y-91295238D01*
X131704761Y-91200000D01*
X131847619Y-91152380D01*
X131942857Y-91152380D01*
X132085714Y-91200000D01*
X132133333Y-91247619D01*
X132466666Y-91152380D02*
X133133333Y-91152380D01*
X132704761Y-92152380D01*
X139333333Y-104857142D02*
X139285714Y-104904761D01*
X139142857Y-104952380D01*
X139047619Y-104952380D01*
X138904761Y-104904761D01*
X138809523Y-104809523D01*
X138761904Y-104714285D01*
X138714285Y-104523809D01*
X138714285Y-104380952D01*
X138761904Y-104190476D01*
X138809523Y-104095238D01*
X138904761Y-104000000D01*
X139047619Y-103952380D01*
X139142857Y-103952380D01*
X139285714Y-104000000D01*
X139333333Y-104047619D01*
X139904761Y-104380952D02*
X139809523Y-104333333D01*
X139761904Y-104285714D01*
X139714285Y-104190476D01*
X139714285Y-104142857D01*
X139761904Y-104047619D01*
X139809523Y-104000000D01*
X139904761Y-103952380D01*
X140095238Y-103952380D01*
X140190476Y-104000000D01*
X140238095Y-104047619D01*
X140285714Y-104142857D01*
X140285714Y-104190476D01*
X140238095Y-104285714D01*
X140190476Y-104333333D01*
X140095238Y-104380952D01*
X139904761Y-104380952D01*
X139809523Y-104428571D01*
X139761904Y-104476190D01*
X139714285Y-104571428D01*
X139714285Y-104761904D01*
X139761904Y-104857142D01*
X139809523Y-104904761D01*
X139904761Y-104952380D01*
X140095238Y-104952380D01*
X140190476Y-104904761D01*
X140238095Y-104857142D01*
X140285714Y-104761904D01*
X140285714Y-104571428D01*
X140238095Y-104476190D01*
X140190476Y-104428571D01*
X140095238Y-104380952D01*
X147933333Y-97257142D02*
X147885714Y-97304761D01*
X147742857Y-97352380D01*
X147647619Y-97352380D01*
X147504761Y-97304761D01*
X147409523Y-97209523D01*
X147361904Y-97114285D01*
X147314285Y-96923809D01*
X147314285Y-96780952D01*
X147361904Y-96590476D01*
X147409523Y-96495238D01*
X147504761Y-96400000D01*
X147647619Y-96352380D01*
X147742857Y-96352380D01*
X147885714Y-96400000D01*
X147933333Y-96447619D01*
X148409523Y-97352380D02*
X148600000Y-97352380D01*
X148695238Y-97304761D01*
X148742857Y-97257142D01*
X148838095Y-97114285D01*
X148885714Y-96923809D01*
X148885714Y-96542857D01*
X148838095Y-96447619D01*
X148790476Y-96400000D01*
X148695238Y-96352380D01*
X148504761Y-96352380D01*
X148409523Y-96400000D01*
X148361904Y-96447619D01*
X148314285Y-96542857D01*
X148314285Y-96780952D01*
X148361904Y-96876190D01*
X148409523Y-96923809D01*
X148504761Y-96971428D01*
X148695238Y-96971428D01*
X148790476Y-96923809D01*
X148838095Y-96876190D01*
X148885714Y-96780952D01*
X150607142Y-91357142D02*
X150559523Y-91404761D01*
X150416666Y-91452380D01*
X150321428Y-91452380D01*
X150178571Y-91404761D01*
X150083333Y-91309523D01*
X150035714Y-91214285D01*
X149988095Y-91023809D01*
X149988095Y-90880952D01*
X150035714Y-90690476D01*
X150083333Y-90595238D01*
X150178571Y-90500000D01*
X150321428Y-90452380D01*
X150416666Y-90452380D01*
X150559523Y-90500000D01*
X150607142Y-90547619D01*
X151559523Y-91452380D02*
X150988095Y-91452380D01*
X151273809Y-91452380D02*
X151273809Y-90452380D01*
X151178571Y-90595238D01*
X151083333Y-90690476D01*
X150988095Y-90738095D01*
X152178571Y-90452380D02*
X152273809Y-90452380D01*
X152369047Y-90500000D01*
X152416666Y-90547619D01*
X152464285Y-90642857D01*
X152511904Y-90833333D01*
X152511904Y-91071428D01*
X152464285Y-91261904D01*
X152416666Y-91357142D01*
X152369047Y-91404761D01*
X152273809Y-91452380D01*
X152178571Y-91452380D01*
X152083333Y-91404761D01*
X152035714Y-91357142D01*
X151988095Y-91261904D01*
X151940476Y-91071428D01*
X151940476Y-90833333D01*
X151988095Y-90642857D01*
X152035714Y-90547619D01*
X152083333Y-90500000D01*
X152178571Y-90452380D01*
X148457142Y-98657142D02*
X148409523Y-98704761D01*
X148266666Y-98752380D01*
X148171428Y-98752380D01*
X148028571Y-98704761D01*
X147933333Y-98609523D01*
X147885714Y-98514285D01*
X147838095Y-98323809D01*
X147838095Y-98180952D01*
X147885714Y-97990476D01*
X147933333Y-97895238D01*
X148028571Y-97800000D01*
X148171428Y-97752380D01*
X148266666Y-97752380D01*
X148409523Y-97800000D01*
X148457142Y-97847619D01*
X149409523Y-98752380D02*
X148838095Y-98752380D01*
X149123809Y-98752380D02*
X149123809Y-97752380D01*
X149028571Y-97895238D01*
X148933333Y-97990476D01*
X148838095Y-98038095D01*
X150361904Y-98752380D02*
X149790476Y-98752380D01*
X150076190Y-98752380D02*
X150076190Y-97752380D01*
X149980952Y-97895238D01*
X149885714Y-97990476D01*
X149790476Y-98038095D01*
X143892893Y-84197969D02*
X143825549Y-84197969D01*
X143690862Y-84130625D01*
X143623519Y-84063282D01*
X143556175Y-83928595D01*
X143556175Y-83793908D01*
X143589847Y-83692893D01*
X143690862Y-83524534D01*
X143791877Y-83423519D01*
X143960236Y-83322503D01*
X144061251Y-83288832D01*
X144195938Y-83288832D01*
X144330625Y-83356175D01*
X144397969Y-83423519D01*
X144465312Y-83558206D01*
X144465312Y-83625549D01*
X144498984Y-84938748D02*
X144094923Y-84534687D01*
X144296954Y-84736717D02*
X145004061Y-84029610D01*
X144835702Y-84063282D01*
X144701015Y-84063282D01*
X144600000Y-84029610D01*
X145408122Y-84568358D02*
X145475465Y-84568358D01*
X145576480Y-84602030D01*
X145744839Y-84770389D01*
X145778511Y-84871404D01*
X145778511Y-84938748D01*
X145744839Y-85039763D01*
X145677496Y-85107106D01*
X145542809Y-85174450D01*
X144734687Y-85174450D01*
X145172419Y-85612183D01*
X147656871Y-80379256D02*
X147589527Y-80379256D01*
X147454840Y-80311912D01*
X147387497Y-80244569D01*
X147320153Y-80109882D01*
X147320153Y-79975195D01*
X147353825Y-79874180D01*
X147454840Y-79705821D01*
X147555855Y-79604806D01*
X147724214Y-79503790D01*
X147825229Y-79470119D01*
X147959916Y-79470119D01*
X148094603Y-79537462D01*
X148161947Y-79604806D01*
X148229290Y-79739493D01*
X148229290Y-79806836D01*
X148262962Y-81120035D02*
X147858901Y-80715974D01*
X148060932Y-80918004D02*
X148768039Y-80210897D01*
X148599680Y-80244569D01*
X148464993Y-80244569D01*
X148363978Y-80210897D01*
X149205771Y-80648630D02*
X149643504Y-81086363D01*
X149138428Y-81120035D01*
X149239443Y-81221050D01*
X149273115Y-81322065D01*
X149273115Y-81389409D01*
X149239443Y-81490424D01*
X149071084Y-81658783D01*
X148970069Y-81692454D01*
X148902726Y-81692454D01*
X148801710Y-81658783D01*
X148599680Y-81456752D01*
X148566008Y-81355737D01*
X148566008Y-81288393D01*
X130857142Y-88957142D02*
X130809523Y-89004761D01*
X130666666Y-89052380D01*
X130571428Y-89052380D01*
X130428571Y-89004761D01*
X130333333Y-88909523D01*
X130285714Y-88814285D01*
X130238095Y-88623809D01*
X130238095Y-88480952D01*
X130285714Y-88290476D01*
X130333333Y-88195238D01*
X130428571Y-88100000D01*
X130571428Y-88052380D01*
X130666666Y-88052380D01*
X130809523Y-88100000D01*
X130857142Y-88147619D01*
X131809523Y-89052380D02*
X131238095Y-89052380D01*
X131523809Y-89052380D02*
X131523809Y-88052380D01*
X131428571Y-88195238D01*
X131333333Y-88290476D01*
X131238095Y-88338095D01*
X132666666Y-88385714D02*
X132666666Y-89052380D01*
X132428571Y-88004761D02*
X132190476Y-88719047D01*
X132809523Y-88719047D01*
X182857142Y-79957142D02*
X182809523Y-80004761D01*
X182666666Y-80052380D01*
X182571428Y-80052380D01*
X182428571Y-80004761D01*
X182333333Y-79909523D01*
X182285714Y-79814285D01*
X182238095Y-79623809D01*
X182238095Y-79480952D01*
X182285714Y-79290476D01*
X182333333Y-79195238D01*
X182428571Y-79100000D01*
X182571428Y-79052380D01*
X182666666Y-79052380D01*
X182809523Y-79100000D01*
X182857142Y-79147619D01*
X183809523Y-80052380D02*
X183238095Y-80052380D01*
X183523809Y-80052380D02*
X183523809Y-79052380D01*
X183428571Y-79195238D01*
X183333333Y-79290476D01*
X183238095Y-79338095D01*
X184714285Y-79052380D02*
X184238095Y-79052380D01*
X184190476Y-79528571D01*
X184238095Y-79480952D01*
X184333333Y-79433333D01*
X184571428Y-79433333D01*
X184666666Y-79480952D01*
X184714285Y-79528571D01*
X184761904Y-79623809D01*
X184761904Y-79861904D01*
X184714285Y-79957142D01*
X184666666Y-80004761D01*
X184571428Y-80052380D01*
X184333333Y-80052380D01*
X184238095Y-80004761D01*
X184190476Y-79957142D01*
X179857142Y-95357142D02*
X179809523Y-95404761D01*
X179666666Y-95452380D01*
X179571428Y-95452380D01*
X179428571Y-95404761D01*
X179333333Y-95309523D01*
X179285714Y-95214285D01*
X179238095Y-95023809D01*
X179238095Y-94880952D01*
X179285714Y-94690476D01*
X179333333Y-94595238D01*
X179428571Y-94500000D01*
X179571428Y-94452380D01*
X179666666Y-94452380D01*
X179809523Y-94500000D01*
X179857142Y-94547619D01*
X180809523Y-95452380D02*
X180238095Y-95452380D01*
X180523809Y-95452380D02*
X180523809Y-94452380D01*
X180428571Y-94595238D01*
X180333333Y-94690476D01*
X180238095Y-94738095D01*
X181666666Y-94452380D02*
X181476190Y-94452380D01*
X181380952Y-94500000D01*
X181333333Y-94547619D01*
X181238095Y-94690476D01*
X181190476Y-94880952D01*
X181190476Y-95261904D01*
X181238095Y-95357142D01*
X181285714Y-95404761D01*
X181380952Y-95452380D01*
X181571428Y-95452380D01*
X181666666Y-95404761D01*
X181714285Y-95357142D01*
X181761904Y-95261904D01*
X181761904Y-95023809D01*
X181714285Y-94928571D01*
X181666666Y-94880952D01*
X181571428Y-94833333D01*
X181380952Y-94833333D01*
X181285714Y-94880952D01*
X181238095Y-94928571D01*
X181190476Y-95023809D01*
X185825652Y-136907142D02*
X185778033Y-136954761D01*
X185635176Y-137002380D01*
X185539938Y-137002380D01*
X185397081Y-136954761D01*
X185301843Y-136859523D01*
X185254224Y-136764285D01*
X185206605Y-136573809D01*
X185206605Y-136430952D01*
X185254224Y-136240476D01*
X185301843Y-136145238D01*
X185397081Y-136050000D01*
X185539938Y-136002380D01*
X185635176Y-136002380D01*
X185778033Y-136050000D01*
X185825652Y-136097619D01*
X186778033Y-137002380D02*
X186206605Y-137002380D01*
X186492319Y-137002380D02*
X186492319Y-136002380D01*
X186397081Y-136145238D01*
X186301843Y-136240476D01*
X186206605Y-136288095D01*
X187349462Y-136430952D02*
X187254224Y-136383333D01*
X187206605Y-136335714D01*
X187158986Y-136240476D01*
X187158986Y-136192857D01*
X187206605Y-136097619D01*
X187254224Y-136050000D01*
X187349462Y-136002380D01*
X187539938Y-136002380D01*
X187635176Y-136050000D01*
X187682795Y-136097619D01*
X187730414Y-136192857D01*
X187730414Y-136240476D01*
X187682795Y-136335714D01*
X187635176Y-136383333D01*
X187539938Y-136430952D01*
X187349462Y-136430952D01*
X187254224Y-136478571D01*
X187206605Y-136526190D01*
X187158986Y-136621428D01*
X187158986Y-136811904D01*
X187206605Y-136907142D01*
X187254224Y-136954761D01*
X187349462Y-137002380D01*
X187539938Y-137002380D01*
X187635176Y-136954761D01*
X187682795Y-136907142D01*
X187730414Y-136811904D01*
X187730414Y-136621428D01*
X187682795Y-136526190D01*
X187635176Y-136478571D01*
X187539938Y-136430952D01*
X99575652Y-129407142D02*
X99528033Y-129454761D01*
X99385176Y-129502380D01*
X99289938Y-129502380D01*
X99147081Y-129454761D01*
X99051843Y-129359523D01*
X99004224Y-129264285D01*
X98956605Y-129073809D01*
X98956605Y-128930952D01*
X99004224Y-128740476D01*
X99051843Y-128645238D01*
X99147081Y-128550000D01*
X99289938Y-128502380D01*
X99385176Y-128502380D01*
X99528033Y-128550000D01*
X99575652Y-128597619D01*
X99956605Y-128597619D02*
X100004224Y-128550000D01*
X100099462Y-128502380D01*
X100337557Y-128502380D01*
X100432795Y-128550000D01*
X100480414Y-128597619D01*
X100528033Y-128692857D01*
X100528033Y-128788095D01*
X100480414Y-128930952D01*
X99908986Y-129502380D01*
X100528033Y-129502380D01*
X101147081Y-128502380D02*
X101242319Y-128502380D01*
X101337557Y-128550000D01*
X101385176Y-128597619D01*
X101432795Y-128692857D01*
X101480414Y-128883333D01*
X101480414Y-129121428D01*
X101432795Y-129311904D01*
X101385176Y-129407142D01*
X101337557Y-129454761D01*
X101242319Y-129502380D01*
X101147081Y-129502380D01*
X101051843Y-129454761D01*
X101004224Y-129407142D01*
X100956605Y-129311904D01*
X100908986Y-129121428D01*
X100908986Y-128883333D01*
X100956605Y-128692857D01*
X101004224Y-128597619D01*
X101051843Y-128550000D01*
X101147081Y-128502380D01*
X99575652Y-88032142D02*
X99528033Y-88079761D01*
X99385176Y-88127380D01*
X99289938Y-88127380D01*
X99147081Y-88079761D01*
X99051843Y-87984523D01*
X99004224Y-87889285D01*
X98956605Y-87698809D01*
X98956605Y-87555952D01*
X99004224Y-87365476D01*
X99051843Y-87270238D01*
X99147081Y-87175000D01*
X99289938Y-87127380D01*
X99385176Y-87127380D01*
X99528033Y-87175000D01*
X99575652Y-87222619D01*
X99956605Y-87222619D02*
X100004224Y-87175000D01*
X100099462Y-87127380D01*
X100337557Y-87127380D01*
X100432795Y-87175000D01*
X100480414Y-87222619D01*
X100528033Y-87317857D01*
X100528033Y-87413095D01*
X100480414Y-87555952D01*
X99908986Y-88127380D01*
X100528033Y-88127380D01*
X100908986Y-87222619D02*
X100956605Y-87175000D01*
X101051843Y-87127380D01*
X101289938Y-87127380D01*
X101385176Y-87175000D01*
X101432795Y-87222619D01*
X101480414Y-87317857D01*
X101480414Y-87413095D01*
X101432795Y-87555952D01*
X100861367Y-88127380D01*
X101480414Y-88127380D01*
X135557142Y-108957142D02*
X135509523Y-109004761D01*
X135366666Y-109052380D01*
X135271428Y-109052380D01*
X135128571Y-109004761D01*
X135033333Y-108909523D01*
X134985714Y-108814285D01*
X134938095Y-108623809D01*
X134938095Y-108480952D01*
X134985714Y-108290476D01*
X135033333Y-108195238D01*
X135128571Y-108100000D01*
X135271428Y-108052380D01*
X135366666Y-108052380D01*
X135509523Y-108100000D01*
X135557142Y-108147619D01*
X135938095Y-108147619D02*
X135985714Y-108100000D01*
X136080952Y-108052380D01*
X136319047Y-108052380D01*
X136414285Y-108100000D01*
X136461904Y-108147619D01*
X136509523Y-108242857D01*
X136509523Y-108338095D01*
X136461904Y-108480952D01*
X135890476Y-109052380D01*
X136509523Y-109052380D01*
X137366666Y-108052380D02*
X137176190Y-108052380D01*
X137080952Y-108100000D01*
X137033333Y-108147619D01*
X136938095Y-108290476D01*
X136890476Y-108480952D01*
X136890476Y-108861904D01*
X136938095Y-108957142D01*
X136985714Y-109004761D01*
X137080952Y-109052380D01*
X137271428Y-109052380D01*
X137366666Y-109004761D01*
X137414285Y-108957142D01*
X137461904Y-108861904D01*
X137461904Y-108623809D01*
X137414285Y-108528571D01*
X137366666Y-108480952D01*
X137271428Y-108433333D01*
X137080952Y-108433333D01*
X136985714Y-108480952D01*
X136938095Y-108528571D01*
X136890476Y-108623809D01*
X145225652Y-113957142D02*
X145178033Y-114004761D01*
X145035176Y-114052380D01*
X144939938Y-114052380D01*
X144797081Y-114004761D01*
X144701843Y-113909523D01*
X144654224Y-113814285D01*
X144606605Y-113623809D01*
X144606605Y-113480952D01*
X144654224Y-113290476D01*
X144701843Y-113195238D01*
X144797081Y-113100000D01*
X144939938Y-113052380D01*
X145035176Y-113052380D01*
X145178033Y-113100000D01*
X145225652Y-113147619D01*
X145606605Y-113147619D02*
X145654224Y-113100000D01*
X145749462Y-113052380D01*
X145987557Y-113052380D01*
X146082795Y-113100000D01*
X146130414Y-113147619D01*
X146178033Y-113242857D01*
X146178033Y-113338095D01*
X146130414Y-113480952D01*
X145558986Y-114052380D01*
X146178033Y-114052380D01*
X146511367Y-113052380D02*
X147178033Y-113052380D01*
X146749462Y-114052380D01*
X143825652Y-105032142D02*
X143778033Y-105079761D01*
X143635176Y-105127380D01*
X143539938Y-105127380D01*
X143397081Y-105079761D01*
X143301843Y-104984523D01*
X143254224Y-104889285D01*
X143206605Y-104698809D01*
X143206605Y-104555952D01*
X143254224Y-104365476D01*
X143301843Y-104270238D01*
X143397081Y-104175000D01*
X143539938Y-104127380D01*
X143635176Y-104127380D01*
X143778033Y-104175000D01*
X143825652Y-104222619D01*
X144206605Y-104222619D02*
X144254224Y-104175000D01*
X144349462Y-104127380D01*
X144587557Y-104127380D01*
X144682795Y-104175000D01*
X144730414Y-104222619D01*
X144778033Y-104317857D01*
X144778033Y-104413095D01*
X144730414Y-104555952D01*
X144158986Y-105127380D01*
X144778033Y-105127380D01*
X145254224Y-105127380D02*
X145444700Y-105127380D01*
X145539938Y-105079761D01*
X145587557Y-105032142D01*
X145682795Y-104889285D01*
X145730414Y-104698809D01*
X145730414Y-104317857D01*
X145682795Y-104222619D01*
X145635176Y-104175000D01*
X145539938Y-104127380D01*
X145349462Y-104127380D01*
X145254224Y-104175000D01*
X145206605Y-104222619D01*
X145158986Y-104317857D01*
X145158986Y-104555952D01*
X145206605Y-104651190D01*
X145254224Y-104698809D01*
X145349462Y-104746428D01*
X145539938Y-104746428D01*
X145635176Y-104698809D01*
X145682795Y-104651190D01*
X145730414Y-104555952D01*
X145057142Y-119257142D02*
X145009523Y-119304761D01*
X144866666Y-119352380D01*
X144771428Y-119352380D01*
X144628571Y-119304761D01*
X144533333Y-119209523D01*
X144485714Y-119114285D01*
X144438095Y-118923809D01*
X144438095Y-118780952D01*
X144485714Y-118590476D01*
X144533333Y-118495238D01*
X144628571Y-118400000D01*
X144771428Y-118352380D01*
X144866666Y-118352380D01*
X145009523Y-118400000D01*
X145057142Y-118447619D01*
X145390476Y-118352380D02*
X146009523Y-118352380D01*
X145676190Y-118733333D01*
X145819047Y-118733333D01*
X145914285Y-118780952D01*
X145961904Y-118828571D01*
X146009523Y-118923809D01*
X146009523Y-119161904D01*
X145961904Y-119257142D01*
X145914285Y-119304761D01*
X145819047Y-119352380D01*
X145533333Y-119352380D01*
X145438095Y-119304761D01*
X145390476Y-119257142D01*
X146628571Y-118352380D02*
X146723809Y-118352380D01*
X146819047Y-118400000D01*
X146866666Y-118447619D01*
X146914285Y-118542857D01*
X146961904Y-118733333D01*
X146961904Y-118971428D01*
X146914285Y-119161904D01*
X146866666Y-119257142D01*
X146819047Y-119304761D01*
X146723809Y-119352380D01*
X146628571Y-119352380D01*
X146533333Y-119304761D01*
X146485714Y-119257142D01*
X146438095Y-119161904D01*
X146390476Y-118971428D01*
X146390476Y-118733333D01*
X146438095Y-118542857D01*
X146485714Y-118447619D01*
X146533333Y-118400000D01*
X146628571Y-118352380D01*
X136957142Y-118957142D02*
X136909523Y-119004761D01*
X136766666Y-119052380D01*
X136671428Y-119052380D01*
X136528571Y-119004761D01*
X136433333Y-118909523D01*
X136385714Y-118814285D01*
X136338095Y-118623809D01*
X136338095Y-118480952D01*
X136385714Y-118290476D01*
X136433333Y-118195238D01*
X136528571Y-118100000D01*
X136671428Y-118052380D01*
X136766666Y-118052380D01*
X136909523Y-118100000D01*
X136957142Y-118147619D01*
X137290476Y-118052380D02*
X137909523Y-118052380D01*
X137576190Y-118433333D01*
X137719047Y-118433333D01*
X137814285Y-118480952D01*
X137861904Y-118528571D01*
X137909523Y-118623809D01*
X137909523Y-118861904D01*
X137861904Y-118957142D01*
X137814285Y-119004761D01*
X137719047Y-119052380D01*
X137433333Y-119052380D01*
X137338095Y-119004761D01*
X137290476Y-118957142D01*
X138861904Y-119052380D02*
X138290476Y-119052380D01*
X138576190Y-119052380D02*
X138576190Y-118052380D01*
X138480952Y-118195238D01*
X138385714Y-118290476D01*
X138290476Y-118338095D01*
X140300652Y-117407142D02*
X140253033Y-117454761D01*
X140110176Y-117502380D01*
X140014938Y-117502380D01*
X139872081Y-117454761D01*
X139776843Y-117359523D01*
X139729224Y-117264285D01*
X139681605Y-117073809D01*
X139681605Y-116930952D01*
X139729224Y-116740476D01*
X139776843Y-116645238D01*
X139872081Y-116550000D01*
X140014938Y-116502380D01*
X140110176Y-116502380D01*
X140253033Y-116550000D01*
X140300652Y-116597619D01*
X140633986Y-116502380D02*
X141253033Y-116502380D01*
X140919700Y-116883333D01*
X141062557Y-116883333D01*
X141157795Y-116930952D01*
X141205414Y-116978571D01*
X141253033Y-117073809D01*
X141253033Y-117311904D01*
X141205414Y-117407142D01*
X141157795Y-117454761D01*
X141062557Y-117502380D01*
X140776843Y-117502380D01*
X140681605Y-117454761D01*
X140633986Y-117407142D01*
X141633986Y-116597619D02*
X141681605Y-116550000D01*
X141776843Y-116502380D01*
X142014938Y-116502380D01*
X142110176Y-116550000D01*
X142157795Y-116597619D01*
X142205414Y-116692857D01*
X142205414Y-116788095D01*
X142157795Y-116930952D01*
X141586367Y-117502380D01*
X142205414Y-117502380D01*
X177857142Y-129357142D02*
X177809523Y-129404761D01*
X177666666Y-129452380D01*
X177571428Y-129452380D01*
X177428571Y-129404761D01*
X177333333Y-129309523D01*
X177285714Y-129214285D01*
X177238095Y-129023809D01*
X177238095Y-128880952D01*
X177285714Y-128690476D01*
X177333333Y-128595238D01*
X177428571Y-128500000D01*
X177571428Y-128452380D01*
X177666666Y-128452380D01*
X177809523Y-128500000D01*
X177857142Y-128547619D01*
X178190476Y-128452380D02*
X178809523Y-128452380D01*
X178476190Y-128833333D01*
X178619047Y-128833333D01*
X178714285Y-128880952D01*
X178761904Y-128928571D01*
X178809523Y-129023809D01*
X178809523Y-129261904D01*
X178761904Y-129357142D01*
X178714285Y-129404761D01*
X178619047Y-129452380D01*
X178333333Y-129452380D01*
X178238095Y-129404761D01*
X178190476Y-129357142D01*
X179142857Y-128452380D02*
X179761904Y-128452380D01*
X179428571Y-128833333D01*
X179571428Y-128833333D01*
X179666666Y-128880952D01*
X179714285Y-128928571D01*
X179761904Y-129023809D01*
X179761904Y-129261904D01*
X179714285Y-129357142D01*
X179666666Y-129404761D01*
X179571428Y-129452380D01*
X179285714Y-129452380D01*
X179190476Y-129404761D01*
X179142857Y-129357142D01*
X160575652Y-128657142D02*
X160528033Y-128704761D01*
X160385176Y-128752380D01*
X160289938Y-128752380D01*
X160147081Y-128704761D01*
X160051843Y-128609523D01*
X160004224Y-128514285D01*
X159956605Y-128323809D01*
X159956605Y-128180952D01*
X160004224Y-127990476D01*
X160051843Y-127895238D01*
X160147081Y-127800000D01*
X160289938Y-127752380D01*
X160385176Y-127752380D01*
X160528033Y-127800000D01*
X160575652Y-127847619D01*
X160908986Y-127752380D02*
X161528033Y-127752380D01*
X161194700Y-128133333D01*
X161337557Y-128133333D01*
X161432795Y-128180952D01*
X161480414Y-128228571D01*
X161528033Y-128323809D01*
X161528033Y-128561904D01*
X161480414Y-128657142D01*
X161432795Y-128704761D01*
X161337557Y-128752380D01*
X161051843Y-128752380D01*
X160956605Y-128704761D01*
X160908986Y-128657142D01*
X162432795Y-127752380D02*
X161956605Y-127752380D01*
X161908986Y-128228571D01*
X161956605Y-128180952D01*
X162051843Y-128133333D01*
X162289938Y-128133333D01*
X162385176Y-128180952D01*
X162432795Y-128228571D01*
X162480414Y-128323809D01*
X162480414Y-128561904D01*
X162432795Y-128657142D01*
X162385176Y-128704761D01*
X162289938Y-128752380D01*
X162051843Y-128752380D01*
X161956605Y-128704761D01*
X161908986Y-128657142D01*
X109075652Y-144957142D02*
X109028033Y-145004761D01*
X108885176Y-145052380D01*
X108789938Y-145052380D01*
X108647081Y-145004761D01*
X108551843Y-144909523D01*
X108504224Y-144814285D01*
X108456605Y-144623809D01*
X108456605Y-144480952D01*
X108504224Y-144290476D01*
X108551843Y-144195238D01*
X108647081Y-144100000D01*
X108789938Y-144052380D01*
X108885176Y-144052380D01*
X109028033Y-144100000D01*
X109075652Y-144147619D01*
X109408986Y-144052380D02*
X110028033Y-144052380D01*
X109694700Y-144433333D01*
X109837557Y-144433333D01*
X109932795Y-144480952D01*
X109980414Y-144528571D01*
X110028033Y-144623809D01*
X110028033Y-144861904D01*
X109980414Y-144957142D01*
X109932795Y-145004761D01*
X109837557Y-145052380D01*
X109551843Y-145052380D01*
X109456605Y-145004761D01*
X109408986Y-144957142D01*
X110504224Y-145052380D02*
X110694700Y-145052380D01*
X110789938Y-145004761D01*
X110837557Y-144957142D01*
X110932795Y-144814285D01*
X110980414Y-144623809D01*
X110980414Y-144242857D01*
X110932795Y-144147619D01*
X110885176Y-144100000D01*
X110789938Y-144052380D01*
X110599462Y-144052380D01*
X110504224Y-144100000D01*
X110456605Y-144147619D01*
X110408986Y-144242857D01*
X110408986Y-144480952D01*
X110456605Y-144576190D01*
X110504224Y-144623809D01*
X110599462Y-144671428D01*
X110789938Y-144671428D01*
X110885176Y-144623809D01*
X110932795Y-144576190D01*
X110980414Y-144480952D01*
X124075652Y-143157142D02*
X124028033Y-143204761D01*
X123885176Y-143252380D01*
X123789938Y-143252380D01*
X123647081Y-143204761D01*
X123551843Y-143109523D01*
X123504224Y-143014285D01*
X123456605Y-142823809D01*
X123456605Y-142680952D01*
X123504224Y-142490476D01*
X123551843Y-142395238D01*
X123647081Y-142300000D01*
X123789938Y-142252380D01*
X123885176Y-142252380D01*
X124028033Y-142300000D01*
X124075652Y-142347619D01*
X124932795Y-142585714D02*
X124932795Y-143252380D01*
X124694700Y-142204761D02*
X124456605Y-142919047D01*
X125075652Y-142919047D01*
X125647081Y-142252380D02*
X125742319Y-142252380D01*
X125837557Y-142300000D01*
X125885176Y-142347619D01*
X125932795Y-142442857D01*
X125980414Y-142633333D01*
X125980414Y-142871428D01*
X125932795Y-143061904D01*
X125885176Y-143157142D01*
X125837557Y-143204761D01*
X125742319Y-143252380D01*
X125647081Y-143252380D01*
X125551843Y-143204761D01*
X125504224Y-143157142D01*
X125456605Y-143061904D01*
X125408986Y-142871428D01*
X125408986Y-142633333D01*
X125456605Y-142442857D01*
X125504224Y-142347619D01*
X125551843Y-142300000D01*
X125647081Y-142252380D01*
X124025652Y-147107142D02*
X123978033Y-147154761D01*
X123835176Y-147202380D01*
X123739938Y-147202380D01*
X123597081Y-147154761D01*
X123501843Y-147059523D01*
X123454224Y-146964285D01*
X123406605Y-146773809D01*
X123406605Y-146630952D01*
X123454224Y-146440476D01*
X123501843Y-146345238D01*
X123597081Y-146250000D01*
X123739938Y-146202380D01*
X123835176Y-146202380D01*
X123978033Y-146250000D01*
X124025652Y-146297619D01*
X124358986Y-146202380D02*
X124978033Y-146202380D01*
X124644700Y-146583333D01*
X124787557Y-146583333D01*
X124882795Y-146630952D01*
X124930414Y-146678571D01*
X124978033Y-146773809D01*
X124978033Y-147011904D01*
X124930414Y-147107142D01*
X124882795Y-147154761D01*
X124787557Y-147202380D01*
X124501843Y-147202380D01*
X124406605Y-147154761D01*
X124358986Y-147107142D01*
X125311367Y-146202380D02*
X125978033Y-146202380D01*
X125549462Y-147202380D01*
X125657142Y-118107142D02*
X125609523Y-118154761D01*
X125466666Y-118202380D01*
X125371428Y-118202380D01*
X125228571Y-118154761D01*
X125133333Y-118059523D01*
X125085714Y-117964285D01*
X125038095Y-117773809D01*
X125038095Y-117630952D01*
X125085714Y-117440476D01*
X125133333Y-117345238D01*
X125228571Y-117250000D01*
X125371428Y-117202380D01*
X125466666Y-117202380D01*
X125609523Y-117250000D01*
X125657142Y-117297619D01*
X125990476Y-117202380D02*
X126609523Y-117202380D01*
X126276190Y-117583333D01*
X126419047Y-117583333D01*
X126514285Y-117630952D01*
X126561904Y-117678571D01*
X126609523Y-117773809D01*
X126609523Y-118011904D01*
X126561904Y-118107142D01*
X126514285Y-118154761D01*
X126419047Y-118202380D01*
X126133333Y-118202380D01*
X126038095Y-118154761D01*
X125990476Y-118107142D01*
X127180952Y-117630952D02*
X127085714Y-117583333D01*
X127038095Y-117535714D01*
X126990476Y-117440476D01*
X126990476Y-117392857D01*
X127038095Y-117297619D01*
X127085714Y-117250000D01*
X127180952Y-117202380D01*
X127371428Y-117202380D01*
X127466666Y-117250000D01*
X127514285Y-117297619D01*
X127561904Y-117392857D01*
X127561904Y-117440476D01*
X127514285Y-117535714D01*
X127466666Y-117583333D01*
X127371428Y-117630952D01*
X127180952Y-117630952D01*
X127085714Y-117678571D01*
X127038095Y-117726190D01*
X126990476Y-117821428D01*
X126990476Y-118011904D01*
X127038095Y-118107142D01*
X127085714Y-118154761D01*
X127180952Y-118202380D01*
X127371428Y-118202380D01*
X127466666Y-118154761D01*
X127514285Y-118107142D01*
X127561904Y-118011904D01*
X127561904Y-117821428D01*
X127514285Y-117726190D01*
X127466666Y-117678571D01*
X127371428Y-117630952D01*
X117230414Y-63502380D02*
X117230414Y-62502380D01*
X117468510Y-62502380D01*
X117611367Y-62550000D01*
X117706605Y-62645238D01*
X117754224Y-62740476D01*
X117801843Y-62930952D01*
X117801843Y-63073809D01*
X117754224Y-63264285D01*
X117706605Y-63359523D01*
X117611367Y-63454761D01*
X117468510Y-63502380D01*
X117230414Y-63502380D01*
X118754224Y-63502380D02*
X118182795Y-63502380D01*
X118468510Y-63502380D02*
X118468510Y-62502380D01*
X118373271Y-62645238D01*
X118278033Y-62740476D01*
X118182795Y-62788095D01*
X119230414Y-63502380D02*
X119230414Y-62502380D01*
X119468510Y-62502380D01*
X119611367Y-62550000D01*
X119706605Y-62645238D01*
X119754224Y-62740476D01*
X119801843Y-62930952D01*
X119801843Y-63073809D01*
X119754224Y-63264285D01*
X119706605Y-63359523D01*
X119611367Y-63454761D01*
X119468510Y-63502380D01*
X119230414Y-63502380D01*
X120182795Y-62597619D02*
X120230414Y-62550000D01*
X120325652Y-62502380D01*
X120563748Y-62502380D01*
X120658986Y-62550000D01*
X120706605Y-62597619D01*
X120754224Y-62692857D01*
X120754224Y-62788095D01*
X120706605Y-62930952D01*
X120135176Y-63502380D01*
X120754224Y-63502380D01*
X186861904Y-86752380D02*
X186861904Y-85752380D01*
X187100000Y-85752380D01*
X187242857Y-85800000D01*
X187338095Y-85895238D01*
X187385714Y-85990476D01*
X187433333Y-86180952D01*
X187433333Y-86323809D01*
X187385714Y-86514285D01*
X187338095Y-86609523D01*
X187242857Y-86704761D01*
X187100000Y-86752380D01*
X186861904Y-86752380D01*
X188290476Y-86085714D02*
X188290476Y-86752380D01*
X188052380Y-85704761D02*
X187814285Y-86419047D01*
X188433333Y-86419047D01*
X180961904Y-128552380D02*
X180961904Y-127552380D01*
X181200000Y-127552380D01*
X181342857Y-127600000D01*
X181438095Y-127695238D01*
X181485714Y-127790476D01*
X181533333Y-127980952D01*
X181533333Y-128123809D01*
X181485714Y-128314285D01*
X181438095Y-128409523D01*
X181342857Y-128504761D01*
X181200000Y-128552380D01*
X180961904Y-128552380D01*
X182390476Y-127552380D02*
X182200000Y-127552380D01*
X182104761Y-127600000D01*
X182057142Y-127647619D01*
X181961904Y-127790476D01*
X181914285Y-127980952D01*
X181914285Y-128361904D01*
X181961904Y-128457142D01*
X182009523Y-128504761D01*
X182104761Y-128552380D01*
X182295238Y-128552380D01*
X182390476Y-128504761D01*
X182438095Y-128457142D01*
X182485714Y-128361904D01*
X182485714Y-128123809D01*
X182438095Y-128028571D01*
X182390476Y-127980952D01*
X182295238Y-127933333D01*
X182104761Y-127933333D01*
X182009523Y-127980952D01*
X181961904Y-128028571D01*
X181914285Y-128123809D01*
X94230414Y-135002380D02*
X94230414Y-134002380D01*
X94468510Y-134002380D01*
X94611367Y-134050000D01*
X94706605Y-134145238D01*
X94754224Y-134240476D01*
X94801843Y-134430952D01*
X94801843Y-134573809D01*
X94754224Y-134764285D01*
X94706605Y-134859523D01*
X94611367Y-134954761D01*
X94468510Y-135002380D01*
X94230414Y-135002380D01*
X95373271Y-134430952D02*
X95278033Y-134383333D01*
X95230414Y-134335714D01*
X95182795Y-134240476D01*
X95182795Y-134192857D01*
X95230414Y-134097619D01*
X95278033Y-134050000D01*
X95373271Y-134002380D01*
X95563748Y-134002380D01*
X95658986Y-134050000D01*
X95706605Y-134097619D01*
X95754224Y-134192857D01*
X95754224Y-134240476D01*
X95706605Y-134335714D01*
X95658986Y-134383333D01*
X95563748Y-134430952D01*
X95373271Y-134430952D01*
X95278033Y-134478571D01*
X95230414Y-134526190D01*
X95182795Y-134621428D01*
X95182795Y-134811904D01*
X95230414Y-134907142D01*
X95278033Y-134954761D01*
X95373271Y-135002380D01*
X95563748Y-135002380D01*
X95658986Y-134954761D01*
X95706605Y-134907142D01*
X95754224Y-134811904D01*
X95754224Y-134621428D01*
X95706605Y-134526190D01*
X95658986Y-134478571D01*
X95563748Y-134430952D01*
X96585714Y-86452380D02*
X96585714Y-85452380D01*
X96823809Y-85452380D01*
X96966666Y-85500000D01*
X97061904Y-85595238D01*
X97109523Y-85690476D01*
X97157142Y-85880952D01*
X97157142Y-86023809D01*
X97109523Y-86214285D01*
X97061904Y-86309523D01*
X96966666Y-86404761D01*
X96823809Y-86452380D01*
X96585714Y-86452380D01*
X98109523Y-86452380D02*
X97538095Y-86452380D01*
X97823809Y-86452380D02*
X97823809Y-85452380D01*
X97728571Y-85595238D01*
X97633333Y-85690476D01*
X97538095Y-85738095D01*
X98728571Y-85452380D02*
X98823809Y-85452380D01*
X98919047Y-85500000D01*
X98966666Y-85547619D01*
X99014285Y-85642857D01*
X99061904Y-85833333D01*
X99061904Y-86071428D01*
X99014285Y-86261904D01*
X98966666Y-86357142D01*
X98919047Y-86404761D01*
X98823809Y-86452380D01*
X98728571Y-86452380D01*
X98633333Y-86404761D01*
X98585714Y-86357142D01*
X98538095Y-86261904D01*
X98490476Y-86071428D01*
X98490476Y-85833333D01*
X98538095Y-85642857D01*
X98585714Y-85547619D01*
X98633333Y-85500000D01*
X98728571Y-85452380D01*
X165254224Y-117652380D02*
X165254224Y-116652380D01*
X165492319Y-116652380D01*
X165635176Y-116700000D01*
X165730414Y-116795238D01*
X165778033Y-116890476D01*
X165825652Y-117080952D01*
X165825652Y-117223809D01*
X165778033Y-117414285D01*
X165730414Y-117509523D01*
X165635176Y-117604761D01*
X165492319Y-117652380D01*
X165254224Y-117652380D01*
X166778033Y-117652380D02*
X166206605Y-117652380D01*
X166492319Y-117652380D02*
X166492319Y-116652380D01*
X166397081Y-116795238D01*
X166301843Y-116890476D01*
X166206605Y-116938095D01*
X167635176Y-116985714D02*
X167635176Y-117652380D01*
X167397081Y-116604761D02*
X167158986Y-117319047D01*
X167778033Y-117319047D01*
X164004224Y-154252380D02*
X164004224Y-153252380D01*
X164242319Y-153252380D01*
X164385176Y-153300000D01*
X164480414Y-153395238D01*
X164528033Y-153490476D01*
X164575652Y-153680952D01*
X164575652Y-153823809D01*
X164528033Y-154014285D01*
X164480414Y-154109523D01*
X164385176Y-154204761D01*
X164242319Y-154252380D01*
X164004224Y-154252380D01*
X165528033Y-154252380D02*
X164956605Y-154252380D01*
X165242319Y-154252380D02*
X165242319Y-153252380D01*
X165147081Y-153395238D01*
X165051843Y-153490476D01*
X164956605Y-153538095D01*
X166432795Y-153252380D02*
X165956605Y-153252380D01*
X165908986Y-153728571D01*
X165956605Y-153680952D01*
X166051843Y-153633333D01*
X166289938Y-153633333D01*
X166385176Y-153680952D01*
X166432795Y-153728571D01*
X166480414Y-153823809D01*
X166480414Y-154061904D01*
X166432795Y-154157142D01*
X166385176Y-154204761D01*
X166289938Y-154252380D01*
X166051843Y-154252380D01*
X165956605Y-154204761D01*
X165908986Y-154157142D01*
X120785714Y-151252380D02*
X120785714Y-150252380D01*
X121023809Y-150252380D01*
X121166666Y-150300000D01*
X121261904Y-150395238D01*
X121309523Y-150490476D01*
X121357142Y-150680952D01*
X121357142Y-150823809D01*
X121309523Y-151014285D01*
X121261904Y-151109523D01*
X121166666Y-151204761D01*
X121023809Y-151252380D01*
X120785714Y-151252380D01*
X122309523Y-151252380D02*
X121738095Y-151252380D01*
X122023809Y-151252380D02*
X122023809Y-150252380D01*
X121928571Y-150395238D01*
X121833333Y-150490476D01*
X121738095Y-150538095D01*
X123166666Y-150252380D02*
X122976190Y-150252380D01*
X122880952Y-150300000D01*
X122833333Y-150347619D01*
X122738095Y-150490476D01*
X122690476Y-150680952D01*
X122690476Y-151061904D01*
X122738095Y-151157142D01*
X122785714Y-151204761D01*
X122880952Y-151252380D01*
X123071428Y-151252380D01*
X123166666Y-151204761D01*
X123214285Y-151157142D01*
X123261904Y-151061904D01*
X123261904Y-150823809D01*
X123214285Y-150728571D01*
X123166666Y-150680952D01*
X123071428Y-150633333D01*
X122880952Y-150633333D01*
X122785714Y-150680952D01*
X122738095Y-150728571D01*
X122690476Y-150823809D01*
X159504224Y-154252380D02*
X159504224Y-153252380D01*
X159742319Y-153252380D01*
X159885176Y-153300000D01*
X159980414Y-153395238D01*
X160028033Y-153490476D01*
X160075652Y-153680952D01*
X160075652Y-153823809D01*
X160028033Y-154014285D01*
X159980414Y-154109523D01*
X159885176Y-154204761D01*
X159742319Y-154252380D01*
X159504224Y-154252380D01*
X161028033Y-154252380D02*
X160456605Y-154252380D01*
X160742319Y-154252380D02*
X160742319Y-153252380D01*
X160647081Y-153395238D01*
X160551843Y-153490476D01*
X160456605Y-153538095D01*
X161361367Y-153252380D02*
X162028033Y-153252380D01*
X161599462Y-154252380D01*
X155004224Y-154252380D02*
X155004224Y-153252380D01*
X155242319Y-153252380D01*
X155385176Y-153300000D01*
X155480414Y-153395238D01*
X155528033Y-153490476D01*
X155575652Y-153680952D01*
X155575652Y-153823809D01*
X155528033Y-154014285D01*
X155480414Y-154109523D01*
X155385176Y-154204761D01*
X155242319Y-154252380D01*
X155004224Y-154252380D01*
X156528033Y-154252380D02*
X155956605Y-154252380D01*
X156242319Y-154252380D02*
X156242319Y-153252380D01*
X156147081Y-153395238D01*
X156051843Y-153490476D01*
X155956605Y-153538095D01*
X157099462Y-153680952D02*
X157004224Y-153633333D01*
X156956605Y-153585714D01*
X156908986Y-153490476D01*
X156908986Y-153442857D01*
X156956605Y-153347619D01*
X157004224Y-153300000D01*
X157099462Y-153252380D01*
X157289938Y-153252380D01*
X157385176Y-153300000D01*
X157432795Y-153347619D01*
X157480414Y-153442857D01*
X157480414Y-153490476D01*
X157432795Y-153585714D01*
X157385176Y-153633333D01*
X157289938Y-153680952D01*
X157099462Y-153680952D01*
X157004224Y-153728571D01*
X156956605Y-153776190D01*
X156908986Y-153871428D01*
X156908986Y-154061904D01*
X156956605Y-154157142D01*
X157004224Y-154204761D01*
X157099462Y-154252380D01*
X157289938Y-154252380D01*
X157385176Y-154204761D01*
X157432795Y-154157142D01*
X157480414Y-154061904D01*
X157480414Y-153871428D01*
X157432795Y-153776190D01*
X157385176Y-153728571D01*
X157289938Y-153680952D01*
X102254224Y-146502380D02*
X102254224Y-145502380D01*
X102492319Y-145502380D01*
X102635176Y-145550000D01*
X102730414Y-145645238D01*
X102778033Y-145740476D01*
X102825652Y-145930952D01*
X102825652Y-146073809D01*
X102778033Y-146264285D01*
X102730414Y-146359523D01*
X102635176Y-146454761D01*
X102492319Y-146502380D01*
X102254224Y-146502380D01*
X103778033Y-146502380D02*
X103206605Y-146502380D01*
X103492319Y-146502380D02*
X103492319Y-145502380D01*
X103397081Y-145645238D01*
X103301843Y-145740476D01*
X103206605Y-145788095D01*
X104254224Y-146502380D02*
X104444700Y-146502380D01*
X104539938Y-146454761D01*
X104587557Y-146407142D01*
X104682795Y-146264285D01*
X104730414Y-146073809D01*
X104730414Y-145692857D01*
X104682795Y-145597619D01*
X104635176Y-145550000D01*
X104539938Y-145502380D01*
X104349462Y-145502380D01*
X104254224Y-145550000D01*
X104206605Y-145597619D01*
X104158986Y-145692857D01*
X104158986Y-145930952D01*
X104206605Y-146026190D01*
X104254224Y-146073809D01*
X104349462Y-146121428D01*
X104539938Y-146121428D01*
X104635176Y-146073809D01*
X104682795Y-146026190D01*
X104730414Y-145930952D01*
X113504224Y-154002380D02*
X113504224Y-153002380D01*
X113742319Y-153002380D01*
X113885176Y-153050000D01*
X113980414Y-153145238D01*
X114028033Y-153240476D01*
X114075652Y-153430952D01*
X114075652Y-153573809D01*
X114028033Y-153764285D01*
X113980414Y-153859523D01*
X113885176Y-153954761D01*
X113742319Y-154002380D01*
X113504224Y-154002380D01*
X114456605Y-153097619D02*
X114504224Y-153050000D01*
X114599462Y-153002380D01*
X114837557Y-153002380D01*
X114932795Y-153050000D01*
X114980414Y-153097619D01*
X115028033Y-153192857D01*
X115028033Y-153288095D01*
X114980414Y-153430952D01*
X114408986Y-154002380D01*
X115028033Y-154002380D01*
X115647081Y-153002380D02*
X115742319Y-153002380D01*
X115837557Y-153050000D01*
X115885176Y-153097619D01*
X115932795Y-153192857D01*
X115980414Y-153383333D01*
X115980414Y-153621428D01*
X115932795Y-153811904D01*
X115885176Y-153907142D01*
X115837557Y-153954761D01*
X115742319Y-154002380D01*
X115647081Y-154002380D01*
X115551843Y-153954761D01*
X115504224Y-153907142D01*
X115456605Y-153811904D01*
X115408986Y-153621428D01*
X115408986Y-153383333D01*
X115456605Y-153192857D01*
X115504224Y-153097619D01*
X115551843Y-153050000D01*
X115647081Y-153002380D01*
X116504224Y-154002380D02*
X116504224Y-153002380D01*
X116742319Y-153002380D01*
X116885176Y-153050000D01*
X116980414Y-153145238D01*
X117028033Y-153240476D01*
X117075652Y-153430952D01*
X117075652Y-153573809D01*
X117028033Y-153764285D01*
X116980414Y-153859523D01*
X116885176Y-153954761D01*
X116742319Y-154002380D01*
X116504224Y-154002380D01*
X117456605Y-153097619D02*
X117504224Y-153050000D01*
X117599462Y-153002380D01*
X117837557Y-153002380D01*
X117932795Y-153050000D01*
X117980414Y-153097619D01*
X118028033Y-153192857D01*
X118028033Y-153288095D01*
X117980414Y-153430952D01*
X117408986Y-154002380D01*
X118028033Y-154002380D01*
X118980414Y-154002380D02*
X118408986Y-154002380D01*
X118694700Y-154002380D02*
X118694700Y-153002380D01*
X118599462Y-153145238D01*
X118504224Y-153240476D01*
X118408986Y-153288095D01*
X121908986Y-153702380D02*
X121908986Y-154416666D01*
X121861367Y-154559523D01*
X121766129Y-154654761D01*
X121623271Y-154702380D01*
X121528033Y-154702380D01*
X122337557Y-153797619D02*
X122385176Y-153750000D01*
X122480414Y-153702380D01*
X122718510Y-153702380D01*
X122813748Y-153750000D01*
X122861367Y-153797619D01*
X122908986Y-153892857D01*
X122908986Y-153988095D01*
X122861367Y-154130952D01*
X122289938Y-154702380D01*
X122908986Y-154702380D01*
X123242319Y-153702380D02*
X123861367Y-153702380D01*
X123528033Y-154083333D01*
X123670890Y-154083333D01*
X123766129Y-154130952D01*
X123813748Y-154178571D01*
X123861367Y-154273809D01*
X123861367Y-154511904D01*
X123813748Y-154607142D01*
X123766129Y-154654761D01*
X123670890Y-154702380D01*
X123385176Y-154702380D01*
X123289938Y-154654761D01*
X123242319Y-154607142D01*
X163666666Y-91552380D02*
X163666666Y-92266666D01*
X163619047Y-92409523D01*
X163523809Y-92504761D01*
X163380952Y-92552380D01*
X163285714Y-92552380D01*
X164142857Y-92552380D02*
X164142857Y-91552380D01*
X164523809Y-91552380D01*
X164619047Y-91600000D01*
X164666666Y-91647619D01*
X164714285Y-91742857D01*
X164714285Y-91885714D01*
X164666666Y-91980952D01*
X164619047Y-92028571D01*
X164523809Y-92076190D01*
X164142857Y-92076190D01*
X165095238Y-91647619D02*
X165142857Y-91600000D01*
X165238095Y-91552380D01*
X165476190Y-91552380D01*
X165571428Y-91600000D01*
X165619047Y-91647619D01*
X165666666Y-91742857D01*
X165666666Y-91838095D01*
X165619047Y-91980952D01*
X165047619Y-92552380D01*
X165666666Y-92552380D01*
X163766666Y-81352380D02*
X163766666Y-82066666D01*
X163719047Y-82209523D01*
X163623809Y-82304761D01*
X163480952Y-82352380D01*
X163385714Y-82352380D01*
X164242857Y-82352380D02*
X164242857Y-81352380D01*
X164623809Y-81352380D01*
X164719047Y-81400000D01*
X164766666Y-81447619D01*
X164814285Y-81542857D01*
X164814285Y-81685714D01*
X164766666Y-81780952D01*
X164719047Y-81828571D01*
X164623809Y-81876190D01*
X164242857Y-81876190D01*
X165147619Y-81352380D02*
X165766666Y-81352380D01*
X165433333Y-81733333D01*
X165576190Y-81733333D01*
X165671428Y-81780952D01*
X165719047Y-81828571D01*
X165766666Y-81923809D01*
X165766666Y-82161904D01*
X165719047Y-82257142D01*
X165671428Y-82304761D01*
X165576190Y-82352380D01*
X165290476Y-82352380D01*
X165195238Y-82304761D01*
X165147619Y-82257142D01*
X163766666Y-72152380D02*
X163766666Y-72866666D01*
X163719047Y-73009523D01*
X163623809Y-73104761D01*
X163480952Y-73152380D01*
X163385714Y-73152380D01*
X164242857Y-73152380D02*
X164242857Y-72152380D01*
X164623809Y-72152380D01*
X164719047Y-72200000D01*
X164766666Y-72247619D01*
X164814285Y-72342857D01*
X164814285Y-72485714D01*
X164766666Y-72580952D01*
X164719047Y-72628571D01*
X164623809Y-72676190D01*
X164242857Y-72676190D01*
X165671428Y-72485714D02*
X165671428Y-73152380D01*
X165433333Y-72104761D02*
X165195238Y-72819047D01*
X165814285Y-72819047D01*
X106835176Y-122252380D02*
X106835176Y-122966666D01*
X106787557Y-123109523D01*
X106692319Y-123204761D01*
X106549462Y-123252380D01*
X106454224Y-123252380D01*
X107311367Y-123252380D02*
X107311367Y-122252380D01*
X107692319Y-122252380D01*
X107787557Y-122300000D01*
X107835176Y-122347619D01*
X107882795Y-122442857D01*
X107882795Y-122585714D01*
X107835176Y-122680952D01*
X107787557Y-122728571D01*
X107692319Y-122776190D01*
X107311367Y-122776190D01*
X108787557Y-122252380D02*
X108311367Y-122252380D01*
X108263748Y-122728571D01*
X108311367Y-122680952D01*
X108406605Y-122633333D01*
X108644700Y-122633333D01*
X108739938Y-122680952D01*
X108787557Y-122728571D01*
X108835176Y-122823809D01*
X108835176Y-123061904D01*
X108787557Y-123157142D01*
X108739938Y-123204761D01*
X108644700Y-123252380D01*
X108406605Y-123252380D01*
X108311367Y-123204761D01*
X108263748Y-123157142D01*
X102235176Y-122352380D02*
X102235176Y-123066666D01*
X102187557Y-123209523D01*
X102092319Y-123304761D01*
X101949462Y-123352380D01*
X101854224Y-123352380D01*
X102711367Y-123352380D02*
X102711367Y-122352380D01*
X103092319Y-122352380D01*
X103187557Y-122400000D01*
X103235176Y-122447619D01*
X103282795Y-122542857D01*
X103282795Y-122685714D01*
X103235176Y-122780952D01*
X103187557Y-122828571D01*
X103092319Y-122876190D01*
X102711367Y-122876190D01*
X104139938Y-122352380D02*
X103949462Y-122352380D01*
X103854224Y-122400000D01*
X103806605Y-122447619D01*
X103711367Y-122590476D01*
X103663748Y-122780952D01*
X103663748Y-123161904D01*
X103711367Y-123257142D01*
X103758986Y-123304761D01*
X103854224Y-123352380D01*
X104044700Y-123352380D01*
X104139938Y-123304761D01*
X104187557Y-123257142D01*
X104235176Y-123161904D01*
X104235176Y-122923809D01*
X104187557Y-122828571D01*
X104139938Y-122780952D01*
X104044700Y-122733333D01*
X103854224Y-122733333D01*
X103758986Y-122780952D01*
X103711367Y-122828571D01*
X103663748Y-122923809D01*
X124385176Y-75252380D02*
X124385176Y-75966666D01*
X124337557Y-76109523D01*
X124242319Y-76204761D01*
X124099462Y-76252380D01*
X124004224Y-76252380D01*
X124861367Y-76252380D02*
X124861367Y-75252380D01*
X125242319Y-75252380D01*
X125337557Y-75300000D01*
X125385176Y-75347619D01*
X125432795Y-75442857D01*
X125432795Y-75585714D01*
X125385176Y-75680952D01*
X125337557Y-75728571D01*
X125242319Y-75776190D01*
X124861367Y-75776190D01*
X126385176Y-76252380D02*
X125813748Y-76252380D01*
X126099462Y-76252380D02*
X126099462Y-75252380D01*
X126004224Y-75395238D01*
X125908986Y-75490476D01*
X125813748Y-75538095D01*
X123908986Y-72802380D02*
X123908986Y-73516666D01*
X123861367Y-73659523D01*
X123766129Y-73754761D01*
X123623271Y-73802380D01*
X123528033Y-73802380D01*
X124385176Y-73802380D02*
X124385176Y-72802380D01*
X124766129Y-72802380D01*
X124861367Y-72850000D01*
X124908986Y-72897619D01*
X124956605Y-72992857D01*
X124956605Y-73135714D01*
X124908986Y-73230952D01*
X124861367Y-73278571D01*
X124766129Y-73326190D01*
X124385176Y-73326190D01*
X125908986Y-73802380D02*
X125337557Y-73802380D01*
X125623271Y-73802380D02*
X125623271Y-72802380D01*
X125528033Y-72945238D01*
X125432795Y-73040476D01*
X125337557Y-73088095D01*
X126385176Y-73802380D02*
X126575652Y-73802380D01*
X126670890Y-73754761D01*
X126718510Y-73707142D01*
X126813748Y-73564285D01*
X126861367Y-73373809D01*
X126861367Y-72992857D01*
X126813748Y-72897619D01*
X126766129Y-72850000D01*
X126670890Y-72802380D01*
X126480414Y-72802380D01*
X126385176Y-72850000D01*
X126337557Y-72897619D01*
X126289938Y-72992857D01*
X126289938Y-73230952D01*
X126337557Y-73326190D01*
X126385176Y-73373809D01*
X126480414Y-73421428D01*
X126670890Y-73421428D01*
X126766129Y-73373809D01*
X126813748Y-73326190D01*
X126861367Y-73230952D01*
X108678986Y-75232380D02*
X108678986Y-75946666D01*
X108631367Y-76089523D01*
X108536129Y-76184761D01*
X108393271Y-76232380D01*
X108298033Y-76232380D01*
X109155176Y-76232380D02*
X109155176Y-75232380D01*
X109536129Y-75232380D01*
X109631367Y-75280000D01*
X109678986Y-75327619D01*
X109726605Y-75422857D01*
X109726605Y-75565714D01*
X109678986Y-75660952D01*
X109631367Y-75708571D01*
X109536129Y-75756190D01*
X109155176Y-75756190D01*
X110107557Y-75327619D02*
X110155176Y-75280000D01*
X110250414Y-75232380D01*
X110488510Y-75232380D01*
X110583748Y-75280000D01*
X110631367Y-75327619D01*
X110678986Y-75422857D01*
X110678986Y-75518095D01*
X110631367Y-75660952D01*
X110059938Y-76232380D01*
X110678986Y-76232380D01*
X111012319Y-75232380D02*
X111631367Y-75232380D01*
X111298033Y-75613333D01*
X111440890Y-75613333D01*
X111536129Y-75660952D01*
X111583748Y-75708571D01*
X111631367Y-75803809D01*
X111631367Y-76041904D01*
X111583748Y-76137142D01*
X111536129Y-76184761D01*
X111440890Y-76232380D01*
X111155176Y-76232380D01*
X111059938Y-76184761D01*
X111012319Y-76137142D01*
X113758986Y-75232380D02*
X113758986Y-75946666D01*
X113711367Y-76089523D01*
X113616129Y-76184761D01*
X113473271Y-76232380D01*
X113378033Y-76232380D01*
X114235176Y-76232380D02*
X114235176Y-75232380D01*
X114616129Y-75232380D01*
X114711367Y-75280000D01*
X114758986Y-75327619D01*
X114806605Y-75422857D01*
X114806605Y-75565714D01*
X114758986Y-75660952D01*
X114711367Y-75708571D01*
X114616129Y-75756190D01*
X114235176Y-75756190D01*
X115187557Y-75327619D02*
X115235176Y-75280000D01*
X115330414Y-75232380D01*
X115568510Y-75232380D01*
X115663748Y-75280000D01*
X115711367Y-75327619D01*
X115758986Y-75422857D01*
X115758986Y-75518095D01*
X115711367Y-75660952D01*
X115139938Y-76232380D01*
X115758986Y-76232380D01*
X116616129Y-75565714D02*
X116616129Y-76232380D01*
X116378033Y-75184761D02*
X116139938Y-75899047D01*
X116758986Y-75899047D01*
X171733333Y-124952380D02*
X171257142Y-124952380D01*
X171257142Y-123952380D01*
X172590476Y-124952380D02*
X172019047Y-124952380D01*
X172304761Y-124952380D02*
X172304761Y-123952380D01*
X172209523Y-124095238D01*
X172114285Y-124190476D01*
X172019047Y-124238095D01*
X171733333Y-126452380D02*
X171257142Y-126452380D01*
X171257142Y-125452380D01*
X172019047Y-125547619D02*
X172066666Y-125500000D01*
X172161904Y-125452380D01*
X172400000Y-125452380D01*
X172495238Y-125500000D01*
X172542857Y-125547619D01*
X172590476Y-125642857D01*
X172590476Y-125738095D01*
X172542857Y-125880952D01*
X171971428Y-126452380D01*
X172590476Y-126452380D01*
X110251843Y-129352380D02*
X109918510Y-128876190D01*
X109680414Y-129352380D02*
X109680414Y-128352380D01*
X110061367Y-128352380D01*
X110156605Y-128400000D01*
X110204224Y-128447619D01*
X110251843Y-128542857D01*
X110251843Y-128685714D01*
X110204224Y-128780952D01*
X110156605Y-128828571D01*
X110061367Y-128876190D01*
X109680414Y-128876190D01*
X110632795Y-128447619D02*
X110680414Y-128400000D01*
X110775652Y-128352380D01*
X111013748Y-128352380D01*
X111108986Y-128400000D01*
X111156605Y-128447619D01*
X111204224Y-128542857D01*
X111204224Y-128638095D01*
X111156605Y-128780952D01*
X110585176Y-129352380D01*
X111204224Y-129352380D01*
X101101843Y-135252380D02*
X100768510Y-134776190D01*
X100530414Y-135252380D02*
X100530414Y-134252380D01*
X100911367Y-134252380D01*
X101006605Y-134300000D01*
X101054224Y-134347619D01*
X101101843Y-134442857D01*
X101101843Y-134585714D01*
X101054224Y-134680952D01*
X101006605Y-134728571D01*
X100911367Y-134776190D01*
X100530414Y-134776190D01*
X101435176Y-134252380D02*
X102054224Y-134252380D01*
X101720890Y-134633333D01*
X101863748Y-134633333D01*
X101958986Y-134680952D01*
X102006605Y-134728571D01*
X102054224Y-134823809D01*
X102054224Y-135061904D01*
X102006605Y-135157142D01*
X101958986Y-135204761D01*
X101863748Y-135252380D01*
X101578033Y-135252380D01*
X101482795Y-135204761D01*
X101435176Y-135157142D01*
X128301843Y-91252380D02*
X127968510Y-90776190D01*
X127730414Y-91252380D02*
X127730414Y-90252380D01*
X128111367Y-90252380D01*
X128206605Y-90300000D01*
X128254224Y-90347619D01*
X128301843Y-90442857D01*
X128301843Y-90585714D01*
X128254224Y-90680952D01*
X128206605Y-90728571D01*
X128111367Y-90776190D01*
X127730414Y-90776190D01*
X129254224Y-91252380D02*
X128682795Y-91252380D01*
X128968510Y-91252380D02*
X128968510Y-90252380D01*
X128873271Y-90395238D01*
X128778033Y-90490476D01*
X128682795Y-90538095D01*
X114501843Y-134852380D02*
X114168510Y-134376190D01*
X113930414Y-134852380D02*
X113930414Y-133852380D01*
X114311367Y-133852380D01*
X114406605Y-133900000D01*
X114454224Y-133947619D01*
X114501843Y-134042857D01*
X114501843Y-134185714D01*
X114454224Y-134280952D01*
X114406605Y-134328571D01*
X114311367Y-134376190D01*
X113930414Y-134376190D01*
X115406605Y-133852380D02*
X114930414Y-133852380D01*
X114882795Y-134328571D01*
X114930414Y-134280952D01*
X115025652Y-134233333D01*
X115263748Y-134233333D01*
X115358986Y-134280952D01*
X115406605Y-134328571D01*
X115454224Y-134423809D01*
X115454224Y-134661904D01*
X115406605Y-134757142D01*
X115358986Y-134804761D01*
X115263748Y-134852380D01*
X115025652Y-134852380D01*
X114930414Y-134804761D01*
X114882795Y-134757142D01*
X99726843Y-142502380D02*
X99393510Y-142026190D01*
X99155414Y-142502380D02*
X99155414Y-141502380D01*
X99536367Y-141502380D01*
X99631605Y-141550000D01*
X99679224Y-141597619D01*
X99726843Y-141692857D01*
X99726843Y-141835714D01*
X99679224Y-141930952D01*
X99631605Y-141978571D01*
X99536367Y-142026190D01*
X99155414Y-142026190D01*
X100583986Y-141502380D02*
X100393510Y-141502380D01*
X100298271Y-141550000D01*
X100250652Y-141597619D01*
X100155414Y-141740476D01*
X100107795Y-141930952D01*
X100107795Y-142311904D01*
X100155414Y-142407142D01*
X100203033Y-142454761D01*
X100298271Y-142502380D01*
X100488748Y-142502380D01*
X100583986Y-142454761D01*
X100631605Y-142407142D01*
X100679224Y-142311904D01*
X100679224Y-142073809D01*
X100631605Y-141978571D01*
X100583986Y-141930952D01*
X100488748Y-141883333D01*
X100298271Y-141883333D01*
X100203033Y-141930952D01*
X100155414Y-141978571D01*
X100107795Y-142073809D01*
X127601843Y-94252380D02*
X127268510Y-93776190D01*
X127030414Y-94252380D02*
X127030414Y-93252380D01*
X127411367Y-93252380D01*
X127506605Y-93300000D01*
X127554224Y-93347619D01*
X127601843Y-93442857D01*
X127601843Y-93585714D01*
X127554224Y-93680952D01*
X127506605Y-93728571D01*
X127411367Y-93776190D01*
X127030414Y-93776190D01*
X128458986Y-93585714D02*
X128458986Y-94252380D01*
X128220890Y-93204761D02*
X127982795Y-93919047D01*
X128601843Y-93919047D01*
X162301843Y-70952380D02*
X161968510Y-70476190D01*
X161730414Y-70952380D02*
X161730414Y-69952380D01*
X162111367Y-69952380D01*
X162206605Y-70000000D01*
X162254224Y-70047619D01*
X162301843Y-70142857D01*
X162301843Y-70285714D01*
X162254224Y-70380952D01*
X162206605Y-70428571D01*
X162111367Y-70476190D01*
X161730414Y-70476190D01*
X162873271Y-70380952D02*
X162778033Y-70333333D01*
X162730414Y-70285714D01*
X162682795Y-70190476D01*
X162682795Y-70142857D01*
X162730414Y-70047619D01*
X162778033Y-70000000D01*
X162873271Y-69952380D01*
X163063748Y-69952380D01*
X163158986Y-70000000D01*
X163206605Y-70047619D01*
X163254224Y-70142857D01*
X163254224Y-70190476D01*
X163206605Y-70285714D01*
X163158986Y-70333333D01*
X163063748Y-70380952D01*
X162873271Y-70380952D01*
X162778033Y-70428571D01*
X162730414Y-70476190D01*
X162682795Y-70571428D01*
X162682795Y-70761904D01*
X162730414Y-70857142D01*
X162778033Y-70904761D01*
X162873271Y-70952380D01*
X163063748Y-70952380D01*
X163158986Y-70904761D01*
X163206605Y-70857142D01*
X163254224Y-70761904D01*
X163254224Y-70571428D01*
X163206605Y-70476190D01*
X163158986Y-70428571D01*
X163063748Y-70380952D01*
X112701843Y-94952380D02*
X112368510Y-94476190D01*
X112130414Y-94952380D02*
X112130414Y-93952380D01*
X112511367Y-93952380D01*
X112606605Y-94000000D01*
X112654224Y-94047619D01*
X112701843Y-94142857D01*
X112701843Y-94285714D01*
X112654224Y-94380952D01*
X112606605Y-94428571D01*
X112511367Y-94476190D01*
X112130414Y-94476190D01*
X113178033Y-94952380D02*
X113368510Y-94952380D01*
X113463748Y-94904761D01*
X113511367Y-94857142D01*
X113606605Y-94714285D01*
X113654224Y-94523809D01*
X113654224Y-94142857D01*
X113606605Y-94047619D01*
X113558986Y-94000000D01*
X113463748Y-93952380D01*
X113273271Y-93952380D01*
X113178033Y-94000000D01*
X113130414Y-94047619D01*
X113082795Y-94142857D01*
X113082795Y-94380952D01*
X113130414Y-94476190D01*
X113178033Y-94523809D01*
X113273271Y-94571428D01*
X113463748Y-94571428D01*
X113558986Y-94523809D01*
X113606605Y-94476190D01*
X113654224Y-94380952D01*
X154557142Y-101252380D02*
X154223809Y-100776190D01*
X153985714Y-101252380D02*
X153985714Y-100252380D01*
X154366666Y-100252380D01*
X154461904Y-100300000D01*
X154509523Y-100347619D01*
X154557142Y-100442857D01*
X154557142Y-100585714D01*
X154509523Y-100680952D01*
X154461904Y-100728571D01*
X154366666Y-100776190D01*
X153985714Y-100776190D01*
X155509523Y-101252380D02*
X154938095Y-101252380D01*
X155223809Y-101252380D02*
X155223809Y-100252380D01*
X155128571Y-100395238D01*
X155033333Y-100490476D01*
X154938095Y-100538095D01*
X156461904Y-101252380D02*
X155890476Y-101252380D01*
X156176190Y-101252380D02*
X156176190Y-100252380D01*
X156080952Y-100395238D01*
X155985714Y-100490476D01*
X155890476Y-100538095D01*
X114825652Y-63502380D02*
X114492319Y-63026190D01*
X114254224Y-63502380D02*
X114254224Y-62502380D01*
X114635176Y-62502380D01*
X114730414Y-62550000D01*
X114778033Y-62597619D01*
X114825652Y-62692857D01*
X114825652Y-62835714D01*
X114778033Y-62930952D01*
X114730414Y-62978571D01*
X114635176Y-63026190D01*
X114254224Y-63026190D01*
X115778033Y-63502380D02*
X115206605Y-63502380D01*
X115492319Y-63502380D02*
X115492319Y-62502380D01*
X115397081Y-62645238D01*
X115301843Y-62740476D01*
X115206605Y-62788095D01*
X116158986Y-62597619D02*
X116206605Y-62550000D01*
X116301843Y-62502380D01*
X116539938Y-62502380D01*
X116635176Y-62550000D01*
X116682795Y-62597619D01*
X116730414Y-62692857D01*
X116730414Y-62788095D01*
X116682795Y-62930952D01*
X116111367Y-63502380D01*
X116730414Y-63502380D01*
X121575652Y-63502380D02*
X121242319Y-63026190D01*
X121004224Y-63502380D02*
X121004224Y-62502380D01*
X121385176Y-62502380D01*
X121480414Y-62550000D01*
X121528033Y-62597619D01*
X121575652Y-62692857D01*
X121575652Y-62835714D01*
X121528033Y-62930952D01*
X121480414Y-62978571D01*
X121385176Y-63026190D01*
X121004224Y-63026190D01*
X122528033Y-63502380D02*
X121956605Y-63502380D01*
X122242319Y-63502380D02*
X122242319Y-62502380D01*
X122147081Y-62645238D01*
X122051843Y-62740476D01*
X121956605Y-62788095D01*
X122861367Y-62502380D02*
X123480414Y-62502380D01*
X123147081Y-62883333D01*
X123289938Y-62883333D01*
X123385176Y-62930952D01*
X123432795Y-62978571D01*
X123480414Y-63073809D01*
X123480414Y-63311904D01*
X123432795Y-63407142D01*
X123385176Y-63454761D01*
X123289938Y-63502380D01*
X123004224Y-63502380D01*
X122908986Y-63454761D01*
X122861367Y-63407142D01*
X120825652Y-73752380D02*
X120492319Y-73276190D01*
X120254224Y-73752380D02*
X120254224Y-72752380D01*
X120635176Y-72752380D01*
X120730414Y-72800000D01*
X120778033Y-72847619D01*
X120825652Y-72942857D01*
X120825652Y-73085714D01*
X120778033Y-73180952D01*
X120730414Y-73228571D01*
X120635176Y-73276190D01*
X120254224Y-73276190D01*
X121778033Y-73752380D02*
X121206605Y-73752380D01*
X121492319Y-73752380D02*
X121492319Y-72752380D01*
X121397081Y-72895238D01*
X121301843Y-72990476D01*
X121206605Y-73038095D01*
X122635176Y-73085714D02*
X122635176Y-73752380D01*
X122397081Y-72704761D02*
X122158986Y-73419047D01*
X122778033Y-73419047D01*
X120500652Y-98302380D02*
X120167319Y-97826190D01*
X119929224Y-98302380D02*
X119929224Y-97302380D01*
X120310176Y-97302380D01*
X120405414Y-97350000D01*
X120453033Y-97397619D01*
X120500652Y-97492857D01*
X120500652Y-97635714D01*
X120453033Y-97730952D01*
X120405414Y-97778571D01*
X120310176Y-97826190D01*
X119929224Y-97826190D01*
X121453033Y-98302380D02*
X120881605Y-98302380D01*
X121167319Y-98302380D02*
X121167319Y-97302380D01*
X121072081Y-97445238D01*
X120976843Y-97540476D01*
X120881605Y-97588095D01*
X122357795Y-97302380D02*
X121881605Y-97302380D01*
X121833986Y-97778571D01*
X121881605Y-97730952D01*
X121976843Y-97683333D01*
X122214938Y-97683333D01*
X122310176Y-97730952D01*
X122357795Y-97778571D01*
X122405414Y-97873809D01*
X122405414Y-98111904D01*
X122357795Y-98207142D01*
X122310176Y-98254761D01*
X122214938Y-98302380D01*
X121976843Y-98302380D01*
X121881605Y-98254761D01*
X121833986Y-98207142D01*
X111925652Y-70002380D02*
X111592319Y-69526190D01*
X111354224Y-70002380D02*
X111354224Y-69002380D01*
X111735176Y-69002380D01*
X111830414Y-69050000D01*
X111878033Y-69097619D01*
X111925652Y-69192857D01*
X111925652Y-69335714D01*
X111878033Y-69430952D01*
X111830414Y-69478571D01*
X111735176Y-69526190D01*
X111354224Y-69526190D01*
X112878033Y-70002380D02*
X112306605Y-70002380D01*
X112592319Y-70002380D02*
X112592319Y-69002380D01*
X112497081Y-69145238D01*
X112401843Y-69240476D01*
X112306605Y-69288095D01*
X113735176Y-69002380D02*
X113544700Y-69002380D01*
X113449462Y-69050000D01*
X113401843Y-69097619D01*
X113306605Y-69240476D01*
X113258986Y-69430952D01*
X113258986Y-69811904D01*
X113306605Y-69907142D01*
X113354224Y-69954761D01*
X113449462Y-70002380D01*
X113639938Y-70002380D01*
X113735176Y-69954761D01*
X113782795Y-69907142D01*
X113830414Y-69811904D01*
X113830414Y-69573809D01*
X113782795Y-69478571D01*
X113735176Y-69430952D01*
X113639938Y-69383333D01*
X113449462Y-69383333D01*
X113354224Y-69430952D01*
X113306605Y-69478571D01*
X113258986Y-69573809D01*
X108657142Y-74352380D02*
X108323809Y-73876190D01*
X108085714Y-74352380D02*
X108085714Y-73352380D01*
X108466666Y-73352380D01*
X108561904Y-73400000D01*
X108609523Y-73447619D01*
X108657142Y-73542857D01*
X108657142Y-73685714D01*
X108609523Y-73780952D01*
X108561904Y-73828571D01*
X108466666Y-73876190D01*
X108085714Y-73876190D01*
X109609523Y-74352380D02*
X109038095Y-74352380D01*
X109323809Y-74352380D02*
X109323809Y-73352380D01*
X109228571Y-73495238D01*
X109133333Y-73590476D01*
X109038095Y-73638095D01*
X109942857Y-73352380D02*
X110609523Y-73352380D01*
X110180952Y-74352380D01*
X136038152Y-137872380D02*
X135704819Y-137396190D01*
X135466724Y-137872380D02*
X135466724Y-136872380D01*
X135847676Y-136872380D01*
X135942914Y-136920000D01*
X135990533Y-136967619D01*
X136038152Y-137062857D01*
X136038152Y-137205714D01*
X135990533Y-137300952D01*
X135942914Y-137348571D01*
X135847676Y-137396190D01*
X135466724Y-137396190D01*
X136990533Y-137872380D02*
X136419105Y-137872380D01*
X136704819Y-137872380D02*
X136704819Y-136872380D01*
X136609581Y-137015238D01*
X136514343Y-137110476D01*
X136419105Y-137158095D01*
X137561962Y-137300952D02*
X137466724Y-137253333D01*
X137419105Y-137205714D01*
X137371486Y-137110476D01*
X137371486Y-137062857D01*
X137419105Y-136967619D01*
X137466724Y-136920000D01*
X137561962Y-136872380D01*
X137752438Y-136872380D01*
X137847676Y-136920000D01*
X137895295Y-136967619D01*
X137942914Y-137062857D01*
X137942914Y-137110476D01*
X137895295Y-137205714D01*
X137847676Y-137253333D01*
X137752438Y-137300952D01*
X137561962Y-137300952D01*
X137466724Y-137348571D01*
X137419105Y-137396190D01*
X137371486Y-137491428D01*
X137371486Y-137681904D01*
X137419105Y-137777142D01*
X137466724Y-137824761D01*
X137561962Y-137872380D01*
X137752438Y-137872380D01*
X137847676Y-137824761D01*
X137895295Y-137777142D01*
X137942914Y-137681904D01*
X137942914Y-137491428D01*
X137895295Y-137396190D01*
X137847676Y-137348571D01*
X137752438Y-137300952D01*
X144279142Y-137803380D02*
X143945809Y-137327190D01*
X143707714Y-137803380D02*
X143707714Y-136803380D01*
X144088666Y-136803380D01*
X144183904Y-136851000D01*
X144231523Y-136898619D01*
X144279142Y-136993857D01*
X144279142Y-137136714D01*
X144231523Y-137231952D01*
X144183904Y-137279571D01*
X144088666Y-137327190D01*
X143707714Y-137327190D01*
X145231523Y-137803380D02*
X144660095Y-137803380D01*
X144945809Y-137803380D02*
X144945809Y-136803380D01*
X144850571Y-136946238D01*
X144755333Y-137041476D01*
X144660095Y-137089095D01*
X145707714Y-137803380D02*
X145898190Y-137803380D01*
X145993428Y-137755761D01*
X146041047Y-137708142D01*
X146136285Y-137565285D01*
X146183904Y-137374809D01*
X146183904Y-136993857D01*
X146136285Y-136898619D01*
X146088666Y-136851000D01*
X145993428Y-136803380D01*
X145802952Y-136803380D01*
X145707714Y-136851000D01*
X145660095Y-136898619D01*
X145612476Y-136993857D01*
X145612476Y-137231952D01*
X145660095Y-137327190D01*
X145707714Y-137374809D01*
X145802952Y-137422428D01*
X145993428Y-137422428D01*
X146088666Y-137374809D01*
X146136285Y-137327190D01*
X146183904Y-137231952D01*
X135825652Y-125752380D02*
X135492319Y-125276190D01*
X135254224Y-125752380D02*
X135254224Y-124752380D01*
X135635176Y-124752380D01*
X135730414Y-124800000D01*
X135778033Y-124847619D01*
X135825652Y-124942857D01*
X135825652Y-125085714D01*
X135778033Y-125180952D01*
X135730414Y-125228571D01*
X135635176Y-125276190D01*
X135254224Y-125276190D01*
X136206605Y-124847619D02*
X136254224Y-124800000D01*
X136349462Y-124752380D01*
X136587557Y-124752380D01*
X136682795Y-124800000D01*
X136730414Y-124847619D01*
X136778033Y-124942857D01*
X136778033Y-125038095D01*
X136730414Y-125180952D01*
X136158986Y-125752380D01*
X136778033Y-125752380D01*
X137397081Y-124752380D02*
X137492319Y-124752380D01*
X137587557Y-124800000D01*
X137635176Y-124847619D01*
X137682795Y-124942857D01*
X137730414Y-125133333D01*
X137730414Y-125371428D01*
X137682795Y-125561904D01*
X137635176Y-125657142D01*
X137587557Y-125704761D01*
X137492319Y-125752380D01*
X137397081Y-125752380D01*
X137301843Y-125704761D01*
X137254224Y-125657142D01*
X137206605Y-125561904D01*
X137158986Y-125371428D01*
X137158986Y-125133333D01*
X137206605Y-124942857D01*
X137254224Y-124847619D01*
X137301843Y-124800000D01*
X137397081Y-124752380D01*
X166857142Y-148852380D02*
X166523809Y-148376190D01*
X166285714Y-148852380D02*
X166285714Y-147852380D01*
X166666666Y-147852380D01*
X166761904Y-147900000D01*
X166809523Y-147947619D01*
X166857142Y-148042857D01*
X166857142Y-148185714D01*
X166809523Y-148280952D01*
X166761904Y-148328571D01*
X166666666Y-148376190D01*
X166285714Y-148376190D01*
X167238095Y-147947619D02*
X167285714Y-147900000D01*
X167380952Y-147852380D01*
X167619047Y-147852380D01*
X167714285Y-147900000D01*
X167761904Y-147947619D01*
X167809523Y-148042857D01*
X167809523Y-148138095D01*
X167761904Y-148280952D01*
X167190476Y-148852380D01*
X167809523Y-148852380D01*
X168761904Y-148852380D02*
X168190476Y-148852380D01*
X168476190Y-148852380D02*
X168476190Y-147852380D01*
X168380952Y-147995238D01*
X168285714Y-148090476D01*
X168190476Y-148138095D01*
X128457142Y-151252380D02*
X128123809Y-150776190D01*
X127885714Y-151252380D02*
X127885714Y-150252380D01*
X128266666Y-150252380D01*
X128361904Y-150300000D01*
X128409523Y-150347619D01*
X128457142Y-150442857D01*
X128457142Y-150585714D01*
X128409523Y-150680952D01*
X128361904Y-150728571D01*
X128266666Y-150776190D01*
X127885714Y-150776190D01*
X128838095Y-150347619D02*
X128885714Y-150300000D01*
X128980952Y-150252380D01*
X129219047Y-150252380D01*
X129314285Y-150300000D01*
X129361904Y-150347619D01*
X129409523Y-150442857D01*
X129409523Y-150538095D01*
X129361904Y-150680952D01*
X128790476Y-151252380D01*
X129409523Y-151252380D01*
X129790476Y-150347619D02*
X129838095Y-150300000D01*
X129933333Y-150252380D01*
X130171428Y-150252380D01*
X130266666Y-150300000D01*
X130314285Y-150347619D01*
X130361904Y-150442857D01*
X130361904Y-150538095D01*
X130314285Y-150680952D01*
X129742857Y-151252380D01*
X130361904Y-151252380D01*
X162257142Y-148752380D02*
X161923809Y-148276190D01*
X161685714Y-148752380D02*
X161685714Y-147752380D01*
X162066666Y-147752380D01*
X162161904Y-147800000D01*
X162209523Y-147847619D01*
X162257142Y-147942857D01*
X162257142Y-148085714D01*
X162209523Y-148180952D01*
X162161904Y-148228571D01*
X162066666Y-148276190D01*
X161685714Y-148276190D01*
X162638095Y-147847619D02*
X162685714Y-147800000D01*
X162780952Y-147752380D01*
X163019047Y-147752380D01*
X163114285Y-147800000D01*
X163161904Y-147847619D01*
X163209523Y-147942857D01*
X163209523Y-148038095D01*
X163161904Y-148180952D01*
X162590476Y-148752380D01*
X163209523Y-148752380D01*
X163542857Y-147752380D02*
X164161904Y-147752380D01*
X163828571Y-148133333D01*
X163971428Y-148133333D01*
X164066666Y-148180952D01*
X164114285Y-148228571D01*
X164161904Y-148323809D01*
X164161904Y-148561904D01*
X164114285Y-148657142D01*
X164066666Y-148704761D01*
X163971428Y-148752380D01*
X163685714Y-148752380D01*
X163590476Y-148704761D01*
X163542857Y-148657142D01*
X157825652Y-148752380D02*
X157492319Y-148276190D01*
X157254224Y-148752380D02*
X157254224Y-147752380D01*
X157635176Y-147752380D01*
X157730414Y-147800000D01*
X157778033Y-147847619D01*
X157825652Y-147942857D01*
X157825652Y-148085714D01*
X157778033Y-148180952D01*
X157730414Y-148228571D01*
X157635176Y-148276190D01*
X157254224Y-148276190D01*
X158206605Y-147847619D02*
X158254224Y-147800000D01*
X158349462Y-147752380D01*
X158587557Y-147752380D01*
X158682795Y-147800000D01*
X158730414Y-147847619D01*
X158778033Y-147942857D01*
X158778033Y-148038095D01*
X158730414Y-148180952D01*
X158158986Y-148752380D01*
X158778033Y-148752380D01*
X159635176Y-148085714D02*
X159635176Y-148752380D01*
X159397081Y-147704761D02*
X159158986Y-148419047D01*
X159778033Y-148419047D01*
X111075652Y-154002380D02*
X110742319Y-153526190D01*
X110504224Y-154002380D02*
X110504224Y-153002380D01*
X110885176Y-153002380D01*
X110980414Y-153050000D01*
X111028033Y-153097619D01*
X111075652Y-153192857D01*
X111075652Y-153335714D01*
X111028033Y-153430952D01*
X110980414Y-153478571D01*
X110885176Y-153526190D01*
X110504224Y-153526190D01*
X111456605Y-153097619D02*
X111504224Y-153050000D01*
X111599462Y-153002380D01*
X111837557Y-153002380D01*
X111932795Y-153050000D01*
X111980414Y-153097619D01*
X112028033Y-153192857D01*
X112028033Y-153288095D01*
X111980414Y-153430952D01*
X111408986Y-154002380D01*
X112028033Y-154002380D01*
X112932795Y-153002380D02*
X112456605Y-153002380D01*
X112408986Y-153478571D01*
X112456605Y-153430952D01*
X112551843Y-153383333D01*
X112789938Y-153383333D01*
X112885176Y-153430952D01*
X112932795Y-153478571D01*
X112980414Y-153573809D01*
X112980414Y-153811904D01*
X112932795Y-153907142D01*
X112885176Y-153954761D01*
X112789938Y-154002380D01*
X112551843Y-154002380D01*
X112456605Y-153954761D01*
X112408986Y-153907142D01*
X107075652Y-152252380D02*
X106742319Y-151776190D01*
X106504224Y-152252380D02*
X106504224Y-151252380D01*
X106885176Y-151252380D01*
X106980414Y-151300000D01*
X107028033Y-151347619D01*
X107075652Y-151442857D01*
X107075652Y-151585714D01*
X107028033Y-151680952D01*
X106980414Y-151728571D01*
X106885176Y-151776190D01*
X106504224Y-151776190D01*
X107456605Y-151347619D02*
X107504224Y-151300000D01*
X107599462Y-151252380D01*
X107837557Y-151252380D01*
X107932795Y-151300000D01*
X107980414Y-151347619D01*
X108028033Y-151442857D01*
X108028033Y-151538095D01*
X107980414Y-151680952D01*
X107408986Y-152252380D01*
X108028033Y-152252380D01*
X108885176Y-151252380D02*
X108694700Y-151252380D01*
X108599462Y-151300000D01*
X108551843Y-151347619D01*
X108456605Y-151490476D01*
X108408986Y-151680952D01*
X108408986Y-152061904D01*
X108456605Y-152157142D01*
X108504224Y-152204761D01*
X108599462Y-152252380D01*
X108789938Y-152252380D01*
X108885176Y-152204761D01*
X108932795Y-152157142D01*
X108980414Y-152061904D01*
X108980414Y-151823809D01*
X108932795Y-151728571D01*
X108885176Y-151680952D01*
X108789938Y-151633333D01*
X108599462Y-151633333D01*
X108504224Y-151680952D01*
X108456605Y-151728571D01*
X108408986Y-151823809D01*
X140238095Y-83352380D02*
X140238095Y-84161904D01*
X140285714Y-84257142D01*
X140333333Y-84304761D01*
X140428571Y-84352380D01*
X140619047Y-84352380D01*
X140714285Y-84304761D01*
X140761904Y-84257142D01*
X140809523Y-84161904D01*
X140809523Y-83352380D01*
X141809523Y-84352380D02*
X141238095Y-84352380D01*
X141523809Y-84352380D02*
X141523809Y-83352380D01*
X141428571Y-83495238D01*
X141333333Y-83590476D01*
X141238095Y-83638095D01*
X178738095Y-79752380D02*
X178738095Y-80561904D01*
X178785714Y-80657142D01*
X178833333Y-80704761D01*
X178928571Y-80752380D01*
X179119047Y-80752380D01*
X179214285Y-80704761D01*
X179261904Y-80657142D01*
X179309523Y-80561904D01*
X179309523Y-79752380D01*
X179738095Y-79847619D02*
X179785714Y-79800000D01*
X179880952Y-79752380D01*
X180119047Y-79752380D01*
X180214285Y-79800000D01*
X180261904Y-79847619D01*
X180309523Y-79942857D01*
X180309523Y-80038095D01*
X180261904Y-80180952D01*
X179690476Y-80752380D01*
X180309523Y-80752380D01*
X109996869Y-66762459D02*
X109996869Y-67571983D01*
X110044488Y-67667221D01*
X110092107Y-67714840D01*
X110187345Y-67762459D01*
X110377821Y-67762459D01*
X110473059Y-67714840D01*
X110520678Y-67667221D01*
X110568297Y-67571983D01*
X110568297Y-66762459D01*
X111473059Y-67095793D02*
X111473059Y-67762459D01*
X111234964Y-66714840D02*
X110996869Y-67429126D01*
X111615916Y-67429126D01*
X133538095Y-151252380D02*
X133538095Y-152061904D01*
X133585714Y-152157142D01*
X133633333Y-152204761D01*
X133728571Y-152252380D01*
X133919047Y-152252380D01*
X134014285Y-152204761D01*
X134061904Y-152157142D01*
X134109523Y-152061904D01*
X134109523Y-151252380D01*
X135061904Y-151252380D02*
X134585714Y-151252380D01*
X134538095Y-151728571D01*
X134585714Y-151680952D01*
X134680952Y-151633333D01*
X134919047Y-151633333D01*
X135014285Y-151680952D01*
X135061904Y-151728571D01*
X135109523Y-151823809D01*
X135109523Y-152061904D01*
X135061904Y-152157142D01*
X135014285Y-152204761D01*
X134919047Y-152252380D01*
X134680952Y-152252380D01*
X134585714Y-152204761D01*
X134538095Y-152157142D01*
X139706605Y-106377380D02*
X139706605Y-107186904D01*
X139754224Y-107282142D01*
X139801843Y-107329761D01*
X139897081Y-107377380D01*
X140087557Y-107377380D01*
X140182795Y-107329761D01*
X140230414Y-107282142D01*
X140278033Y-107186904D01*
X140278033Y-106377380D01*
X141182795Y-106377380D02*
X140992319Y-106377380D01*
X140897081Y-106425000D01*
X140849462Y-106472619D01*
X140754224Y-106615476D01*
X140706605Y-106805952D01*
X140706605Y-107186904D01*
X140754224Y-107282142D01*
X140801843Y-107329761D01*
X140897081Y-107377380D01*
X141087557Y-107377380D01*
X141182795Y-107329761D01*
X141230414Y-107282142D01*
X141278033Y-107186904D01*
X141278033Y-106948809D01*
X141230414Y-106853571D01*
X141182795Y-106805952D01*
X141087557Y-106758333D01*
X140897081Y-106758333D01*
X140801843Y-106805952D01*
X140754224Y-106853571D01*
X140706605Y-106948809D01*
X170206605Y-147002380D02*
X170206605Y-147811904D01*
X170254224Y-147907142D01*
X170301843Y-147954761D01*
X170397081Y-148002380D01*
X170587557Y-148002380D01*
X170682795Y-147954761D01*
X170730414Y-147907142D01*
X170778033Y-147811904D01*
X170778033Y-147002380D01*
X171397081Y-147430952D02*
X171301843Y-147383333D01*
X171254224Y-147335714D01*
X171206605Y-147240476D01*
X171206605Y-147192857D01*
X171254224Y-147097619D01*
X171301843Y-147050000D01*
X171397081Y-147002380D01*
X171587557Y-147002380D01*
X171682795Y-147050000D01*
X171730414Y-147097619D01*
X171778033Y-147192857D01*
X171778033Y-147240476D01*
X171730414Y-147335714D01*
X171682795Y-147383333D01*
X171587557Y-147430952D01*
X171397081Y-147430952D01*
X171301843Y-147478571D01*
X171254224Y-147526190D01*
X171206605Y-147621428D01*
X171206605Y-147811904D01*
X171254224Y-147907142D01*
X171301843Y-147954761D01*
X171397081Y-148002380D01*
X171587557Y-148002380D01*
X171682795Y-147954761D01*
X171730414Y-147907142D01*
X171778033Y-147811904D01*
X171778033Y-147621428D01*
X171730414Y-147526190D01*
X171682795Y-147478571D01*
X171587557Y-147430952D01*
X114730414Y-136252380D02*
X114730414Y-137061904D01*
X114778033Y-137157142D01*
X114825652Y-137204761D01*
X114920890Y-137252380D01*
X115111367Y-137252380D01*
X115206605Y-137204761D01*
X115254224Y-137157142D01*
X115301843Y-137061904D01*
X115301843Y-136252380D01*
X116301843Y-137252380D02*
X115730414Y-137252380D01*
X116016129Y-137252380D02*
X116016129Y-136252380D01*
X115920890Y-136395238D01*
X115825652Y-136490476D01*
X115730414Y-136538095D01*
X117254224Y-137252380D02*
X116682795Y-137252380D01*
X116968510Y-137252380D02*
X116968510Y-136252380D01*
X116873271Y-136395238D01*
X116778033Y-136490476D01*
X116682795Y-136538095D01*
M02*
