M48
; DRILL file {KiCad (5.1.5)-3} date 07/11/2020 15:15:19
; FORMAT={-:-/ absolute / inch / decimal}
; #@! TF.CreationDate,2020-11-07T15:15:19-05:00
; #@! TF.GenerationSoftware,Kicad,Pcbnew,(5.1.5)-3
; #@! TF.FileFunction,Plated,1,2,PTH
FMAT,2
INCH
T1C0.0130
T2C0.0157
T3C0.0236
T4C0.0300
T5C0.0315
T6C0.0394
%
G90
G05
T1
X5.4849Y-4.9417
X5.4849Y-5.0008
X5.544Y-4.9417
X5.544Y-5.0008
X5.603Y-4.9417
X5.603Y-5.0008
T2
X3.7074Y-5.3976
X3.7153Y-3.5906
X3.7402Y-5.1575
X3.7421Y-3.5276
X3.7953Y-5.56
X3.8177Y-5.4331
X3.8622Y-5.1575
X3.8925Y-5.0118
X3.9279Y-5.2913
X3.9301Y-3.7874
X3.936Y-4.3297
X3.9852Y-3.7185
X4.0157Y-5.8071
X4.0736Y-4.7953
X4.1129Y-4.1535
X4.1562Y-4.7913
X4.1562Y-5.0315
X4.172Y-5.315
X4.1917Y-4.0118
X4.1956Y-4.1535
X4.2047Y-5.9931
X4.2192Y-2.9843
X4.2323Y-4.622
X4.235Y-3.7795
X4.2468Y-4.7913
X4.2547Y-3.126
X4.2744Y-4.0433
X4.3255Y-2.9567
X4.3297Y-4.3484
X4.3307Y-5.7165
X4.3373Y-5.8268
X4.3425Y-2.8031
X4.361Y-3.9449
X4.361Y-4.0433
X4.3789Y-4.7186
X4.3799Y-5.3661
X4.3807Y-3.126
X4.4075Y-4.7489
X4.4161Y-3.9449
X4.4161Y-4.0433
X4.4252Y-5.3661
X4.4252Y-5.4154
X4.4331Y-2.9902
X4.436Y-4.7163
X4.4646Y-4.7441
X4.4685Y-5.3642
X4.4862Y-5.4744
X4.4869Y-3.7087
X4.4882Y-4.4488
X4.4909Y-5.5157
X4.5039Y-2.622
X4.5059Y-5.6181
X4.5066Y-4.0433
X4.5157Y-5.1457
X4.5236Y-2.9902
X4.5236Y-5.0276
X4.5381Y-2.9094
X4.5386Y-5.3971
X4.564Y-5.7657
X4.5775Y-2.7795
X4.5814Y-3.126
X4.5866Y-5.5906
X4.6073Y-6.2323
X4.6326Y-2.815
X4.6326Y-3.6929
X4.6339Y-2.9902
X4.6366Y-5.6969
X4.6614Y-2.4606
X4.6641Y-5.3976
X4.6799Y-2.9173
X4.6799Y-3.124
X4.689Y-6.0039
X4.7114Y-3.8701
X4.7116Y-5.9016
X4.7541Y-6.0787
X4.7817Y-3.8415
X4.7822Y-3.122
X4.8046Y-3.9013
X4.811Y-5.5039
X4.8216Y-4.0325
X4.8307Y-2.9921
X4.8373Y-2.7087
X4.8425Y-4.4488
X4.8688Y-2.622
X4.8688Y-3.8415
X4.8767Y-4.0354
X4.8976Y-3.7795
X4.9082Y-5.6614
X4.9161Y-5.1535
X4.9547Y-2.9902
X4.9555Y-2.9173
X4.9633Y-4.0354
X4.9712Y-3.7825
X4.9791Y-3.122
X4.9869Y-6.0512
X5.0Y-4.4488
X5.0027Y-5.0354
X5.0106Y-3.9577
X5.0118Y-2.6181
X5.0145Y-2.815
X5.0145Y-3.6929
X5.0512Y-3.752
X5.0532Y-3.9166
X5.0539Y-4.5709
X5.0539Y-4.7047
X5.0539Y-4.8819
X5.0571Y-6.2441
X5.0657Y-3.3937
X5.0787Y-3.4882
X5.1142Y-3.815
X5.1287Y-3.4449
X5.1378Y-3.1811
X5.1811Y-2.5591
X5.1811Y-2.8661
X5.1877Y-3.9341
X5.1956Y-3.2638
X5.2035Y-3.6024
X5.2303Y-3.9341
X5.2362Y-2.8346
X5.2579Y-5.44
X5.2638Y-3.1142
X5.2648Y-5.1978
X5.2659Y-3.476
X5.2683Y-3.4333
X5.2822Y-3.3386
X5.2827Y-3.3785
X5.2835Y-2.4646
X5.3041Y-4.6772
X5.3049Y-4.2323
X5.3334Y-4.5157
X5.3366Y-4.2677
X5.3373Y-4.1929
X5.352Y-3.2373
X5.357Y-4.8583
X5.3632Y-4.6201
X5.3642Y-3.9606
X5.3688Y-4.2244
X5.3728Y-3.6811
X5.3807Y-4.9016
X5.4003Y-3.9409
X5.4013Y-3.6523
X5.4023Y-4.2037
X5.4299Y-3.5787
X5.4331Y-4.2343
X5.4446Y-3.5217
X5.4449Y-5.2283
X5.467Y-3.31
X5.4764Y-2.69
X5.483Y-3.5551
X5.4948Y-3.3386
X5.5066Y-3.8228
X5.5145Y-3.6024
X5.5224Y-5.1535
X5.5224Y-5.1929
X5.5224Y-3.6614
X5.5224Y-3.9567
X5.5295Y-4.2087
X5.5315Y-4.5965
X5.544Y-3.463
X5.544Y-3.5039
X5.5618Y-5.1535
X5.5618Y-5.1929
X5.5748Y-2.6614
X5.5827Y-3.9921
X5.5853Y-3.4639
X5.609Y-3.6693
X5.6156Y-3.4942
X5.6208Y-3.7598
X5.6368Y-3.6415
X5.6417Y-5.2283
X5.6444Y-3.2717
X5.6497Y-4.0315
X5.6572Y-3.5354
X5.6754Y-3.7014
X5.6783Y-4.0045
X5.6917Y-4.6102
X5.6996Y-3.6703
X5.7074Y-5.1929
X5.7089Y-3.9739
X5.7143Y-3.3927
X5.7153Y-3.3386
X5.7202Y-4.5591
X5.7205Y-2.4724
X5.731Y-4.7795
X5.732Y-3.9291
X5.7323Y-2.6929
X5.7452Y-3.3683
X5.7507Y-4.4173
X5.7598Y-4.2618
X5.7736Y-4.6122
X5.7795Y-2.6772
X5.7822Y-4.8622
X5.7828Y-3.3561
X5.7835Y-2.8307
X5.7862Y-3.122
X5.816Y-3.3773
X5.8186Y-3.0984
X5.8248Y-5.1959
X5.8268Y-2.4724
X5.8268Y-2.689
X5.8295Y-4.815
X5.8346Y-2.748
X5.8531Y-3.7087
X5.8639Y-3.9168
X5.874Y-3.0669
X5.9043Y-3.6132
X5.9134Y-3.3858
X5.9318Y-3.6417
X5.9409Y-4.2441
X5.9488Y-3.4911
X5.9488Y-3.8976
X5.9725Y-4.2756
X5.9791Y-4.815
X5.9938Y-3.8976
X6.0056Y-2.8976
X6.0118Y-2.7874
X6.0224Y-3.8701
X6.0224Y-4.8346
X6.0236Y-3.4764
X6.0246Y-5.8327
X6.0295Y-6.2224
X6.0578Y-3.9203
X6.0591Y-3.8307
X6.0618Y-4.6063
X6.0618Y-4.7096
X6.0669Y-3.0984
X6.0709Y-4.937
X6.0896Y-4.3465
X6.0906Y-2.9213
X6.0932Y-3.7559
X6.0932Y-4.0669
X6.0984Y-3.5039
X6.1378Y-4.815
X6.1496Y-2.6083
X6.1496Y-5.1772
X6.1506Y-5.8346
X6.1759Y-4.5945
X6.2064Y-4.3041
X6.2087Y-4.3937
X6.233Y-4.8642
X6.2389Y-4.6063
X6.2389Y-5.7874
X6.248Y-3.2402
X6.2717Y-3.9035
X6.2736Y-4.3524
X6.2756Y-4.1949
X6.2776Y-5.3976
X6.3317Y-5.8307
X6.3334Y-3.5709
X6.3334Y-3.689
X6.3373Y-3.8583
X6.3386Y-3.2165
X6.3531Y-3.6132
X6.3701Y-3.3386
X6.3807Y-3.6417
X6.3832Y-3.9454
X6.3846Y-4.6063
X6.3898Y-4.8425
X6.3964Y-4.0709
X6.4114Y-5.3661
X6.4121Y-2.9528
X6.4121Y-3.2874
X6.4121Y-3.689
X6.4134Y-2.8583
X6.4449Y-2.7756
X6.4537Y-6.2234
X6.4606Y-2.6378
X6.4791Y-2.8652
X6.4791Y-3.0945
X6.4791Y-3.4567
X6.4791Y-3.8583
X6.5039Y-4.063
X6.5049Y-5.8268
X6.5283Y-5.3497
X6.5303Y-4.7874
X6.5893Y-3.6417
X6.6024Y-4.8425
X6.6621Y-5.3516
X6.6634Y-5.8248
X6.6781Y-4.314
X6.6781Y-4.6093
X6.6799Y-4.1063
X6.7205Y-3.1811
X6.7402Y-3.2244
X6.7822Y-4.7874
X6.7835Y-4.8465
X6.7972Y-5.3533
X6.7992Y-5.8238
X6.9409Y-5.8917
X7.0039Y-5.0236
X7.1319Y-4.3287
X7.1339Y-3.8248
X7.1378Y-4.8898
X7.1759Y-3.7717
X7.189Y-5.6339
X7.235Y-5.2953
X7.3366Y-3.6004
X7.3386Y-5.3829
X7.3531Y-5.0866
X7.357Y-3.4724
T3
X5.357Y-5.1417
X5.6562Y-4.6654
X5.6917Y-4.9409
X5.6917Y-4.9961
X6.8029Y-5.0906
T4
X4.5425Y-4.7047
X4.5425Y-4.8047
X4.6425Y-4.7047
X4.6425Y-4.8047
X4.7425Y-4.7047
X4.7425Y-4.8047
X4.8425Y-4.7047
X4.8425Y-4.8047
T5
X6.2488Y-5.248
X6.3472Y-5.248
X4.7803Y-4.9921
X4.7803Y-5.0906
X7.1811Y-3.2835
X7.2795Y-3.2835
X6.9771Y-5.248
X7.0755Y-5.248
T6
X5.924Y-2.5929
X5.924Y-2.6929
X5.9331Y-5.9748
X5.9331Y-6.0748
X4.9102Y-2.4626
X4.9102Y-2.7185
X5.0873Y-2.4626
X5.0873Y-2.7185
X6.6287Y-2.9409
X6.6287Y-3.0409
X6.6287Y-3.1409
X5.9436Y-5.2972
X5.9436Y-5.3972
X6.0436Y-5.2972
X6.0436Y-5.3972
X6.5945Y-2.6929
X6.6652Y-2.6222
X6.6287Y-3.3409
X6.6287Y-3.4409
X6.6287Y-3.5409
X6.6287Y-3.7409
X6.6287Y-3.8409
X6.6287Y-3.9409
X4.7303Y-3.2205
X4.7303Y-3.3205
X4.7303Y-3.4205
X5.8803Y-4.0925
X5.8803Y-4.1925
X5.8803Y-4.2925
X5.8803Y-4.3925
X5.8803Y-4.4925
X5.8803Y-4.5925
X4.5303Y-3.2205
X4.5303Y-3.3205
X4.5303Y-3.4205
X4.5303Y-3.5205
X3.9299Y-3.0807
X4.0006Y-3.01
X4.0713Y-2.9392
X4.142Y-2.8685
X4.2128Y-2.7978
X4.2835Y-2.7271
X5.2756Y-2.5945
X5.3756Y-2.5945
X5.4756Y-2.5945
X5.5756Y-2.5945
X5.6756Y-2.5945
X5.7756Y-2.5945
X3.8257Y-3.1813
X3.8964Y-3.252
X4.3303Y-3.2205
X4.3303Y-3.3205
X4.3303Y-3.4205
X4.3303Y-3.5205
X4.3303Y-3.6205
X4.3303Y-3.7205
X6.7685Y-2.7252
X6.8392Y-2.7959
X6.9099Y-2.8666
X6.9806Y-2.9373
X7.0513Y-3.008
X7.122Y-3.0787
X4.2303Y-5.0327
X4.2303Y-5.1327
X4.2303Y-5.2327
X6.9574Y-5.4646
X6.9574Y-5.5646
X4.1303Y-3.2205
X4.1303Y-3.3205
X4.1303Y-3.4205
X4.1303Y-3.5205
X4.1303Y-3.6205
X4.1303Y-3.7205
X5.2877Y-6.0748
X5.3877Y-6.0748
X5.4877Y-6.0748
X5.5877Y-6.0748
X5.6877Y-6.0748
X5.7877Y-6.0748
X4.9303Y-3.2205
X4.9303Y-3.3205
X4.9303Y-3.4205
X4.1323Y-5.4291
X4.2323Y-5.4291
X6.1897Y-5.5425
X6.1897Y-5.6425
X6.0519Y-2.4626
X6.0519Y-2.7185
X6.2291Y-2.4626
X6.2291Y-2.7185
X4.0795Y-5.0327
X4.0795Y-5.1327
X4.0795Y-5.2327
X6.3669Y-5.4646
X6.3669Y-5.5646
X5.1803Y-4.0925
X5.1803Y-4.1925
X5.1803Y-4.2925
X5.1803Y-4.3925
X5.1803Y-4.4925
X5.1803Y-4.5925
X5.048Y-5.2972
X5.048Y-5.3972
X5.148Y-5.2972
X5.148Y-5.3972
X6.9449Y-3.2008
X6.9449Y-3.3008
X6.9449Y-3.4008
X6.9449Y-3.5008
X6.9449Y-3.6008
X6.9449Y-3.7008
T0
M30
